<?xml version="1.0" encoding="UTF-8" standalone="no"?>
<!-- Created with Inkscape (http://www.inkscape.org/) -->

<svg
   xmlns:dc="http://purl.org/dc/elements/1.1/"
   xmlns:cc="http://creativecommons.org/ns#"
   xmlns:rdf="http://www.w3.org/1999/02/22-rdf-syntax-ns#"
   xmlns:svg="http://www.w3.org/2000/svg"
   xmlns="http://www.w3.org/2000/svg"
   xmlns:sodipodi="http://sodipodi.sourceforge.net/DTD/sodipodi-0.dtd"
   xmlns:inkscape="http://www.inkscape.org/namespaces/inkscape"
   width="1998.5942"
   height="671.97522"
   id="svg2"
   version="1.1"
   inkscape:version="0.48.4 r9939"
   sodipodi:docname="mincer_logo_with_text.svg"
   inkscape:export-filename="/users/pierre-yves.martin/Developpement/mincer/mincer/static/mincer_logo_with_text_200px.png"
   inkscape:export-xdpi="26.786701"
   inkscape:export-ydpi="26.786701">
  <defs
     id="defs4" />
  <sodipodi:namedview
     id="base"
     pagecolor="#ffffff"
     bordercolor="#666666"
     borderopacity="1.0"
     inkscape:pageopacity="0"
     inkscape:pageshadow="2"
     inkscape:zoom="0.73351557"
     inkscape:cx="1218.1064"
     inkscape:cy="335.98761"
     inkscape:document-units="px"
     inkscape:current-layer="layer1"
     showgrid="false"
     fit-margin-top="20"
     fit-margin-left="20"
     fit-margin-right="20"
     fit-margin-bottom="20"
     inkscape:window-width="1920"
     inkscape:window-height="1056"
     inkscape:window-x="0"
     inkscape:window-y="24"
     inkscape:window-maximized="1" />
  <metadata
     id="metadata7">
    <rdf:RDF>
      <cc:Work
         rdf:about="">
        <dc:format>image/svg+xml</dc:format>
        <dc:type
           rdf:resource="http://purl.org/dc/dcmitype/StillImage" />
        <dc:title></dc:title>
      </cc:Work>
    </rdf:RDF>
  </metadata>
  <g
     inkscape:label="Calque 1"
     inkscape:groupmode="layer"
     id="layer1"
     transform="translate(-34.494158,-283.04596)">
    <path
       style="fill:#000000"
       d="m 583.78819,932.76455 c -4.93883,-2.95005 -5.76882,-4.92683 -1.36574,-3.25279 5.55171,2.11076 8.22428,1.37865 10.92615,-2.99307 2.02094,-3.26995 2.40201,-5.15706 1.85186,-9.17081 -0.87551,-6.38749 1.04492,-7.80821 3.29033,-2.43417 0.92803,2.22106 2.1912,4.34972 2.80706,4.73034 0.61586,0.38063 0.82263,1.46629 0.45951,2.41261 -1.0848,2.82691 6.42989,1.6945 11.71081,-1.76475 2.53577,-1.66105 5.46648,-3.34849 6.5127,-3.74985 3.80593,-1.4601 3.65052,-14.14849 -0.23057,-18.82491 -1.09753,-1.32245 -1.76129,-1.2767 -4.14582,0.28569 -2.31082,1.51411 -3.59722,1.62754 -6.91384,0.60964 -2.24113,-0.68783 -4.89117,-0.93731 -5.88897,-0.55442 -1.07815,0.41372 -1.5188,0.21824 -1.08613,-0.48185 0.40044,-0.64792 -0.2925,-3.17979 -1.53984,-5.62638 -1.24735,-2.4466 -2.26791,-5.01592 -2.26791,-5.7096 0,-0.69367 -1.867,-5.89131 -4.14888,-11.5503 -4.78109,-11.8569 -11.74444,-37.74138 -13.32021,-49.51447 -0.59364,-4.43518 -1.57404,-8.55868 -2.1787,-9.16333 -0.60466,-0.60467 -1.11206,-2.94069 -1.12756,-5.19119 -0.0154,-2.25049 -0.55532,-6.37869 -1.19961,-9.17377 -4.42311,-19.18841 -5.38061,-62.90607 -2.36264,-107.87485 1.99413,-29.71332 2.20179,-38.64312 1.23301,-53.02054 -1.72318,-25.57296 -4.6425,-45.7327 -10.93263,-75.49665 -4.52528,-21.41294 -23.97373,-73.99043 -28.62048,-77.37339 -2.70856,-1.97192 -2.89477,-17.1415 -0.21041,-17.1415 2.23496,0 2.75124,-2.24371 1.85986,-8.08282 -1.07401,-7.03549 -4.16381,-11.50107 -7.99339,-11.55258 -1.67042,-0.0225 -4.30541,-0.74323 -5.8555,-1.60171 -3.13073,-1.73389 -6.61147,-0.73166 -11.23726,3.23557 -2.73252,2.3435 -2.74218,2.65032 -0.81228,25.82513 l 0.79549,9.55251 2.42572,-2.21616 c 4.04435,-3.69495 7.22522,-4.06648 11.11312,-1.29805 3.49513,2.48875 4.61834,4.26749 10.66389,16.88772 1.76803,3.69081 3.71308,7.61121 4.32233,8.71201 0.60925,1.1008 1.10772,2.68908 1.10772,3.52952 0,0.84044 1.04413,3.68917 2.32028,6.33049 1.27615,2.64133 3.67991,9.09257 5.34168,14.3361 1.66177,5.24352 3.47038,10.02642 4.01914,10.62867 0.54875,0.60224 0.99773,2.29499 0.99773,3.76166 0,1.46666 0.46446,3.56731 1.03214,4.66811 1.90427,3.6926 7.02906,30.64276 9.36698,49.25889 1.27383,10.14306 2.54626,19.73863 2.82765,21.32348 0.70327,3.9611 2.13627,38.19167 1.95421,46.68113 -0.0816,3.80365 -0.66879,13.9179 -1.30496,22.4761 -3.80484,51.18628 -3.83713,52.15298 -2.4253,72.6151 0.76546,11.09397 2.41913,26.39501 3.67483,34.00231 1.25571,7.60729 2.73522,16.68418 3.28779,20.17086 2.86701,18.09047 12.11573,49.24002 17.11143,57.63103 4.73312,7.94999 5.09078,9.31318 3.0384,11.58103 -1.21075,1.33786 -1.41427,2.27817 -0.60177,2.78032 0.67524,0.41732 1.2277,0.20948 1.2277,-0.46188 0,-0.67135 0.48792,-1.22065 1.08427,-1.22065 0.59634,0 0.3831,1.35151 -0.4739,3.00335 -1.16063,2.23712 -1.25622,3.86949 -0.37468,6.39826 0.65091,1.8672 0.95244,3.62591 0.67009,3.90828 -0.28236,0.28236 -3.51682,-1.81884 -7.18768,-4.66932 -3.67086,-2.85049 -7.26024,-5.17942 -7.97639,-5.17542 -1.49597,0.008 -5.33626,6.29154 -5.33626,8.73078 0,0.89954 -0.50875,1.63552 -1.13057,1.63552 -0.67352,0 -0.84876,-2.05609 -0.43344,-5.08607 0.48538,-3.54123 -0.0543,-7.65485 -1.77688,-13.54329 -1.36071,-4.65147 -3.46177,-11.82864 -4.66905,-15.94926 -1.20728,-4.12062 -2.52584,-9.30741 -2.93013,-11.5262 -0.4043,-2.2188 -1.48342,-6.36823 -2.39803,-9.22097 -4.63516,-14.45716 -12.08235,-52.97559 -11.92242,-61.6652 0.10512,-5.71312 0.71857,-4.35665 2.08489,4.61048 5.43664,35.68023 10.10112,55.71087 13.95719,59.93627 1.26642,1.38772 2.09746,4.0361 2.08797,6.65398 -0.009,2.3918 0.80825,5.60637 1.81541,7.14348 1.00716,1.53711 1.54554,3.53916 1.19641,4.44899 -0.34914,0.90982 0.72341,4.88116 2.38344,8.8252 2.08885,4.9629 2.79249,8.19872 2.28513,10.50868 -0.84885,3.86477 0.8758,4.40179 4.95671,1.54342 3.37898,-2.36673 3.26442,-3.64032 -1.38102,-15.35212 -3.40468,-8.58368 -7.68139,-24.88354 -11.17168,-42.57873 -1.22229,-6.19679 -2.16066,-7.86224 -3.3477,-5.94157 -1.34584,2.17762 -2.93841,-1.63983 -4.58947,-11.00117 -2.08005,-11.79369 -0.85408,-14.38224 1.41195,-2.98123 1.93134,9.71705 4.35669,14.89931 4.34389,9.28162 -0.003,-1.55316 -0.50421,-4.6393 -1.11262,-6.85809 -1.18899,-4.33614 -2.41028,-12.68428 -5.3116,-36.30755 -1.8729,-15.24958 -2.46169,-63.5613 -0.95701,-78.52472 0.41828,-4.15958 0.24792,-7.34791 -0.41447,-7.7573 -1.23102,-0.76081 -2.53877,5.45305 -2.55876,12.15812 -0.007,2.33986 -0.52511,4.571 -1.15141,4.95806 -0.72423,0.4476 -0.87697,-1.20584 -0.41963,-4.54245 0.48926,-3.5696 0.30063,-5.24622 -0.59023,-5.24622 -1.21107,0 -1.82772,2.72799 -1.56325,6.91572 0.06,0.95091 -0.43839,5.61903 -1.10763,10.37359 -0.66926,4.75456 -1.30348,17.56709 -1.40937,28.47228 -0.10593,10.90521 -0.49458,20.12967 -0.86373,20.49882 -1.37258,1.37259 -2.10531,-18.359 -2.05394,-55.31052 0.0852,-61.28064 -3.79463,-98.06793 -14.46595,-137.16185 -4.82363,-17.67116 -5.29056,-18.90595 -13.9474,-36.88385 -11.51505,-23.91362 -17.05123,-30.54445 -25.50204,-30.54445 -1.80244,0 -4.40522,-0.79011 -5.78394,-1.75581 -2.29833,-1.60981 -2.60718,-1.56819 -3.71433,0.50054 -0.66415,1.24099 -1.20628,2.93879 -1.20471,3.77289 10e-4,0.83411 -1.59359,5.14731 -3.54479,9.5849 l -3.54764,8.06834 -16.91422,4.31092 c -9.30283,2.37099 -25.89622,6.63865 -36.87422,9.48368 -10.97799,2.84502 -24.20431,5.96625 -29.39182,6.93608 -19.45703,3.63754 -25.04109,4.96158 -26.68737,6.32788 -1.77923,1.47663 -13.82199,4.85281 -36.91763,10.34986 -28.41008,6.76194 -35.29745,8.42312 -65.12307,15.70715 -16.79944,4.10278 -31.83117,8.00761 -33.40384,8.67741 -1.57267,0.6698 -7.53748,1.45418 -13.25514,1.74306 -7.39015,0.37339 -11.86148,1.23228 -15.46544,2.9707 -2.78834,1.345 -7.7158,2.64997 -10.9499,2.89992 -9.52613,0.73627 -10.75193,1.21999 -11.59405,4.57521 -0.61546,2.45222 -0.21303,3.55352 1.88962,5.1712 1.46939,1.13048 4.01155,2.06695 5.64922,2.08105 1.63769,0.0141 3.35257,0.40059 3.81085,0.85887 1.25151,1.25152 8.62482,1.4899 9.35863,0.30258 0.35186,-0.56933 1.43534,-0.72984 2.40774,-0.35669 1.08067,0.41469 3.28838,-0.7952 5.67896,-3.11223 3.09324,-2.99809 4.24666,-3.51206 5.5165,-2.45819 1.09354,0.90756 2.67074,0.995 4.94586,0.27421 8.8303,-2.79758 31.21306,-8.84188 82.29485,-22.22314 7.29033,-1.90975 16.36721,-4.1933 20.17086,-5.07454 3.80365,-0.88125 12.6212,-3.17185 19.59455,-5.09022 6.97336,-1.91839 20.9777,-5.23984 31.12076,-7.38101 10.14306,-2.14116 21.81334,-4.97569 25.93396,-6.29892 4.12062,-1.32324 8.64856,-2.41258 10.0621,-2.42077 1.41354,-0.008 4.52562,-0.7325 6.91573,-1.60961 5.80441,-2.13006 26.35349,-7.58101 41.80582,-11.0896 2.21879,-0.5038 6.88691,-1.96964 10.37359,-3.2574 6.25443,-2.31 8.47448,-1.73302 5.7878,1.50423 -0.74023,0.89192 -2.06136,1.3471 -2.93585,1.01153 -0.89739,-0.34436 -3.58854,1.42877 -6.17794,4.07049 -3.78255,3.85895 -5.3106,4.65345 -8.70448,4.52586 -2.26409,-0.0851 -4.50322,0.23212 -4.97584,0.70497 -0.47262,0.47285 -0.97882,4.05807 -1.12487,7.96714 -0.72346,19.36292 -1.81465,32.59617 -2.78655,33.79376 -0.68547,0.84466 -0.6205,1.48129 0.17837,1.74758 0.69116,0.23038 1.49965,4.28817 1.79666,9.0173 0.29699,4.72914 1.0064,10.16688 1.57645,12.08387 3.94334,13.2609 6.46966,20.26647 8.85731,24.56168 3.58111,6.44216 3.48804,7.68053 -0.42387,5.63963 -1.74334,-0.90953 -4.68424,-2.36522 -6.53534,-3.23487 -1.8511,-0.86966 -5.34756,-3.39657 -7.76993,-5.61536 -5.88121,-5.38697 -10.91091,-9.22097 -12.09668,-9.22097 -0.53232,0 1.62444,2.35927 4.79279,5.2428 3.16834,2.88355 7.61806,6.97775 9.88826,9.09822 4.69429,4.38469 13.30462,9.11527 14.85126,8.15939 0.56883,-0.35155 1.77785,0.42248 2.68673,1.72008 1.25459,1.79117 1.41213,3.64589 0.65427,7.70251 -0.54903,2.93879 -0.86815,5.4506 -0.70917,5.58178 1.73074,1.42816 8.19289,3.98956 10.06527,3.98956 1.31927,0 2.69721,0.77802 3.06211,1.72893 0.36491,0.95091 1.90466,1.72893 3.42169,1.72893 1.51702,0 2.83503,0.64835 2.92889,1.44078 0.0938,0.79243 0.24049,2.21879 0.32587,3.16971 0.36698,4.08802 2.07586,9.22096 3.06985,9.22096 0.5929,0 2.10578,-1.68571 3.36198,-3.74602 l 2.28399,-3.74601 0.005,4.8163 c 0.006,6.18209 2.29009,8.59882 7.25278,7.67238 2.92177,-0.54546 3.41905,-0.38867 2.36088,0.74432 -2.90375,3.10907 -11.15745,2.66595 -28.24618,-1.51651 -9.20785,-2.2536 -19.71217,-5.41123 -23.34295,-7.01694 -11.09766,-4.9079 -32.01459,-26.93221 -39.36529,-41.44935 -1.78143,-3.5182 -3.99653,-6.68744 -4.92244,-7.04274 -1.98669,-0.76237 -6.84384,0.65199 -18.52735,5.39496 -14.76453,5.99374 -33.68628,7.64174 -40.96575,3.56794 -1.69584,-0.94903 -0.42816,-1.22676 5.76261,-1.26248 6.62948,-0.0383 9.11349,-0.65543 15.08137,-3.74722 3.92956,-2.0358 9.54029,-5.99702 12.46829,-8.80272 2.928,-2.80569 7.05565,-5.82495 9.17255,-6.70945 3.23827,-1.35303 3.75956,-2.07558 3.28573,-4.55428 -0.60113,-3.14461 -2.10628,-4.56131 -4.89841,-4.6105 -0.95092,-0.0167 -1.55063,-0.80848 -1.33268,-1.7594 1.61077,-7.0281 1.40765,-9.14965 -1.40801,-14.7061 -3.26069,-6.43463 -3.72518,-6.86484 -10.49755,-9.72269 -4.55292,-1.92127 -4.57175,-1.95344 -1.16952,-1.99959 6.0248,-0.0817 13.49007,2.8221 16.33727,6.35484 2.68409,3.33035 2.71469,3.33724 3.40544,0.76715 0.38336,-1.42637 1.0947,-2.5934 1.58077,-2.5934 0.48607,0 1.1866,-1.15808 1.55675,-2.57351 0.54827,-2.09662 0.94697,-2.29868 2.15152,-1.09039 1.20355,1.2073 0.98655,1.85489 -1.1668,3.4821 -2.65749,2.00819 -2.38845,3.63966 0.6002,3.63966 0.88268,0 1.32714,-0.44936 0.98771,-0.99857 -0.33944,-0.54922 0.40797,-1.9263 1.6609,-3.06019 2.75072,-2.48937 2.94093,-1.48229 0.44077,2.33345 -3.41593,5.21336 -0.93313,5.80538 2.79029,0.66535 3.97774,-5.49112 4.61036,-7.62066 1.96191,-6.60436 -0.93256,0.35786 -2.45155,-0.10535 -3.37553,-1.0293 -0.92427,-0.92398 -2.55156,-1.67996 -3.61647,-1.67996 -1.5146,0 -1.77076,-0.6592 -1.1764,-3.02734 0.6244,-2.4878 0.42445,-2.89864 -1.12194,-2.30524 -1.03496,0.39715 -2.09867,0.7221 -2.36379,0.7221 -0.26512,0 -0.48204,0.97385 -0.48204,2.16411 0,1.19025 -0.85567,2.87425 -1.90149,3.74219 -1.71133,1.4203 -1.84782,1.21254 -1.36493,-2.07759 l 0.53653,-3.65569 -7.135,0.46596 c -3.92425,0.25627 -13.03526,2.33597 -20.24669,4.62154 -7.21143,2.28558 -14.80221,4.42832 -16.86839,4.76167 -4.67129,0.75365 -5.65342,2.20559 -3.27194,4.8371 1.01302,1.11937 1.84184,2.42044 1.84184,2.89126 0,0.47082 0.77802,1.63406 1.72894,2.58497 0.95091,0.95091 1.72893,2.97033 1.72893,4.48759 0,3.08748 2.95205,5.14502 7.38179,5.14502 2.65421,0 2.89955,0.39728 2.66917,4.32233 l -0.25369,4.32233 7.22342,0.57631 c 3.97287,0.31697 7.26493,1.09499 7.3157,1.72893 0.11008,1.37407 -6.46878,3.87731 -10.43131,3.96912 -3.14181,0.0728 -16.68831,-2.98344 -20.2445,-4.56737 -1.26788,-0.56471 -5.03657,-1.80265 -8.37487,-2.75098 -8.26907,-2.34903 -8.60948,-2.65716 -6.49703,-5.88115 0.99851,-1.52392 1.48743,-3.30154 1.0865,-3.95025 -0.92533,-1.49722 1.47291,-6.10343 2.76274,-5.30628 1.88235,1.16335 3.76732,-2.54586 2.49855,-4.91658 -0.65563,-1.22506 -0.8213,-2.61934 -0.36815,-3.09842 0.45316,-0.47908 -0.21344,-0.56272 -1.48132,-0.18587 -8.13657,2.41841 -31.61228,8.23358 -40.34172,9.99306 -5.70547,1.14998 -11.27407,2.44706 -12.37465,2.88239 -1.47476,0.58334 -2.29873,0.008 -3.13281,-2.18517 -1.24223,-3.26731 -4.65672,-3.06832 -4.67215,0.27228 -0.005,1.04157 -0.5112,6.26422 -1.12529,11.60587 -0.75306,6.55021 -0.73199,10.17548 0.0647,11.13543 0.8162,0.98346 0.77061,1.67714 -0.14752,2.24458 -1.52994,0.94555 -0.80117,11.33102 1.79478,25.57676 2.77313,15.21816 5.24992,23.17935 8.74535,28.11051 1.17416,1.6564 1.85176,3.29471 1.5058,3.64066 -1.13521,1.13522 -7.14936,-1.20214 -12.415,-4.825 -6.31857,-4.34729 -7.8053,-4.54718 -4.08994,-0.54991 4.46397,4.80265 16.69992,13.13034 19.29254,13.13034 1.83586,0 2.45588,0.84916 2.73518,3.74602 0.35942,3.72774 0.39352,3.74683 6.98875,3.91226 3.64517,0.0914 6.62757,-0.064 6.62757,-0.34539 0,-1.48429 -3.61237,-7.18629 -4.87438,-7.69407 -0.80577,-0.3242 -0.37039,-0.63039 0.96752,-0.68044 1.3379,-0.05 4.30555,1.18006 6.59477,2.73356 3.72802,2.52991 6.54986,2.30535 4.88484,-0.38871 -0.78212,-1.2655 2.29151,-3.9521 3.9004,-3.40928 0.74997,0.25302 0.62462,1.46074 -0.34545,3.32831 -1.67857,3.2316 -2.01719,6.86609 -0.63968,6.86609 0.48556,0 1.21208,-1.03736 1.6145,-2.30524 0.40241,-1.26789 1.15489,-2.30524 1.67217,-2.30524 1.57651,0 2.21184,4.45285 0.80224,5.62271 -0.72699,0.60334 -1.32179,2.82679 -1.32179,4.94101 0,4.7194 3.00297,5.56479 9.24516,2.60268 3.23749,-1.53629 4.44511,-1.66174 5.51802,-0.57324 3.18597,3.23227 -8.68677,6.15264 -22.25521,5.47418 -3.95523,-0.19778 -4.02572,-0.12278 -3.60176,3.83245 0.23783,2.21879 0.49717,4.9485 0.57631,6.06601 0.21396,3.02123 1.89145,2.60444 4.31553,-1.07221 1.18392,-1.79568 2.15601,-2.57585 2.16018,-1.73371 0.0127,2.55766 9.24731,10.85823 13.1032,11.77787 2.44041,0.58204 -0.13387,0.90114 -7.91188,0.98074 -11.10423,0.11365 -12.19978,-0.1133 -29.71702,-6.15392 -11.81901,-4.07569 -19.76153,-7.51835 -22.68211,-9.83149 -10.1444,-8.03451 -26.12662,-27.12613 -31.55987,-37.69993 -2.42364,-4.71672 -4.94104,-5.43653 -11.22511,-3.20963 -8.63514,3.06004 -28.65599,7.45027 -33.97566,7.45027 -4.11287,0 -17.82904,-4.61795 -17.78498,-5.98783 0.006,-0.19337 3.63166,-0.46581 8.05651,-0.6054 5.15365,-0.1626 9.0851,-0.93521 10.93858,-2.14965 1.59137,-1.04271 2.8934,-1.54365 2.8934,-1.11321 0,0.70723 8.9895,-3.73936 10.37358,-5.13122 2.93187,-2.94835 10.60192,-6.91248 13.37472,-6.91248 1.89945,0 4.07596,-0.62242 4.83669,-1.38315 1.07577,-1.07577 1.38314,-0.78976 1.38314,1.28706 0,2.01949 0.51372,2.53585 2.1081,2.11892 1.15945,-0.30321 2.8642,0.0254 3.78833,0.73003 2.74043,2.08978 7.37134,9.2265 7.00948,10.80231 -0.18438,0.80286 0.46713,1.76764 1.44778,2.14395 0.98065,0.37632 1.783,1.66607 1.783,2.86613 0,1.20005 0.39096,2.18192 0.8688,2.18192 0.47784,0 3.83735,2.82975 7.46557,6.28834 6.21746,5.92679 11.94516,9.40283 29.70211,18.02572 17.64619,8.56911 21.97581,10.43132 23.25853,10.00374 0.74725,-0.24908 -6.12528,-4.20495 -15.27228,-8.79083 -9.147,-4.58587 -18.64767,-9.55983 -21.11259,-11.05323 -8.13355,-4.92778 -18.00862,-14.56904 -23.49699,-22.94068 -2.97334,-4.53533 -7.74101,-11.60393 -10.59484,-15.708 -4.15112,-5.9697 -5.19251,-8.44337 -5.20743,-12.36953 -0.0104,-2.69917 -0.53732,-4.90705 -1.17126,-4.90641 -0.63394,6.5e-4 -1.15262,1.01845 -1.15262,2.26178 0,4.78657 -5.51356,-0.26517 -7.01822,-6.43038 -1.51575,-6.21059 -6.28781,-15.46941 -7.97306,-15.46941 -0.91772,0 -2.51528,1.29225 -3.55015,2.87165 -1.03487,1.57941 -2.37399,2.56734 -2.9758,2.1954 -0.60183,-0.37195 -3.00883,0.64634 -5.34888,2.26288 -3.33258,2.30217 -6.253,3.09907 -13.47561,3.6771 -5.07153,0.40587 -9.37533,0.88632 -9.56401,1.06766 -0.18867,0.18133 0.49673,1.16947 1.52311,2.19585 2.00834,2.00833 11.46304,2.63631 12.57614,0.83528 0.6164,-0.99736 9.87252,-2.36904 9.87252,-1.46302 0,0.24672 -1.33398,2.0758 -2.96439,4.06462 -1.63042,1.98884 -4.47098,5.95012 -6.31237,8.80285 -3.06349,4.74604 -3.18464,5.30923 -1.4258,6.62757 1.05721,0.79243 3.50877,1.44872 5.44791,1.45842 1.93915,0.009 4.29524,0.50423 5.23578,1.09892 1.35046,0.8539 0.81287,1.45614 -2.55637,2.86391 -6.06013,2.53208 -9.45855,2.25069 -21.12542,-1.7492 -8.11188,-2.78108 -11.64919,-3.42279 -16.64106,-3.01892 -11.84377,0.95828 -26.13201,-2.56424 -40.91803,-10.08764 -6.34231,-3.22707 -24.799751,-20.88344 -24.750151,-23.67598 0.0186,-1.04619 1.6505,0.10777 4.03627,2.8542 7.24737,8.34285 12.615501,13.22154 14.566571,13.23847 1.05656,0.009 2.09392,0.46099 2.30524,1.00406 0.21131,0.54307 2.28922,1.33707 4.61759,1.76447 3.68127,0.67574 4.33656,0.45195 5.02464,-1.71599 0.60373,-1.90219 1.01896,-2.12466 1.75195,-0.93867 0.55153,0.89239 0.42791,2.19636 -0.29026,3.0617 -2.38507,2.87383 0.1156,2.84661 2.78182,-0.0303 l 2.67931,-2.89103 3.14763,2.70749 c 1.73119,1.48911 3.14763,3.45488 3.14763,4.36838 0,2.0698 3.46575,3.51331 4.92697,2.05209 0.67641,-0.67641 0.17534,-1.56972 -1.33344,-2.37718 -1.32938,-0.71147 -3.25743,-2.91869 -4.28456,-4.90493 -1.80272,-3.48609 -1.77444,-3.68157 0.81545,-5.63513 1.88675,-1.42318 3.2718,-1.70861 4.66718,-0.96183 3.65998,1.95876 3.64575,-1.31664 -0.0213,-4.90185 -2.84309,-2.77964 -4.41306,-3.41614 -7.90502,-3.20485 -6.3972,0.38707 -8.60897,0.0732 -7.87316,-1.11741 0.35992,-0.58235 -0.90022,-1.40028 -2.80031,-1.8176 -1.90009,-0.41733 -3.7506,-1.23756 -4.11225,-1.82273 -0.36163,-0.58517 -1.7193,-1.06394 -3.01702,-1.06394 -3.78319,0 -10.319001,-6.00479 -16.482581,-15.14338 -3.14765,-4.66694 -6.90807,-9.6276 -8.3565,-11.0237 -1.7778,-1.71358 -2.63351,-3.87633 -2.63351,-6.6561 0,-3.3151 -0.55331,-4.32811 -2.83866,-5.19699 -2.12646,-0.80848 -2.81185,-1.88578 -2.73176,-4.2938 0.0588,-1.76801 -1.20353,-8.40134 -2.80521,-14.74075 -1.60167,-6.33941 -3.2707,-13.73059 -3.70897,-16.42484 -0.5263,-3.23543 -1.38471,-4.89864 -2.52829,-4.89864 -1.30912,0 -1.66835,-1.1948 -1.47281,-4.89864 0.38585,-7.30889 0.23597,-7.63416 -3.46892,-7.52882 -1.87985,0.0535 -4.20438,-0.55552 -5.16561,-1.35327 -1.54726,-1.28411 -1.55184,-1.73004 -0.0399,-3.8886 2.03637,-2.90733 2.27591,-10.76469 0.34776,-11.40742 -1.54335,-0.51444 -0.45901,-4.34925 1.22981,-4.34925 0.60213,0 2.21676,1.81538 3.58804,4.03417 2.91945,4.72377 3.99036,5.1601 3.00228,1.22327 -0.38802,-1.54601 -0.19285,-3.12775 0.43372,-3.51499 0.62656,-0.38724 1.12372,-1.8454 1.10478,-3.24035 -0.0516,-3.80377 1.92655,-13.32732 4.11805,-19.82558 2.67191,-7.92279 8.85542,-19.01824 10.59889,-19.01824 0.78997,0 2.23506,-1.21903 3.21129,-2.70897 2.21009,-3.37301 12.78021,-9.25118 14.60619,-8.12266 0.74288,0.45912 3.986151,0.96091 7.207251,1.11509 5.72488,0.274 7.7732,1.05038 15.3242,5.80833 4.62252,2.91268 10.7032,10.44249 10.7032,13.25394 0,1.50569 -2.18194,-0.0369 -7.59135,-5.36704 -9.92389,-9.77841 -12.96085,-11.34614 -18.88777,-9.75018 -11.437611,3.07982 -23.009021,21.90928 -24.442531,39.7738 -0.43167,5.37954 1.65776,7.23458 2.52291,2.23989 0.32319,-1.86588 0.97154,-3.26284 1.44077,-3.10436 0.46924,0.15849 1.33688,0.28816 1.9281,0.28816 0.59122,0 1.38068,0.96324 1.75433,2.14055 0.47924,1.50995 1.47321,1.98879 3.37403,1.62543 2.01989,-0.38613 2.85541,0.0996 3.3366,1.93965 0.50836,1.94397 1.23088,2.30694 3.4723,1.74438 2.380901,-0.59757 2.955381,-0.21231 3.617541,2.42594 1.15905,4.61801 -1.21482,6.41936 -3.855001,2.92526 -1.32345,-1.7515 -2.62131,-2.42761 -3.55378,-1.85132 -0.92641,0.57256 -2.19546,-0.0553 -3.43606,-1.70002 -1.6574,-2.19725 -2.35168,-2.40207 -4.40941,-1.30081 -2.90415,1.55425 -2.1719,4.72222 0.90549,3.91746 1.38145,-0.36126 2.60097,0.3185 3.46381,1.93073 1.04847,1.95907 1.67257,2.20538 2.93446,1.1581 1.27957,-1.06195 2.07598,-0.554 3.94947,2.51898 1.2907,2.11703 2.34867,3.2008 2.35103,2.40837 0.002,-0.79242 1.041671,-1.44077 2.309551,-1.44077 1.86615,0 2.30524,0.76842 2.30524,4.03417 0,4.524 -2.07062,5.36757 -4.32288,1.76114 -0.865621,-1.38608 -2.126901,-2.0016 -3.232321,-1.57741 -1.09942,0.42189 -2.46079,-0.22956 -3.45955,-1.65549 -1.09233,-1.55951 -2.44465,-2.14247 -4.01649,-1.73143 -3.13566,0.82 -2.46708,4.47213 0.73765,4.02949 1.63015,-0.22515 2.80721,0.64953 3.7968,2.82144 1.07202,2.35283 1.67591,2.75667 2.39131,1.59914 1.60719,-2.6005 4.647621,-0.44587 4.647621,3.29358 0,5.09002 -3.163961,5.80867 -4.891871,1.11114 -0.47798,-1.29948 -1.6015,-1.70029 -3.66194,-1.30642 -2.16575,0.41401 -2.9724,0.081 -2.9724,-1.22707 0,-2.48462 -1.26111,-2.9899 -4.45388,-1.78446 -2.15975,0.81542 -2.44981,1.36037 -1.39841,2.62724 0.72962,0.87912 2.27343,1.3508 3.4307,1.04817 1.44094,-0.37682 2.30558,0.22011 2.7433,1.89394 0.50485,1.93054 1.2319,2.29542 3.45978,1.73626 2.23235,-0.56029 2.95488,-0.1945 3.46441,1.75394 0.4152,1.58776 1.39169,2.33434 2.75021,2.10268 2.550121,-0.43486 3.571981,4.09622 1.489631,6.6053 -1.721431,2.07419 -0.48797,5.58744 1.67082,4.75903 2.5062,-0.96171 6.03288,3.54675 4.57826,5.85281 -1.87641,2.97472 -3.3998,2.88763 -4.8416,-0.27679 -1.17791,-2.58522 -1.60965,-2.75979 -3.659481,-1.47964 -2.97458,1.85764 -2.3657,3.71748 1.227561,3.74965 2.00946,0.018 2.89716,0.75249 3.16187,2.61619 0.29928,2.10714 0.75666,2.38323 2.44832,1.47787 1.55901,-0.83435 2.57702,-0.56446 4.06259,1.07709 1.09027,1.20473 2.68009,1.92265 3.53294,1.59539 0.85284,-0.32728 2.22558,0.48572 3.05051,1.80666 0.82494,1.32093 2.6881,2.40169 4.14035,2.40169 1.45226,0 2.93902,0.77802 3.30392,1.72893 0.36491,0.95092 1.90466,1.72894 3.42169,1.72894 2.36574,0 2.75823,-0.55493 2.75823,-3.89975 0,-2.88691 0.57935,-4.05124 2.23066,-4.48307 1.62385,-0.42464 2.0549,-1.25539 1.58459,-3.05388 -0.39948,-1.52759 0.1654,-3.36722 1.47999,-4.81982 1.16933,-1.2921 2.14197,-3.45385 2.16142,-4.80391 0.0234,-1.61934 0.96996,-2.67693 2.78176,-3.10784 2.4772,-0.58917 2.56292,-0.80545 0.87459,-2.20664 -1.61903,-1.34367 -2.31169,-1.08255 -5.12931,1.93374 -1.79165,1.91794 -5.23095,4.31173 -7.64293,5.31952 -4.5499,1.90107 -17.36725,2.53137 -18.37331,0.90352 -0.97908,-1.5842 2.07559,-6.50473 4.78078,-7.701 3.38965,-1.49895 3.27135,-4.95974 -0.3367,-9.85018 l -2.90966,-3.94381 2.6215,-2.01823 c 2.5333,-1.95032 3.61136,-1.9845 15.27295,-0.48409 0.61889,0.0797 1.31119,-1.0823 1.53843,-2.58206 0.22913,-1.51216 1.41755,-2.98949 2.66789,-3.31646 3.07011,-0.80285 2.0118,-3.27129 -1.20158,-2.80262 -1.82847,0.26668 -2.75577,-0.32987 -3.20943,-2.06466 -0.43927,-1.67976 -1.40007,-2.33511 -3.08452,-2.10397 -1.64193,0.22532 -2.8256,-0.53364 -3.59915,-2.3077 -0.85999,-1.97232 -1.79933,-2.48179 -3.6999,-2.0067 -1.75744,0.43929 -2.90633,-0.0341 -3.70521,-1.52687 -0.79331,-1.48229 -2.02729,-1.9974 -3.91879,-1.63581 -2.03996,0.38995 -2.91629,-0.0665 -3.35609,-1.74839 -0.44756,-1.71145 -1.30794,-2.13992 -3.46795,-1.727 -2.36142,0.45141 -3.01069,-5.8e-4 -3.64793,-2.53955 -0.671211,-2.67429 -1.022021,-2.88387 -2.614731,-1.56202 -1.5676,1.30099 -2.08999,1.14943 -3.53397,-1.02531 -1.35521,-2.04106 -2.1334,-2.31706 -3.88698,-1.37856 -1.83403,0.98154 -2.38693,0.66213 -3.38132,-1.9533 -2.14231,-5.63471 1.4852,-8.63095 4.81599,-3.97789 1.2498,1.74594 2.15271,1.9852 4.30632,1.14109 2.1588,-0.84613 2.44934,-1.40014 1.39841,-2.66646 -0.72962,-0.87912 -2.32133,-1.33827 -3.53716,-1.02032 -1.65297,0.43226 -2.40052,-0.17862 -2.96348,-2.42165 -0.91633,-3.65094 0.0612,-6.59026 2.05704,-6.1853 0.92034,0.18675 1.36346,-0.71011 1.18124,-2.39072 -0.16037,-1.47926 0.15292,-3.48389 0.69623,-4.45472 0.84274,-1.5059 1.35894,-1.36681 3.51453,0.94694 1.389681,1.49165 3.352141,2.71826 4.361011,2.7258 2.4015,0.0179 4.38261,3.2306 3.46566,5.62013 -1.00643,2.62273 -3.86083,2.36009 -4.58841,-0.42218 -0.49171,-1.8803 -1.10375,-2.12272 -3.304151,-1.30874 -3.47745,1.2864 -3.58266,4.28546 -0.13763,3.92364 1.573821,-0.16529 3.037361,0.61719 3.792121,2.02747 0.89111,1.66508 1.96736,2.11137 3.91356,1.62291 2.1646,-0.54328 2.78526,-0.14628 3.20515,2.0502 0.28639,1.49817 0.31113,3.35272 0.055,4.12122 -0.76669,2.30007 -4.56776,1.57897 -5.24066,-0.9942 -0.53579,-2.04887 -0.9779,-2.20281 -3.08602,-1.07458 -2.848931,1.5247 -2.470341,4.21768 0.51667,3.67516 1.11197,-0.20198 2.73998,0.65816 3.6178,1.91143 0.99642,1.4226 2.42825,2.06103 3.81122,1.69937 1.44138,-0.37693 2.64704,0.22762 3.45142,1.73061 0.80281,1.50008 2.01075,2.10736 3.44544,1.73218 1.53069,-0.40028 2.44419,0.16266 2.9743,1.8329 0.84566,2.66442 2.03242,2.96407 5.14399,1.29881 1.46294,-0.78294 1.90826,-1.99673 1.50553,-4.10348 -0.4511,-2.35978 -0.0421,-3.13023 1.93678,-3.6477 2.23805,-0.58527 3.18135,-4.55275 0.95627,-4.02203 -0.47545,0.11341 -1.90379,0.20619 -3.1741,0.20619 -1.89724,0 -2.25739,0.66871 -2.01708,3.74531 0.23832,3.05121 -0.16024,3.81006 -2.15061,4.09465 -1.64618,0.23538 -2.63859,-0.39803 -3.04229,-1.9418 -0.42192,-1.61343 -1.27464,-2.11448 -2.88288,-1.69391 -1.75608,0.45922 -2.46604,-0.12916 -3.07277,-2.54655 -1.15609,-4.60626 1.20784,-6.43357 3.83133,-2.96162 1.783,2.35965 2.40991,2.54463 4.61829,1.36275 3.10759,-1.66313 2.57802,-4.093 -0.89204,-4.093 -4.21063,0 -6.52959,-5.73315 -2.88472,-7.13182 1.18244,-0.45374 2.57797,0.21003 3.77333,1.79476 1.67179,2.21632 2.15529,2.32586 4.07396,0.92289 1.44175,-1.05424 1.90843,-2.29188 1.38174,-3.66443 -0.72953,-1.90112 -0.91184,-1.91668 -2.20436,-0.18817 -1.77293,2.37095 -3.70412,1.14432 -4.71776,-2.9966 -1.00241,-4.09504 2.23675,-5.80162 4.68283,-2.4672 0.8894,1.21239 2.59704,2.04763 3.79477,1.85607 1.25936,-0.20141 2.70181,0.63109 3.4206,1.97416 0.73344,1.37045 1.94174,2.05431 2.94767,1.6683 0.9376,-0.35979 1.43991,-1.08266 1.11623,-1.60638 -0.32366,-0.5237 -0.0529,-1.28321 0.60174,-1.68779 0.65462,-0.40458 0.88396,-1.34811 0.50963,-2.09673 -0.37431,-0.74862 0.0542,-0.46613 0.95211,0.62774 1.44146,1.75593 1.89022,1.79397 3.83149,0.32482 1.20935,-0.91524 3.10649,-1.68056 4.21589,-1.70073 1.1094,-0.0202 2.01709,-0.7984 2.01709,-1.72941 0,-1.03113 0.67577,-1.43344 1.72893,-1.0293 1.84366,0.70747 2.43669,5.0273 0.69016,5.0273 -0.57133,0 -2.04457,1.70471 -3.2739,3.78826 -1.93096,3.27274 -2.03904,4.25304 -0.79426,7.20388 5.47794,12.98572 7.41217,18.25817 7.41217,20.20458 0,1.2261 0.49869,2.22928 1.1082,2.22928 0.6095,0 1.66185,2.20438 2.33853,4.89863 0.67669,2.69425 1.93349,6.19534 2.79289,7.78019 2.32306,4.28404 2.90918,8.31947 3.51557,24.20503 0.83278,21.8157 -3.16261,42.26062 -10.69925,54.74948 -3.3915,5.62003 -10.54654,13.25514 -12.42168,13.25514 -2.35908,0 -2.74785,3.23161 -0.91616,7.61547 1.249,2.98927 1.40284,4.57202 0.52929,5.44556 -1.76516,1.76516 -1.51996,5.3809 0.36491,5.3809 0.878,0 2.5138,-1.40018 3.6351,-3.11151 1.89023,-2.88484 1.90378,-3.34665 0.18617,-6.33942 -1.0189,-1.77534 -1.35801,-3.2279 -0.75355,-3.2279 0.60446,0 1.09901,0.51868 1.09901,1.15262 0,0.63394 0.80338,1.15262 1.78529,1.15262 0.9819,0 2.74235,2.13768 3.91209,4.75039 1.87346,4.1845 2.21894,4.46015 2.9001,2.31399 0.4253,-1.34001 2.78576,-4.98236 5.24546,-8.09413 5.55303,-7.02511 9.20948,-13.74083 9.20948,-16.91484 0,-1.3301 0.35546,-2.77384 0.78993,-3.2083 1.92093,-1.92092 3.67632,-9.32914 2.53611,-10.703 -0.81765,-0.98521 -0.63705,-2.23688 0.59379,-4.11539 0.97284,-1.48476 2.09739,-5.27989 2.49897,-8.43363 0.40159,-3.15375 0.99578,-7.72409 1.32044,-10.15634 0.33585,-2.51606 0.0371,-4.97538 -0.69293,-5.70547 -1.42396,-1.42396 -1.57938,-7.14985 -0.28345,-10.44303 1.50737,-3.83052 4.01599,1.02196 4.27513,8.26947 0.29353,8.20962 0.19714,7.95315 2.04121,5.43125 1.93096,-2.64075 3.6857,-0.49166 2.06744,2.53208 -1.46295,2.73356 3.13426,12.57864 5.61052,12.01514 0.94541,-0.21515 2.8868,-0.51854 4.31418,-0.67422 3.96445,-0.43236 4.13034,-1.28071 0.92645,-4.73776 -5.10463,-5.508 -3.28047,-9.80155 3.91981,-9.22614 2.191,0.17509 4.20373,1.03491 4.47273,1.91071 0.92285,3.0046 4.00529,5.62654 6.61475,5.62654 2.8511,0 3.64232,-2.0971 4.58487,-12.15209 0.88941,-9.48801 3.04166,-8.6654 3.27739,1.25263 0.17645,7.42428 1.82612,9.14688 7.15495,7.47126 1.83572,-0.57722 5.93106,-1.6191 9.10077,-2.31529 10.2593,-2.25331 14.86747,-3.57674 16.14443,-4.63652 0.68812,-0.57109 2.26457,-1.03427 3.50324,-1.0293 3.72796,0.015 11.25228,-1.91803 14.93095,-3.83575 1.90182,-0.99142 5.79191,-2.4239 8.64465,-3.18327 5.51576,-1.46824 9.56948,-4.2803 8.54945,-5.93075 -0.59626,-0.96478 5.74624,-1.66892 10.46879,-1.16222 1.26788,0.13603 3.08326,0.30002 4.03417,0.36444 1.98786,0.13465 20.46942,-3.82577 34.00231,-7.28638 12.08244,-3.08969 18.68755,-4.49735 23.62872,-5.03567 2.21879,-0.24173 7.66493,-0.99146 12.10252,-1.66609 4.43759,-0.67462 9.26295,-1.22339 10.72302,-1.21949 1.46007,0.003 4.68116,-1.02674 7.15796,-2.29031 2.47681,-1.26357 5.74095,-2.2974 7.25366,-2.2974 1.51271,0 4.40343,-0.82465 6.42381,-1.83254 2.02037,-1.0079 5.60115,-1.9263 7.95726,-2.04088 2.35613,-0.11457 5.51046,-0.89612 7.00963,-1.73672 1.49917,-0.84061 4.24508,-1.30539 6.10201,-1.03285 1.85693,0.27254 3.64335,0.0633 3.96983,-0.46491 0.32647,-0.52825 2.13726,-0.96045 4.02397,-0.96045 1.88672,0 4.57917,-0.74717 5.98323,-1.66039 1.40407,-0.91323 4.94356,-1.94346 7.86554,-2.28942 2.92198,-0.34596 6.81207,-1.41096 8.64466,-2.36668 1.83257,-0.9557 4.03159,-1.74085 4.8867,-1.74475 0.8551,-0.003 3.33737,-0.85302 5.51616,-1.88692 2.17879,-1.0339 4.26539,-1.57585 4.6369,-1.20434 0.37151,0.37151 3.18154,-0.59444 6.24451,-2.14656 4.6676,-2.36526 5.69271,-3.48133 6.33314,-6.8951 1.26725,-6.75502 1.17077,-24.53187 -0.14029,-25.84934 -0.85162,-0.85579 -3.93904,-0.53468 -10.37358,1.07891 -13.53024,3.39297 -25.8741,5.54604 -25.8741,4.5131 0,-1.61823 2.59199,-2.57557 10.8804,-4.01864 4.47581,-0.77927 12.2522,-2.51045 17.28086,-3.84708 10.14211,-2.69577 10.47387,-2.56747 11.68159,4.51763 1.07395,6.30035 1.29176,6.55311 2.66672,3.09467 1.79839,-4.52344 1.58763,-14.13381 -0.4578,-20.87661 -1.76287,-5.81132 -4.79303,-10.2487 -6.34397,-9.29016 -1.39137,0.85992 -3.07287,-1.98121 -3.90414,-6.59656 l -0.77029,-4.27683 5.83267,-0.77373 c 3.20796,-0.42555 6.11098,-1.22404 6.45113,-1.77443 0.34016,-0.55037 1.75489,-1.01223 3.14384,-1.02633 2.48297,-0.0252 2.47699,-0.0644 -0.35618,-2.33642 -1.99657,-1.6011 -4.20903,-2.20336 -7.20388,-1.96099 -4.62699,0.37445 -5.33567,-0.31679 -2.62835,-2.56367 2.41126,-2.00116 22.16469,-6.89413 27.94333,-6.92163 5.07089,-0.0241 15.74014,3.59618 18.85181,6.3968 1.56061,1.40461 2.46911,1.36758 6.63956,-0.27062 3.87219,-1.52105 5.41427,-1.6324 7.76613,-0.56082 3.47638,1.58394 2.54158,4.10569 -1.17608,3.17262 -3.05051,-0.76563 -8.6855,4.2298 -6.37919,5.65517 0.73685,0.4554 1.91696,0.25078 2.62244,-0.45471 2.6696,-2.66959 6.0989,-1.40489 8.24208,3.03962 2.23546,4.63589 5.25842,17.42458 5.25842,22.24587 0,5.28257 -2.55268,9.14412 -6.05126,9.15405 -2.39829,0.007 -3.16971,0.57001 -3.16971,2.31423 0,3.41159 7.27752,3.24767 9.70541,-0.21862 0.97227,-1.38811 2.05431,-2.23733 2.40451,-1.88713 1.1742,1.17421 -6.0899,7.86885 -8.53819,7.86885 -1.3305,0 -2.41911,0.44614 -2.41911,0.99143 0,0.54529 2.02138,5.36669 4.49195,10.71423 8.82204,19.09527 22.58155,65.26594 26.56756,89.14864 7.41894,44.4517 8.55305,68.64343 5.21434,111.22789 -2.08997,26.65696 -2.36786,67.86708 -0.55575,82.41237 5.95241,47.7781 19.69787,103.15954 25.6038,103.15954 0.48872,0 2.64721,-1.91899 4.79664,-4.26441 3.88461,-4.23885 3.96827,-4.26596 13.95535,-4.52152 5.52602,-0.14142 12.7216,-0.87919 15.99017,-1.6395 8.15691,-1.8974 19.4969,-7.98092 29.01465,-15.5654 21.04074,-16.76685 58.37274,-29.32176 87.21661,-29.33128 12.21363,-0.003 15.62158,0.83662 19.27078,4.75353 3.68055,3.95066 3.16625,5.81403 -1.02733,3.72201 -1.89376,-0.94473 -4.03383,-1.35266 -4.75571,-0.9065 -0.72189,0.44614 -4.48889,1.01668 -8.37114,1.26785 -8.82562,0.57096 -19.5715,3.50039 -22.65706,6.17653 -1.29094,1.11953 -3.23679,1.81076 -4.32418,1.53604 -1.08749,-0.2747 -3.34778,0.78521 -5.023,2.35537 -1.67522,1.57016 -3.30041,2.6003 -3.61151,2.2892 -0.31109,-0.31109 -3.22687,-0.21261 -6.47945,0.21886 -5.04468,0.66921 -5.70605,1.03474 -4.5003,2.48751 1.14721,1.38234 0.98745,1.9977 -0.84844,3.26793 -1.24391,0.86068 -2.91002,2.12171 -3.70245,2.80226 -0.79242,0.68055 -1.44077,0.86717 -1.44077,0.4147 0,-0.45246 -1.38038,0.43477 -3.06747,1.97165 -1.68698,1.53687 -2.69379,2.14596 -2.23712,1.35353 0.59118,-1.02597 -0.23641,-1.44077 -2.87441,-1.44077 -3.58534,0 -3.63974,0.0715 -1.69343,2.22215 1.93617,2.1395 1.87036,2.29486 -1.76985,4.17728 -3.45636,1.78737 -3.6077,2.08171 -1.76339,3.4303 1.57275,1.14999 1.68893,1.67819 0.52709,2.3962 -1.95968,1.21118 -11.58118,1.56059 -13.05539,0.4741 -2.4817,-1.82898 -8.56189,-2.2693 -9.47212,-0.68596 -0.49581,0.86243 -3.41277,2.96407 -6.48213,4.67032 -4.81021,2.67397 -6.01888,2.92074 -8.75495,1.78742 -2.58331,-1.07004 -3.96928,-0.93574 -7.44424,0.72136 -3.38399,1.61372 -4.71582,1.75772 -6.41897,0.69409 -1.68942,-1.05506 -2.43919,-0.99249 -3.50566,0.29253 -1.16699,1.40614 -1.73945,1.38378 -4.09553,-0.15998 -3.84371,-2.51849 -5.72194,-1.50817 -2.87573,1.54688 3.46594,3.72026 8.94417,18.41092 9.80531,26.2944 1.23216,11.28 1.73996,12.94869 3.31855,10.90531 0.74076,-0.95886 2.79776,-2.67198 4.57109,-3.80693 4.33899,-2.77698 24.99007,-11.15989 27.49218,-11.15989 1.09845,0 2.31781,-0.51868 2.70958,-1.15262 0.39178,-0.63394 1.73182,-1.15262 2.97791,-1.15262 1.4447,0 3.37465,-1.83602 5.32626,-5.06703 2.66509,-4.41228 3.33615,-4.89633 5.1936,-3.74601 1.63879,1.01497 2.34569,0.97929 3.05144,-0.15402 0.7091,-1.1387 1.61828,-0.92454 3.98784,0.93938 1.68813,1.32791 3.64862,2.05638 4.35668,1.61883 0.8708,-0.53819 1.03712,-0.008 0.51418,1.64004 -0.67751,2.13464 -0.37114,2.38881 2.47975,2.05688 3.47642,-0.40478 8.41989,-3.03566 8.41989,-4.48106 0,-0.48145 1.77296,-0.87536 3.93989,-0.87536 2.16693,0 4.88999,-0.37477 6.05126,-0.83282 1.73077,-0.68273 1.48815,-0.94446 -1.34649,-1.4521 -4.52957,-0.81119 -3.89183,-2.90187 0.88521,-2.90187 2.0489,0 4.37823,-0.42249 5.1763,-0.93886 0.79819,-0.51638 2.47837,-0.61282 3.73392,-0.21432 1.30292,0.41352 3.38766,-0.0493 4.85668,-1.07822 1.41565,-0.99152 3.68516,-1.80277 5.04341,-1.80277 1.35836,0 3.80007,-1.04649 5.42607,-2.32553 1.79002,-1.40798 3.2399,-1.86689 3.6749,-1.16311 0.40503,0.65529 2.75154,-0.71871 5.37871,-3.14942 2.56308,-2.3715 5.07545,-4.31184 5.58306,-4.31184 1.75371,0 10.38073,-7.60582 10.38073,-9.15195 0,-0.85322 0.77802,-1.84985 1.72893,-2.21476 0.95091,-0.3649 1.72893,-1.45775 1.72893,-2.42856 0,-0.97081 0.48422,-1.7651 1.07609,-1.7651 0.59175,0 1.29209,-1.42637 1.55615,-3.16971 0.34406,-2.27115 0.52917,-1.80605 0.65296,1.64064 0.13981,3.89533 -0.61388,5.84079 -3.96225,10.22735 -2.27412,2.97935 -5.51586,6.66371 -7.20388,8.18745 -4.58593,4.13982 -22.93945,14.84695 -35.21993,20.54674 -15.33642,7.11806 -34.30787,11.82099 -53.71927,13.31668 -6.65638,0.51289 -13.65856,1.52571 -15.56039,2.2507 -7.74994,2.95438 -14.19755,6.56344 -20.85367,11.67289 -8.57315,6.58104 -17.43788,9.09416 -24.55597,6.96153 -4.05556,-1.21508 -5.08725,-1.04953 -10.54622,1.69236 -8.57422,4.30659 -18.62624,4.88947 -24.43942,1.41716 z m 0.99448,-55.2036 c -2.2903,-4.57804 -4.18592,-9.42105 -4.2125,-10.76225 -0.041,-2.07112 -4.37528,-11.59876 -4.51385,-9.92246 -0.0266,0.32143 1.19043,4.98954 2.70445,10.37358 3.62759,12.90013 7.47134,21.34959 9.01155,19.80939 0.79763,-0.79764 -0.16172,-3.84554 -2.98965,-9.49826 z M 298.61503,711.65796 c -1.48737,-1.3448 -9.76828,-2.36195 -8.99104,-1.10437 0.36858,0.5964 1.90563,1.08435 3.41566,1.08435 1.51002,0 3.0713,0.52714 3.46948,1.17142 0.39818,0.64428 1.25201,0.84508 1.89739,0.44622 0.64537,-0.39886 0.73921,-1.11779 0.20851,-1.59762 z m -4.99907,-5.20681 c 1.21619,-1.46541 0.95266,-1.72893 -1.72893,-1.72893 -2.6816,0 -2.94512,0.26352 -1.72893,1.72893 0.78919,0.95091 1.5672,1.72893 1.72893,1.72893 0.16172,0 0.93974,-0.77802 1.72893,-1.72893 z m 254.72915,-13.18711 c 0,-0.59653 -0.51868,-1.40516 -1.15262,-1.79696 -0.63394,-0.3918 -1.15262,0.0962 -1.15262,1.0846 0,0.98832 0.51868,1.79695 1.15262,1.79695 0.63394,0 1.15262,-0.48806 1.15262,-1.08459 z M 252.12162,677.70366 c 0,-0.27955 -0.51868,-0.82885 -1.15262,-1.22064 -0.63394,-0.3918 -1.15262,-0.16308 -1.15262,0.50828 0,0.67135 0.51868,1.22065 1.15262,1.22065 0.63394,0 1.15262,-0.22873 1.15262,-0.50829 z m -26.29896,-5.50455 c -0.82708,-0.82708 -1.36393,-0.89513 -1.36393,-0.1729 0,1.5385 1.3631,2.9016 2.13234,2.13235 0.32754,-0.32753 -0.0182,-1.20928 -0.76841,-1.95945 z m 19.78098,-1.52891 c -0.37539,-0.97825 -0.92974,-1.53144 -1.23186,-1.2293 -0.30214,0.30213 -0.20745,1.10252 0.21041,1.77864 1.13654,1.83896 1.80083,1.4817 1.02145,-0.54934 z m 9.39953,0.62602 c -0.3918,-0.63394 -1.23103,-1.15262 -1.86497,-1.15262 -0.63395,0 -0.83207,0.51868 -0.44027,1.15262 0.3918,0.63394 1.23103,1.15262 1.86497,1.15262 0.63395,0 0.83207,-0.51868 0.44027,-1.15262 z m -12.06816,-5.69891 c -1.23811,-2.31343 -3.49222,-4.2098 -3.49222,-2.938 0,1.58356 2.45689,5.17905 3.53897,5.17905 0.75239,0 0.73615,-0.77818 -0.0468,-2.24105 z m 20.71281,-4.67467 c 0,-0.63394 -0.22872,-1.15262 -0.50828,-1.15262 -0.27955,0 -0.82885,0.51868 -1.22065,1.15262 -0.39179,0.63394 -0.16307,1.15262 0.50829,1.15262 0.67135,0 1.22064,-0.51868 1.22064,-1.15262 z m 179.31849,-1.01349 c -0.34451,-0.55742 -1.70145,-1.29463 -3.01545,-1.63825 -1.96159,-0.51297 -2.14579,-0.33162 -1.02945,1.01348 1.45739,1.75606 5.09093,2.31728 4.0449,0.62477 z m -266.34134,-7.94696 c 0.63394,-0.47125 2.41006,-2.27867 3.94693,-4.01653 4.00519,-4.52892 0.85384,-3.90393 -4.25202,0.84327 -2.61526,2.43157 -3.62668,4.00831 -2.57646,4.01653 0.95091,0.007 2.24761,-0.37203 2.88155,-0.84327 z m 54.74948,-3.85281 c 0,-0.72333 1.01857,-1.02069 2.32551,-0.67892 1.27904,0.33448 3.05737,-0.12371 3.95184,-1.01819 0.89448,-0.89448 2.18207,-1.62632 2.86128,-1.62632 1.74053,0 1.53538,-1.21544 -0.60418,-3.57962 -1.24728,-1.37825 -1.94725,-4.7457 -2.17513,-10.46435 -0.26537,-6.65956 -0.7268,-8.51048 -2.19504,-8.8048 -1.51498,-0.3037 -1.85904,0.70954 -1.85904,5.47495 0,7.07307 -2.0289,7.83496 -2.52712,0.94898 -0.44887,-6.20388 -2.5931,-6.41981 -2.86144,-0.28816 -0.111,2.53577 -0.49595,8.02916 -0.8555,12.20754 -0.35955,4.17838 -0.31197,7.93881 0.1057,8.3565 1.22837,1.22837 3.8331,0.86984 3.8331,-0.52761 z m 0,-9.15456 c 0,-1.3053 0.51868,-2.0527 1.15262,-1.6609 0.63394,0.39179 1.15262,1.45977 1.15262,2.37326 0,0.9135 -0.51868,1.66091 -1.15262,1.66091 -0.63394,0 -1.15262,-1.06797 -1.15262,-2.37327 z m 185.57191,-0.44026 c 0,-0.27955 -0.51868,-0.82885 -1.15262,-1.22064 -0.63394,-0.3918 -1.15262,-0.16308 -1.15262,0.50828 0,0.67135 0.51868,1.22065 1.15262,1.22065 0.63394,0 1.15262,-0.22873 1.15262,-0.50829 z m 10.24968,-4.92377 c -0.88276,-1.11645 -1.98622,-2.55535 -2.45212,-3.19757 -0.46589,-0.6422 -2.1516,-2.79856 -3.74602,-4.7919 -1.5944,-1.99333 -2.89892,-3.98624 -2.89892,-4.42868 0,-0.44243 -1.10167,-2.18294 -2.44816,-3.86778 l -2.44817,-3.06336 0.85557,2.88156 c 0.47055,1.58485 1.57223,3.7004 2.44816,4.70124 0.87594,1.00083 1.5926,2.22554 1.5926,2.72159 0,1.42551 9.44585,12.33103 10.10749,11.6694 0.32703,-0.32703 -0.12766,-1.50805 -1.01043,-2.6245 z m 118.74844,-23.42182 c -1.24396,-7.72425 -1.70714,-8.9169 -2.97181,-7.65223 -0.68228,0.68227 1.54914,12.6241 2.79746,14.97115 1.21203,2.27881 1.27747,-0.46908 0.17435,-7.31892 z m -125.1209,5.23177 c -0.3635,-0.94727 -1.1337,-1.4301 -1.71156,-1.07297 -1.20861,0.74696 -0.23838,2.79529 1.32405,2.79529 0.57663,0 0.75101,-0.77505 0.38751,-1.72232 z m 137.9571,-14.90905 c -0.71029,-6.59714 -2.00626,-14.76046 -2.87993,-18.14073 -0.87366,-3.38027 -1.94119,-8.73933 -2.37228,-11.90904 -0.95833,-7.0462 -1.10306,-7.54675 -9.83185,-34.0023 -8.84817,-26.81739 -18.82191,-47.25745 -23.05931,-47.25745 -1.68219,0 -1.33361,1.6962 0.97478,4.7432 3.62248,4.78156 9.55961,18.4594 13.45096,30.98804 2.06744,6.65638 5.58874,17.31521 7.82511,23.68627 4.35707,12.4126 12.42586,44.0374 14.8145,58.06389 2.01676,11.84279 2.63594,8.29793 1.07802,-6.17188 z m -438.37309,10.16877 c -0.40585,-0.40585 -1.65344,-0.3866 -2.77241,0.0428 -1.7256,0.66217 -1.77837,0.939 -0.3475,1.82332 1.76698,1.09207 4.46456,-0.52145 3.11991,-1.86611 z m 290.46016,-1.58318 c -1.72612,-2.46437 -1.45931,-6.93829 0.41377,-6.93829 0.54011,0 0.67174,0.80857 0.2925,1.79682 -0.4272,1.11327 0.63726,3.09398 2.79808,5.20658 l 3.48758,3.40975 1.27227,-3.64964 c 1.74378,-5.00218 1.64013,-5.5491 -1.25443,-6.61987 -1.397,-0.51678 -3.1435,-2.6904 -3.90619,-4.86149 -1.35768,-3.86477 -1.39643,-3.88346 -2.45319,-1.18252 -0.78311,2.00156 -1.08169,-0.21217 -1.10318,-8.17949 -0.0325,-12.02278 -0.73019,-14.53485 -3.41765,-12.30446 -1.29423,1.07413 -1.56261,3.4996 -1.17945,10.65944 0.51382,9.60178 -0.47587,13.69143 -4.1171,17.0127 -2.94517,2.68638 -2.55011,3.82906 1.87729,5.43003 2.15654,0.77982 4.57235,2.20269 5.36846,3.16195 2.26885,2.7338 4.01925,0.0538 1.92124,-2.94151 z m 31.92024,0.98065 c -0.9093,-1.47129 -2.78922,-0.0643 -2.78922,2.08749 0,1.4652 0.3208,1.5358 1.71624,0.37769 0.94393,-0.7834 1.42678,-1.89273 1.07298,-2.46518 z m -305.92843,0.1494 c 0,-0.63394 -0.22872,-1.15262 -0.50828,-1.15262 -0.27956,0 -0.82885,0.51868 -1.22065,1.15262 -0.3918,0.63394 -0.16307,1.15262 0.50828,1.15262 0.67136,0 1.22065,-0.51868 1.22065,-1.15262 z m -23.27333,-2.39169 c -0.22716,-0.68148 -0.90577,-1.23906 -1.50801,-1.23906 -0.60225,0 -1.28085,0.55758 -1.50801,1.23906 -0.22717,0.68149 0.45144,1.23907 1.50801,1.23907 1.05657,0 1.73518,-0.55758 1.50801,-1.23907 z m 16.64576,-1.82953 c -0.79242,-0.31975 -2.08912,-0.31975 -2.88155,0 -0.79243,0.31975 -0.14408,0.58137 1.44078,0.58137 1.58485,0 2.2332,-0.26162 1.44077,-0.58137 z m -22.76425,-1.54188 c -0.3918,-0.63394 -1.23104,-1.15262 -1.86498,-1.15262 -0.63394,0 -0.83206,0.51868 -0.44026,1.15262 0.39179,0.63394 1.23103,1.15262 1.86497,1.15262 0.63394,0 0.83207,-0.51868 0.44027,-1.15262 z m 10.42098,-5.83979 c 1.08798,-1.76038 0.22641,-2.23504 -2.67816,-1.47549 -1.39156,0.36391 -2.24599,1.12135 -1.89874,1.68322 0.87105,1.40936 3.65558,1.28299 4.5769,-0.20773 z m 17.81822,-0.62294 c 0,-0.24914 -0.77802,-0.45299 -1.72893,-0.45299 -0.95091,0 -1.72893,0.5024 -1.72893,1.11645 0,0.61403 0.77802,0.81789 1.72893,0.45299 0.95091,-0.36491 1.72893,-0.8673 1.72893,-1.11645 z m 205.16646,0.69963 c 0,-0.63394 -0.54929,-1.15262 -1.22064,-1.15262 -0.67136,0 -0.90009,0.51868 -0.50829,1.15262 0.3918,0.63394 0.94109,1.15262 1.22065,1.15262 0.27956,0 0.50828,-0.51868 0.50828,-1.15262 z m 200.52358,-12.16255 c -1.28834,-5.67246 -2.89934,-12.90695 -3.58001,-16.07666 -0.68066,-3.1697 -3.30968,-11.98725 -5.84228,-19.59455 -2.53259,-7.60729 -4.82497,-14.55403 -5.09418,-15.43719 -0.26919,-0.88317 -0.77253,-1.32267 -1.11852,-0.97668 -0.62506,0.62505 1.2289,8.54574 3.03253,12.95601 0.51852,1.26788 1.28584,4.37996 1.70516,6.91572 0.41933,2.53577 1.14762,5.12917 1.61843,5.76311 0.47081,0.63394 1.53166,4.26469 2.35745,8.06834 0.82577,3.80365 2.15081,8.99044 2.94453,11.52621 0.79371,2.53576 1.82047,7.46322 2.28168,10.94989 0.9574,7.23785 1.56299,8.69402 3.01273,7.24428 0.59815,-0.59815 0.0496,-5.31941 -1.31752,-11.33848 z m -206.86299,9.85731 c 0.3918,-0.63395 0.16307,-1.15263 -0.50828,-1.15263 -0.67136,0 -1.22065,0.51868 -1.22065,1.15263 0,0.63394 0.22873,1.15262 0.50828,1.15262 0.27956,0 0.82885,-0.51868 1.22065,-1.15262 z m -223.69465,-2.44483 c -0.74697,-1.20861 -2.79529,-0.23838 -2.79529,1.32405 0,0.57663 0.77503,0.75101 1.72231,0.38751 0.94727,-0.3635 1.4301,-1.1337 1.07298,-1.71156 z m 16.51094,-0.53294 c -1.09839,-1.0984 -3.30052,0.68074 -2.48194,2.00522 0.48655,0.78724 1.13125,0.76736 1.95904,-0.0604 0.67862,-0.67862 0.91393,-1.55377 0.5229,-1.94478 z m 18.79113,0.0963 c -0.0904,-1.71082 -2.66903,-1.39652 -3.26728,0.39823 -0.32317,0.96949 0.20375,1.40157 1.4056,1.15262 1.05741,-0.21902 1.89516,-0.91691 1.86168,-1.55085 z m -42.43894,-3.07369 c -1.2231,-1.22311 -5.127571,0.0104 -4.295311,1.35732 0.31396,0.50801 1.641961,0.64353 2.951101,0.30119 1.40832,-0.36828 1.95721,-1.04552 1.34421,-1.65851 z m 17.0204,-1.09653 c 0,-0.63394 -0.51868,-0.83206 -1.15262,-0.44026 -0.63394,0.3918 -1.15262,1.23103 -1.15262,1.86497 0,0.63394 0.51868,0.83207 1.15262,0.44027 0.63394,-0.3918 1.15262,-1.23104 1.15262,-1.86498 z m 18.96901,1.36831 c 0.36474,-0.59014 0.11112,-1.41411 -0.56348,-1.83106 -1.70583,-1.05427 -4.87796,0.32724 -4.00281,1.74328 0.90089,1.45765 3.68657,1.51121 4.56629,0.0878 z m 274.94924,-2.38488 c 0,-0.63395 -0.54929,-1.15262 -1.22065,-1.15262 -0.67135,0 -0.90008,0.51867 -0.50828,1.15262 0.3918,0.63394 0.94109,1.15262 1.22065,1.15262 0.27955,0 0.50828,-0.51868 0.50828,-1.15262 z m -301.36288,-1.22931 c 1.0608,-1.71642 -0.16913,-2.64963 -2.37598,-1.80278 -1.01845,0.39081 -1.52888,1.2329 -1.13432,1.87133 0.93429,1.51171 2.55318,1.48009 3.5103,-0.0686 z m 19.35217,-1.74471 c -0.45914,-1.19652 -1.16617,-1.29754 -2.83407,-0.4049 -2.73523,1.46385 -1.829,3.37855 1.22151,2.58082 1.30629,-0.3416 1.97185,-1.23967 1.61256,-2.17592 z m 16.99442,0.3518 c -0.14256,-1.37818 -1.7235,-1.11128 -2.21879,0.37461 -0.25358,0.76073 0.16137,1.17567 0.9221,0.92209 0.76073,-0.25357 1.34424,-0.83709 1.29669,-1.2967 z m 29.25615,0.39662 c 0.36474,-0.59014 0.136,-1.39877 -0.50828,-1.79696 -0.64428,-0.39818 -1.17142,0.0846 -1.17142,1.07298 0,2.02461 0.69164,2.32271 1.6797,0.72398 z m -69.83134,-2.29923 c 0.23611,-0.0471 -0.20736,-0.85277 -0.98549,-1.79037 -1.05963,-1.27677 -1.9712,-1.40692 -3.63127,-0.51847 -1.21909,0.65242 -1.9165,1.67163 -1.54983,2.26492 0.55816,0.90312 1.81532,0.91208 6.16659,0.0439 z m 16.5885,-0.77466 c 0.37895,-0.37895 0.41355,-1.40681 0.0769,-2.28412 -0.45947,-1.19737 -1.16628,-1.29856 -2.83442,-0.40579 -1.22226,0.65413 -1.91782,1.68199 -1.54569,2.28412 0.75738,1.22547 3.24863,1.46039 4.30323,0.40579 z m 16.98452,-1.68427 c 0,-0.59652 -0.77801,-1.08459 -1.72893,-1.08459 -1.78242,0 -2.28991,1.36005 -0.99185,2.65812 0.92086,0.92086 2.72078,-0.12009 2.72078,-1.57353 z m -49.902361,-4.54245 c 0.92642,0 1.4633,-0.64835 1.19306,-1.44078 -0.27025,-0.79242 -1.61058,-1.27842 -2.97852,-1.08001 -1.81067,0.26263 -2.80719,-0.48091 -3.66367,-2.73359 -2.00075,-5.26239 2.6162,-8.61842 5.50121,-3.99879 0.79035,1.26556 2.153,1.99158 3.07436,1.63801 1.02346,-0.39273 2.28193,0.56186 3.29848,2.50201 1.046611,1.99752 1.939351,2.65856 2.457711,1.81985 1.30465,-2.11096 2.79296,-1.53986 4.50565,1.72893 0.9708,1.85285 1.90272,2.54984 2.37896,1.77926 0.43063,-0.69675 1.59697,-0.95447 2.59188,-0.57269 1.32413,0.50813 1.6877,0.10847 1.35662,-1.49111 -0.30527,-1.4749 -1.29024,-2.09419 -3.03003,-1.90511 -1.86464,0.20267 -2.89969,-0.56666 -3.74161,-2.78108 -0.88457,-2.32663 -1.48552,-2.73961 -2.50419,-1.72094 -2.04297,2.04298 -3.13174,1.62918 -4.384751,-1.66651 -0.93108,-2.44891 -1.4511,-2.75131 -2.80254,-1.6297 -1.94341,1.61288 -4.06556,0.64069 -4.06556,-1.86249 0,-1.34271 -0.79858,-1.5771 -3.41526,-1.00238 -2.98718,0.6561 -3.50843,0.37895 -4.15848,-2.21108 -1.43858,-5.73173 2.63798,-9.03414 5.21286,-4.22294 0.7913,1.47857 1.95821,1.99728 3.55423,1.57991 3.23723,-0.84655 2.45852,-4.47309 -0.86088,-4.0092 -1.59717,0.22319 -2.9612,-0.52795 -3.79799,-2.09151 -1.09107,-2.0387 -1.59725,-2.19786 -3.079,-0.9681 -1.47075,1.2206 -2.04697,1.0974 -3.37748,-0.7222 -2.00466,-2.74153 -2.05529,-5.70713 -0.12477,-7.30931 1.72699,-1.43328 3.56334,-0.47641 4.62974,2.41244 0.64249,1.74049 1.09962,1.82749 3.08563,0.5872 3.13721,-1.95923 3.21721,-4.9145 0.0877,-3.23964 -1.7648,0.94448 -2.48556,0.76863 -3.37679,-0.82391 -0.69703,-1.24554 -2.49496,-2.02471 -4.67202,-2.02471 -3.50634,0 -3.53894,0.0565 -3.53894,6.12703 0,3.36987 0.54061,7.13717 1.20136,8.37177 0.76331,1.42627 0.80891,2.94599 0.12506,4.16796 -1.18332,2.11445 -0.12945,5.72457 4.98144,17.06448 3.07003,6.81171 3.1435,6.87672 4.88453,4.32233 0.97219,-1.42637 2.5256,-2.5934 3.45201,-2.5934 z m 26.262601,-0.0179 c -1.0585,-1.71269 -5.17575,0.2634 -5.17575,2.48411 0,2.07693 0.15742,2.09424 2.87165,0.31581 1.57941,-1.03487 2.61625,-2.29484 2.3041,-2.79992 z m -18.0755,2.23666 c -0.22716,-0.68148 -0.90576,-1.23906 -1.508011,-1.23906 -0.60224,0 -1.28085,0.55758 -1.50801,1.23906 -0.22717,0.68149 0.45144,1.23907 1.50801,1.23907 1.056581,0 1.735181,-0.55758 1.508011,-1.23907 z m 35.95216,-1.00849 c 0,-1.75897 -1.54896,-2.23191 -3.64169,-1.11191 -1.20229,0.64344 -1.91159,1.61385 -1.57623,2.15647 0.69361,1.1223 5.21792,0.21658 5.21792,-1.04456 z m 17.82795,-1.27125 c -0.42286,-0.68421 -1.53297,-0.64063 -2.94612,0.11567 -1.24716,0.66745 -1.96222,1.70763 -1.58902,2.31147 0.42286,0.68421 1.53297,0.64063 2.94612,-0.11566 1.24716,-0.66746 1.96222,-1.70763 1.58902,-2.31148 z m -8.0799,-2.16464 c 0.85242,-1.37923 -1.31586,-2.74581 -2.85112,-1.79696 -1.28905,0.79666 -0.44281,2.86993 1.17142,2.86993 0.55911,0 1.31497,-0.48284 1.6797,-1.07297 z m -5.89817,-5.91178 c -0.55444,-0.55445 -2.1771,-0.70239 -3.60589,-0.32874 -2.03333,0.53171 -2.31578,1.01917 -1.29987,2.24326 0.97776,1.17813 1.86728,1.25923 3.60589,0.32875 1.31805,-0.70539 1.87558,-1.66756 1.29987,-2.24327 z m 16.89729,0.48147 c 0,-1.29657 -0.49641,-1.3805 -2.33752,-0.39517 -1.28564,0.68806 -2.04705,1.72102 -1.69202,2.29546 0.93108,1.50652 4.02954,0.0453 4.02954,-1.90029 z m -5.7631,-2.66001 c 0,-1.4986 -1.35232,-2.21394 -2.99424,-1.58387 -2.5759,0.98846 -1.95485,3.70416 0.689,3.01279 1.26788,-0.33157 2.30524,-0.97458 2.30524,-1.42892 z m -7.32046,-5.23549 c -0.2259,-0.6389 -1.39427,-0.98265 -2.59639,-0.7639 -2.88757,0.52546 -3.17535,0.89667 -2.35421,3.03652 0.57961,1.51046 1.07319,1.56703 3.02694,0.34688 1.28393,-0.80182 2.14958,-1.98059 1.92366,-2.6195 z m 13.87093,0.35118 c -0.36794,-0.91948 -0.64107,-0.64636 -0.69637,0.69638 -0.05,1.21505 0.22236,1.89582 0.60538,1.51282 0.383,-0.38301 0.42395,-1.37716 0.0909,-2.2092 z m -3.00712,-3.58696 c -0.047,-0.44408 -0.0855,-1.34433 -0.0855,-2.00057 0,-0.81458 -0.69407,-0.82173 -2.18742,-0.0225 -1.77393,0.94938 -2.54396,0.62654 -4.07353,-1.70787 -1.56869,-2.39413 -2.27284,-2.67157 -4.18426,-1.6486 -2.80807,1.50284 -1.74443,3.78544 1.31191,2.8154 1.60306,-0.50879 2.55274,0.0787 3.5047,2.16799 0.99601,2.18598 1.83887,2.66872 3.55268,2.03474 1.23579,-0.45714 2.20842,-1.19451 2.16141,-1.63858 z m 2.21975,-8.36747 c 0,-0.98832 -0.51868,-1.47639 -1.15262,-1.08459 -0.63394,0.3918 -1.15262,1.20043 -1.15262,1.79696 0,0.59653 0.51868,1.08459 1.15262,1.08459 0.63394,0 1.15262,-0.80863 1.15262,-1.79696 z m -57.754931,-1.19992 c 1.190041,-1.06606 -2.53893,-3.60951 -4.52896,-3.0891 -2.24363,0.58671 -2.98434,2.67506 -1.48178,4.17762 0.69885,0.69884 4.85588,-0.0539 6.01074,-1.08852 z m 51.906661,-2.08729 c 0.82494,-0.994 0.92027,-1.89174 0.24515,-2.30899 -1.65531,-1.02303 -4.77046,0.49827 -4.77046,2.32969 0,2.08138 2.79134,2.06861 4.52531,-0.0208 z m -5.67793,-4.84753 c 0,-1.00325 -1.28219,-1.5945 -3.45787,-1.5945 -2.24229,0 -3.45786,-0.58387 -3.45786,-1.66091 0,-2.66738 -2.10097,-3.22337 -4.86492,-1.28742 -2.52091,1.76572 -2.1387,2.23524 1.53317,1.88343 1.02028,-0.0977 2.68903,1.09511 3.70834,2.65078 1.98514,3.02971 6.53914,3.03571 6.53914,0.008 z m 8.9139,-4.59101 c -1.42223,-1.42224 -4.28029,0.56301 -3.55007,2.46594 0.64609,1.68367 0.88595,1.69048 2.50536,0.0711 0.98497,-0.98497 1.4551,-2.12663 1.04471,-2.53701 z m -6.08945,-1.89213 c 0.48587,0.46995 0.6847,-0.18289 0.44184,-1.45078 -0.30745,-1.60503 -1.19857,-2.19945 -2.93382,-1.95695 -1.54761,0.21628 -2.95097,-0.50886 -3.70252,-1.91313 -1.31211,-2.45171 -5.85092,-2.17667 -5.85092,0.35455 0,2.30692 1.3241,2.92856 3.6203,1.69966 1.79446,-0.96036 2.36308,-0.63637 3.32542,1.89477 0.89744,2.36042 1.50747,2.76552 2.68855,1.78532 0.84025,-0.69735 1.92527,-0.88339 2.41115,-0.41344 z m -66.759121,-6.57968 c -0.42426,-0.68646 -1.30959,-0.91547 -1.96741,-0.50892 -0.77441,0.47861 -0.65652,1.07262 0.33442,1.68506 1.84968,1.14316 2.69163,0.53677 1.63299,-1.17614 z m 70.677661,-1.96029 c 0.22196,-0.13721 0.0757,-0.78 -0.32508,-1.42843 -1.1561,-1.87061 -4.11267,-0.11457 -4.11267,2.44266 0,2.03218 0.25256,2.12974 2.01708,0.77915 1.1094,-0.84915 2.1987,-1.65617 2.42067,-1.79338 z m -7.04384,-4.17077 c 0.78544,-0.60706 1.15041,-1.55304 0.81103,-2.10217 -0.83732,-1.35481 -5.12067,1.43388 -5.12067,3.33383 0,1.4841 1.26284,1.12319 4.30964,-1.23166 z m -60.788041,-1.959 c 0,-0.61404 -0.77802,-0.81789 -1.72894,-0.45299 -0.95091,0.3649 -1.72893,0.8673 -1.72893,1.11645 0,0.24914 0.77802,0.45299 1.72893,0.45299 0.95092,0 1.72894,-0.50241 1.72894,-1.11645 z m 54.173161,-3.05831 c -0.55887,-0.9814 -4.53192,-0.8985 -5.54614,0.11572 -0.27596,0.27596 -0.17195,1.36118 0.23112,2.41157 0.65742,1.71321 0.9984,1.73352 3.3121,0.19729 1.41858,-0.9419 2.31989,-2.16797 2.00292,-2.72458 z m -8.20882,-1.47713 c 0.87364,-0.55336 1.26213,-1.53408 0.86331,-2.17939 -1.0107,-1.63533 -5.33331,-0.31724 -5.33331,1.62629 0,1.79929 2.09352,2.05833 4.47,0.5531 z m 18.58241,-2.44969 c 0,-0.49696 -1.03736,-0.6323 -2.30524,-0.30074 -2.35739,0.61647 -2.89549,1.66477 -1.54683,3.01342 0.8387,0.8387 3.85207,-1.28335 3.85207,-2.71268 z m -6.36597,-1.36699 c 0.46908,0.45315 0.65731,-0.21344 0.41832,-1.48133 -0.33106,-1.75623 -1.18432,-2.21697 -3.58285,-1.93459 -2.53545,0.29848 -3.14833,-0.0942 -3.14833,-2.01709 0,-2.74394 -2.07039,-3.0801 -5.1411,-0.83474 -2.40808,1.76083 -0.61881,3.7452 2.34981,2.60603 1.08138,-0.41495 2.1792,0.3767 2.98996,2.15611 0.99845,2.19139 1.72026,2.57682 3.27124,1.74677 1.09455,-0.5858 2.37388,-0.69432 2.84295,-0.24116 z m 2.25108,-10.25659 c -0.98216,-1.58916 -3.95346,-1.20225 -3.95346,0.51481 0,0.84526 0.34129,1.87812 0.75842,2.29525 1.04235,1.04235 3.97945,-1.54085 3.19504,-2.81006 z m -6.37889,-2.07596 c 0.96701,-0.6123 1.29676,-1.83158 0.82667,-3.05663 -0.59606,-1.55332 -1.10201,-1.71804 -2.12741,-0.69265 -1.95448,1.95449 -2.66332,1.68819 -4.14138,-1.5558 -1.16423,-2.5552 -1.59865,-2.72831 -3.64288,-1.45167 -1.27655,0.79722 -2.32101,2.4256 -2.32101,3.61861 0,1.78916 0.30028,1.9199 1.71425,0.74641 2.09305,-1.73708 5.20147,-0.73276 5.20147,1.68058 0,1.95581 2.01948,2.27566 4.49029,0.71115 z m 446.63128,426.59972 c -3.82645,-0.54618 -8.27767,-6.04566 -8.58144,-10.60238 -0.45289,-6.79361 -0.0415,-8.08449 2.93772,-9.21717 3.79747,-1.44379 5.2652,-0.73514 8.3665,4.03951 2.9574,4.5531 3.13357,6.4299 1.13526,12.09338 -1.09797,3.11182 -1.98005,3.95472 -3.85804,3.68666 z M 556.09125,797.70206 c -0.45673,-1.16124 -0.77832,-4.01398 -0.71464,-6.33941 l 0.11578,-4.22806 1.07204,4.57842 c 1.23485,5.27376 0.90207,9.4857 -0.47318,5.98905 z m -1.75834,-15.17795 c 0.0235,-1.90183 0.28182,-2.54031 0.57406,-1.41884 0.29223,1.12146 0.27302,2.6775 -0.0428,3.45786 -0.31573,0.78036 -0.55483,-0.1372 -0.53134,-2.03902 z m -6.97141,-6.91572 c 0.012,-5.31631 0.10535,-5.5094 1.2049,-2.49067 0.82381,2.26181 0.81981,4.04164 -0.013,5.76311 -1.0085,2.08468 -1.20278,1.55128 -1.19191,-3.27244 z m 4.44147,-0.44027 c 0,-0.63394 0.51868,-1.47318 1.15262,-1.86498 0.63394,-0.39179 1.15262,-0.19367 1.15262,0.44027 0,0.63394 -0.51868,1.47318 -1.15262,1.86498 -0.63394,0.39179 -1.15262,0.19367 -1.15262,-0.44027 z m -68.58092,-102.4007 c -3.63088,-0.89249 -5.4811,-2.79057 -4.08303,-4.18864 0.66081,-0.66081 1.20147,-3.65618 1.20147,-6.65637 0,-4.33884 0.44619,-5.59653 2.1808,-6.14706 1.19944,-0.38069 2.44757,-1.71234 2.77364,-2.95923 0.67994,-2.60012 4.26653,-3.10968 4.26653,-0.60616 0,0.91349 -0.49603,1.96746 -1.10229,2.34216 -0.60625,0.37468 -0.79671,1.47752 -0.42325,2.45073 0.46268,1.20576 1.05453,1.39398 1.8577,0.59081 1.98304,-1.98304 6.54067,3.32984 6.56364,7.65131 0.0115,2.0603 0.61898,3.74601 1.35119,3.74601 0.75495,0 0.42813,0.99795 -0.75496,2.30524 -2.05715,2.27312 -7.99815,2.90504 -13.83144,1.4712 z m 18.09614,-1.70172 c -2.28563,-2.28562 -1.56674,-3.09561 1.48941,-1.67811 1.57991,0.73278 2.87661,1.72133 2.88156,2.19679 0.0141,1.35211 -2.8387,1.01359 -4.37097,-0.51868 z m -311.94654,-2.61437 c 1.23056,-0.93075 3.01541,-1.69039 3.96632,-1.68809 1.00271,0.002 0.51856,0.69609 -1.15262,1.65143 -3.78819,2.16552 -5.66057,2.18992 -2.8137,0.0367 z m 14.3399,-11.56286 c 0.78919,-0.95092 1.92711,-1.72893 2.5287,-1.72893 0.6016,0 0.31581,0.77801 -0.6351,1.72893 -0.95091,0.95091 -2.08884,1.72893 -2.52871,1.72893 -0.43988,0 -0.15407,-0.77802 0.63511,-1.72893 z m 267.69613,-0.99115 c -3.83949,-1.90157 -3.40757,-4.64663 0.57631,-3.66273 3.8995,0.96307 5.40384,2.32766 4.3844,3.97714 -0.9005,1.45703 -1.4549,1.42188 -4.96071,-0.31441 z M 329.92351,637.99438 c -3.80365,-1.83253 -7.95308,-4.19304 -9.22097,-5.24557 -2.2585,-1.87488 -2.24681,-1.8978 0.57631,-1.13103 4.09605,1.11251 19.37047,9.67692 17.28931,9.69416 -0.95091,0.008 -4.841,-1.48502 -8.64465,-3.31756 z m -229.39898,-8.23695 c -1.161801,-1.87985 1.4189,-4.21197 2.95788,-2.67299 0.83355,0.83355 0.6885,1.62721 -0.47369,2.59174 -1.23817,1.02758 -1.88622,1.04878 -2.48419,0.0813 z M 79.841499,609.3109 c -0.3787,-0.98686 -0.18772,-2.2951 0.42439,-2.90722 1.47255,-1.47255 4.72575,-0.16177 4.72575,1.90411 0,2.35815 -4.30817,3.19727 -5.15014,1.00311 z m -6.37607,-13.51132 c 0,-0.95133 1.02053,-1.72894 2.26907,-1.72894 1.5434,0 2.05689,0.55293 1.60561,1.72894 -0.3649,0.95091 -1.38598,1.72893 -2.26907,1.72893 -0.88309,0 -1.60561,-0.77802 -1.60561,-1.72893 z M 198.58039,568.803 c -0.41225,-0.66703 0.27325,-2.31062 1.52332,-3.65242 2.10563,-2.26012 2.59765,-2.3253 6.68638,-0.88579 l 4.4135,1.55384 -4.03417,0.38467 c -2.2188,0.21157 -4.89038,1.15593 -5.93683,2.09857 -1.25346,1.12911 -2.15841,1.3001 -2.6522,0.50113 z m -17.71475,-6.14127 c -0.55662,-2.06031 -0.82215,-3.97077 -0.59005,-4.24548 0.75884,-0.89819 2.37556,1.58585 3.13825,4.82179 1.06615,4.52344 -1.31598,3.98469 -2.5482,-0.57631 z m -14.42215,-7.39598 c -0.42263,-0.42262 -0.76841,-1.47824 -0.76841,-2.34579 0,-1.22747 0.51853,-1.29987 2.33752,-0.32638 1.28563,0.68806 2.03305,1.74366 1.66091,2.34579 -0.79022,1.2786 -2.14127,1.41512 -3.23002,0.32638 z m 12.53023,-8.83256 c -1.8929,-1.40249 -2.01834,-1.96904 -0.76923,-3.47412 0.83566,-1.00692 1.16277,-2.8372 0.74328,-4.1589 -0.43565,-1.37259 -0.2343,-2.36055 0.48108,-2.36055 0.67667,0 1.23029,0.74425 1.23029,1.65389 0,0.90965 0.51378,3.00523 1.14173,4.65686 0.96153,2.52903 1.49624,2.81325 3.38791,1.80086 1.57145,-0.84102 2.47499,-0.83192 3.00787,0.0303 1.00582,1.62747 0.43987,2.07985 -3.58738,2.86755 -2.08544,0.40789 -4.23752,0.0199 -5.63555,-1.01589 z m -13.29864,-0.84064 c 0,-0.67135 0.51868,-0.90008 1.15262,-0.50828 0.63394,0.3918 1.15262,0.94109 1.15262,1.22065 0,0.27955 -0.51868,0.50828 -1.15262,0.50828 -0.63394,0 -1.15262,-0.54929 -1.15262,-1.22065 z m 26.51027,-1.56931 c 0,-1.48917 3.65313,-2.76904 8.06834,-2.82674 7.62235,-0.0996 11.52621,-2.39193 11.52621,-6.76808 0,-2.25943 0.32925,-2.6083 1.52499,-1.61592 1.11534,0.92565 3.20531,0.83407 7.78018,-0.34091 5.4481,-1.39924 12.41893,-2.90913 35.64703,-7.72116 9.04321,-1.87342 33.93262,-5.4777 34.42517,-4.98517 0.98048,0.98049 -5.68409,2.65094 -26.93313,6.75068 -12.04489,2.32391 -25.78989,5.2135 -30.54445,6.42131 -4.75456,1.2078 -11.17496,2.55882 -14.26754,3.00224 -4.09796,0.58759 -5.77505,1.38815 -6.18398,2.95192 -0.35159,1.34444 -2.34081,2.62178 -5.32702,3.42061 -2.62125,0.70121 -5.95733,1.74148 -7.41353,2.31174 -4.03027,1.57826 -8.30227,1.26926 -8.30227,-0.60052 z m -20.17086,-4.12576 c -0.3918,-0.63394 -0.16307,-1.15262 0.50828,-1.15262 0.67136,0 1.22065,0.51868 1.22065,1.15262 0,0.63394 -0.22873,1.15262 -0.50828,1.15262 -0.27956,0 -0.82885,-0.51868 -1.22065,-1.15262 z m -3.92411,-3.38984 c -1.14633,-0.70847 -1.17821,-1.1368 -0.13269,-1.78297 0.75686,-0.46776 1.89478,-0.33181 2.52872,0.30213 1.50212,1.50212 -0.42973,2.69607 -2.39603,1.48084 z m 0.51548,-9.20934 c -0.85242,-1.37923 1.31585,-2.74581 2.85112,-1.79696 1.28904,0.79667 0.4428,2.86993 -1.17142,2.86993 -0.55912,0 -1.31498,-0.48284 -1.6797,-1.07297 z m 8.23991,0.22731 c -1.30226,-2.23437 -4.31745,-14.46014 -3.71485,-15.06273 1.58908,-1.58909 5.51079,4.42338 6.0593,9.28966 0.52153,4.62699 -0.92967,8.20048 -2.34445,5.77307 z m -72.92245,-8.8861 c -0.8073,-3.21656 0.0983,-5.25231 2.3365,-5.25231 1.70125,0 2.93685,2.46433 2.93685,5.85738 0,3.37614 -4.40086,2.87119 -5.27335,-0.60507 z m 79.40942,-3.96819 c -0.31265,-1.19556 -1.69046,-2.71649 -3.0618,-3.37986 -2.23193,-1.07965 -2.05006,-1.21428 1.73471,-1.28411 5.31385,-0.0981 7.87446,-1.05882 7.87446,-2.9546 0,-0.81253 1.94505,-1.84082 4.32233,-2.28507 5.72038,-1.06899 7.67654,-2.67725 5.88379,-4.83739 -1.02141,-1.23072 -1.02485,-1.94851 -0.0142,-2.95915 1.01065,-1.01065 1.3343,-0.87499 1.3343,0.55928 0,1.04146 1.08697,3.73584 2.41548,5.98749 2.24275,3.8012 2.27276,4.1487 0.41964,4.85981 -1.09771,0.42124 -2.81594,0.24856 -3.81828,-0.3837 -2.3972,-1.51211 -9.39043,2.49725 -9.39043,5.38372 0,3.71822 -6.76857,4.85532 -7.69999,1.29358 z m 134.77641,-0.92603 c 1.10939,-0.28991 2.92477,-0.28991 4.03417,0 1.1094,0.28992 0.20171,0.52713 -2.01709,0.52713 -2.21879,0 -3.12648,-0.23721 -2.01708,-0.52713 z m 8.93281,-1.34133 c 0,-1.35105 3.87274,-2.49044 17.86562,-5.25619 23.23764,-4.59301 41.34277,-7.67861 43.06695,-7.33976 2.66699,0.52414 -34.87293,9.28913 -48.25375,11.2665 -3.48667,0.51525 -7.76578,1.30262 -9.50912,1.74971 -1.98925,0.51016 -3.1697,0.35364 -3.1697,-0.42026 z M 166.8277,496.05735 c 0,-1.29019 0.82273,-3.60144 1.82828,-5.13612 1.00555,-1.53466 1.49363,-3.3318 1.0846,-3.99361 -0.40903,-0.66182 -0.30811,-1.20331 0.22426,-1.20331 0.53236,0 1.57612,1.61125 2.31944,3.58055 1.1102,2.94122 1.02874,4.07315 -0.45617,6.33941 -2.20997,3.37283 -5.00041,3.60335 -5.00041,0.41308 z m 366.04054,-4.02794 c -1.07673,-1.64329 -1.75861,-3.58503 -1.51531,-4.31496 0.24332,-0.72993 1.3156,0.42325 2.38287,2.56263 2.3677,4.74617 1.81954,5.85337 -0.86756,1.75233 z m -424.17226,-1.22737 c -0.98286,-3.916 0.84544,-6.03047 3.389,-3.91948 2.2734,1.88673 1.80162,6.18535 -0.73181,6.66782 -1.2272,0.23372 -2.1477,-0.71833 -2.65719,-2.74834 z m 72.61412,-0.34648 c -0.35075,-0.5675 0.12071,-1.32287 1.04768,-1.67858 1.80117,-0.69118 3.33942,0.74603 2.1121,1.97336 -1.04198,1.04198 -2.41265,0.91412 -3.15978,-0.29478 z m -20.82182,-1.27339 c -0.94058,-1.52188 0.31912,-3.45786 2.24995,-3.45786 1.68592,0 3.18898,2.82152 2.08901,3.92148 -1.07482,1.07483 -3.55172,0.81017 -4.33896,-0.46362 z m 36.709,-1.83405 c -1.07632,-1.64266 -3.24745,-3.47732 -4.82475,-4.077 -1.99444,-0.75829 -2.50094,-1.4572 -1.66316,-2.29498 1.85926,-1.85926 -1.49734,-7.5693 -4.82331,-8.2051 -1.54164,-0.2947 -3.25653,-0.0823 -3.81088,0.47207 -1.09799,1.098 -8.85928,-1.71157 -10.0499,-3.63803 -1.08325,-1.75273 -5.94628,-1.40934 -7.91447,0.55885 -0.95091,0.95091 -2.28467,1.72893 -2.96388,1.72893 -0.67923,0 -1.23496,0.77802 -1.23496,1.72893 0,2.06807 2.45464,2.27112 4.3647,0.36105 1.9847,-1.9847 7.68405,3.38362 5.8888,5.54677 -1.01427,1.22211 -1.73674,1.17595 -3.91306,-0.25003 -1.77938,-1.1659 -2.91947,-1.34378 -3.42018,-0.53363 -1.28435,2.07813 -2.79055,1.35159 -4.64919,-2.2426 -1.87181,-3.61968 -4.88192,-4.45431 -7.3095,-2.02673 -1.13978,1.13978 -1.65245,1.08112 -2.51812,-0.28815 -1.76451,-2.79097 -1.28714,-3.61757 1.29204,-2.23724 2.19778,1.17623 2.34094,1.05065 1.59617,-1.40021 -1.43385,-4.71845 -1.2345,-5.00681 3.1934,-4.61928 2.55604,0.22371 4.32232,-0.12954 4.32232,-0.86447 0,-0.68351 1.32147,-1.24275 2.93659,-1.24275 1.66698,0 4.11398,-1.27043 5.65989,-2.93849 1.6493,-1.77964 3.01811,-2.46147 3.47085,-1.72893 1.2549,2.03048 3.63498,1.35307 4.86217,-1.38384 1.34101,-2.99081 0.78815,-5.47495 -1.21851,-5.47495 -1.79618,0 -8.91651,-9.2449 -8.11685,-10.53878 1.02044,-1.65112 2.69886,-1.1169 4.80782,1.5303 1.10318,1.38475 3.7073,4.36716 5.7869,6.62757 2.07962,2.26042 4.83064,5.85405 6.11337,7.98585 2.53524,4.21333 3.7662,4.02146 4.01444,-0.6257 0.10824,-2.02615 -0.53148,-3.15925 -2.00054,-3.54342 -2.96643,-0.77573 -0.74992,-3.35054 3.73165,-4.33486 2.30566,-0.50641 3.37822,-1.4448 3.37822,-2.95565 0,-1.7631 -0.82426,-2.21365 -4.04981,-2.21365 -2.2274,0 -5.01321,0.60166 -6.19069,1.337 -1.74257,1.08825 -2.81444,0.8574 -5.76102,-1.24076 -1.99107,-1.41777 -3.35563,-3.00574 -3.03234,-3.52883 0.48409,-0.78327 12.98823,-2.8209 14.98673,-2.44218 1.64908,0.3125 0.39593,1.91835 -1.92448,2.46614 -1.4793,0.34921 -2.10685,0.96109 -1.42068,1.38517 2.16458,1.33778 5.91815,-0.38823 7.26293,-3.33973 1.70247,-3.73651 5.91485,-3.24313 7.90663,0.92607 1.98524,4.1555 1.16444,5.59591 -5.48411,9.62391 -8.27495,5.01336 -7.47548,7.58664 2.89363,9.31382 6.34944,1.05763 10.87603,0.82433 12.66513,-0.65276 0.64147,-0.5296 3.87407,-0.76833 7.18353,-0.53051 5.68374,0.40845 6.24188,0.19514 10.07141,-3.84907 3.32681,-3.5133 3.69998,-4.35731 2.07988,-4.70411 -1.08588,-0.23245 -2.61912,-1.26981 -3.40719,-2.30524 -1.31674,-1.73005 -1.43583,-1.72208 -1.46952,0.0983 -0.0236,1.27721 -0.64849,1.74613 -1.75897,1.31999 -0.94727,-0.3635 -1.44702,-1.10632 -1.11057,-1.65071 0.33645,-0.5444 -0.44455,-2.04608 -1.73556,-3.33709 -1.29101,-1.29102 -2.34728,-2.8497 -2.34728,-3.46374 0,-0.61404 -0.80041,-0.80929 -1.77869,-0.4339 -1.58844,0.60954 -1.57919,0.903 0.0864,2.74349 1.76958,1.95538 1.64905,2.0122 -2.35328,1.10954 -5.34073,-1.20453 -10.93855,-3.50489 -10.93855,-4.49506 0,-1.28109 6.86462,-3.4333 7.52786,-2.36014 0.34216,0.55362 1.77076,0.57718 3.17469,0.0523 1.40392,-0.52481 5.535,-1.32034 9.18016,-1.76782 3.64516,-0.44749 6.62757,-1.21287 6.62757,-1.70085 0,-1.55275 8.21406,-3.41881 23.05241,-5.23704 41.49096,-5.0841 43.35626,-5.47543 44.07726,-9.24705 0.28229,-1.47672 0.0104,-3.584 -0.6048,-4.68283 -0.61494,-1.09883 -1.79111,-4.39002 -2.61372,-7.31376 -8.82567,-31.36847 -16.51604,-49.37235 -23.44141,-54.87858 -1.59465,-1.26788 -5.50008,-3.99095 -8.6787,-6.05126 -3.17864,-2.06031 -5.3418,-3.74602 -4.80703,-3.74602 1.41044,0 15.70387,6.99457 19.30433,9.44669 1.68579,1.14811 3.81844,1.79838 4.73922,1.44505 0.92079,-0.35335 5.02608,0.13492 9.12288,1.08503 8.30686,1.92649 17.78029,2.68636 18.94691,1.51974 0.97544,-0.97545 0.29771,-1.17934 -16.27953,-4.89751 -7.6073,-1.70627 -15.12815,-3.79366 -16.713,-4.63865 -1.58485,-0.845 -5.47495,-2.65508 -8.64465,-4.02243 -3.16971,-1.36733 -7.49166,-3.23428 -9.60433,-4.14878 -3.77184,-1.6327 -3.82807,-1.61489 -3.11286,0.98591 0.57011,2.07318 -0.14847,1.64924 -3.30736,-1.95122 -5.00325,-5.70264 -5.85215,-8.85258 -3.57335,-13.2593 1.72207,-3.33006 12.47117,-11.53264 15.11306,-11.53264 0.71996,0 5.28135,-1.2967 10.13642,-2.88155 4.85507,-1.58485 10.49708,-2.82138 12.53781,-2.74785 2.19923,0.0793 2.77152,0.33003 1.40516,0.61575 -11.1552,2.33259 -21.81177,6.47465 -25.64581,9.96816 -3.58195,3.2638 -3.31056,3.73293 2.30524,3.98487 2.69425,0.12087 6.95336,1.27103 9.46467,2.55592 2.51132,1.28488 5.50569,2.33615 6.65414,2.33615 1.89528,0 1.93282,-0.23949 0.40653,-2.5934 -1.33773,-2.06311 -1.39533,-2.97954 -0.28169,-4.48189 1.29509,-1.7471 1.57892,-1.74353 3.79102,0.0477 1.31512,1.06493 3.0082,3.08922 3.76238,4.49843 1.33118,2.48733 1.45296,2.5028 4.16718,0.52859 1.53776,-1.1185 2.81223,-2.86093 2.83215,-3.87208 0.0455,-2.31398 -3.56112,-5.65358 -6.1058,-5.65358 -1.05947,0 -1.92632,-0.50584 -1.92632,-1.12409 0,-0.73038 1.03554,-0.73038 2.95658,0 1.62612,0.61825 5.51621,1.12409 8.64466,1.12409 5.50194,0 5.68806,-0.10892 5.68806,-3.32699 0,-3.05688 0.41891,-3.3898 5.15993,-4.10076 2.83796,-0.42558 5.39391,-1.15238 5.67989,-1.6151 0.28598,-0.46273 4.0585,-0.82177 8.38337,-0.79787 7.15043,0.0395 7.89541,0.26798 8.21638,2.51977 0.31097,2.18163 -0.37154,2.57597 -5.7352,3.31366 -6.45128,0.88728 -11.52469,3.43738 -11.12538,5.59207 0.13218,0.71323 -1.54568,3.13983 -3.72856,5.39244 l -3.96887,4.09566 0.57631,11.28283 c 0.47201,9.24083 0.26339,11.46587 -1.15262,12.29414 -1.53683,0.89893 -1.53683,1.03035 0,1.18283 0.95091,0.0944 2.24761,0.0489 2.88155,-0.10108 2.49408,-0.59002 15.59603,0.17082 18.80881,1.09223 1.87122,0.53666 5.14756,0.6139 7.28078,0.17165 3.59521,-0.74535 3.87854,-1.12951 3.87854,-5.25854 0,-2.538 0.61987,-4.66188 1.44078,-4.93659 0.79242,-0.26518 1.44077,-1.40424 1.44077,-2.53124 0,-1.66632 1.29161,-2.16622 6.91404,-2.67605 13.37778,-1.21305 19.87521,1.3039 15.58985,6.03917 -0.96619,1.06763 -1.75672,4.02543 -1.75672,6.5729 0,3.64093 0.55477,4.91614 2.5934,5.96126 2.10898,1.08118 1.08633,1.21667 -5.47495,0.72533 -16.01239,-1.19906 -36.27701,-1.53184 -36.84974,-0.60516 -0.32178,0.52064 0.20925,1.60582 1.18004,2.41151 1.32483,1.0995 2.09399,1.136 3.08366,0.14634 0.98966,-0.98966 1.82575,-0.85956 3.35192,0.52162 2.82296,2.55475 27.1496,5.01288 42.48926,4.29342 26.49884,-1.24286 32.87857,-1.24873 34.39634,-0.0316 3.91583,3.14013 41.63145,1.96041 54.35544,-1.70021 6.98085,-2.00834 18.98112,-4.21689 19.89547,-3.66158 0.48246,0.29302 -0.59678,2.00675 -2.39833,3.80831 -5.98621,5.98621 -14.36987,25.5204 -20.29498,47.28794 -3.71017,13.63034 -3.69904,14.65416 0.20445,18.8039 3.00539,3.19498 3.03462,3.32847 0.56382,2.57484 -2.43914,-0.74399 -2.52013,-0.60665 -1.26585,2.14619 0.73701,1.61756 2.29866,3.24529 3.47035,3.61717 3.12163,0.99076 2.60488,2.98906 -0.56708,2.19295 -3.40589,-0.85482 -5.89408,2.62425 -7.06551,9.87922 -1.69109,10.47333 -7.43657,24.5102 -11.58928,28.31394 -2.16891,1.98664 -4.15628,3.39925 -4.41638,3.13915 -0.2601,-0.26011 -0.0938,-2.1539 0.36958,-4.20842 0.46338,-2.05453 0.47441,-6.567 0.0246,-10.02773 -0.44989,-3.46072 -0.65229,-6.8109 -0.44978,-7.44484 0.20252,-0.63394 0.63418,-4.26469 0.95924,-8.06834 0.32505,-3.80365 1.0778,-8.56239 1.67277,-10.57498 1.35575,-4.58603 0.80624,-5.11921 -4.41548,-4.28421 -3.02241,0.4833 -4.61738,0.16948 -5.68661,-1.11888 -1.25143,-1.50785 -0.9779,-2.29867 1.73243,-5.00877 l 3.21848,-3.21819 0.73046,2.88155 c 0.79559,3.13847 2.08848,3.22292 6.37204,0.41623 2.88356,-1.88938 3.19721,-2.65701 2.85235,-6.98086 -0.111,-1.39175 0.38494,-3.62683 1.1021,-4.96686 1.11844,-2.08982 1.00603,-2.38571 -0.79023,-2.08003 -1.4245,0.24242 -2.21022,-0.45988 -2.45713,-2.19627 -0.27385,-1.92588 0.36293,-2.73486 2.59339,-3.29466 1.62597,-0.40817 2.95634,-1.12483 2.95634,-1.59265 0,-1.76872 -3.67231,-8.12047 -4.6949,-8.12047 -1.49674,0 -1.33853,-7.33698 0.19119,-8.8667 2.15508,-2.15508 -0.83391,-5.93309 -5.36675,-6.78346 -3.17392,-0.59543 -4.41112,-0.31153 -5.57423,1.27911 -0.8222,1.12443 -2.06625,1.6913 -2.76455,1.25972 -0.6983,-0.43157 -1.84038,0.28173 -2.53793,1.58512 -0.69756,1.3034 -1.76094,2.06534 -2.36307,1.69319 -0.60214,-0.37214 -1.09479,-0.15563 -1.09479,0.48114 0,0.63676 -1.42637,1.84809 -3.16971,2.69185 -2.32548,1.12551 -3.07038,2.23614 -2.79675,4.16996 0.20513,1.44972 -0.44322,3.8815 -1.44078,5.40396 -2.3336,3.56152 -2.31612,6.30707 0.0401,6.30707 1.41795,0 1.67812,0.70029 1.10642,2.97813 -0.48468,1.93114 -0.326,2.71765 0.45136,2.23721 0.65939,-0.40749 1.19886,-1.71704 1.19886,-2.9101 0,-2.50586 1.75933,-3.9313 3.51384,-2.84696 0.74357,0.45956 0.80473,1.26181 0.15893,2.08511 -1.44755,1.84542 -2.75484,7.67758 -1.72094,7.67758 0.46372,0 1.9467,-1.38403 3.29552,-3.0756 1.62518,-2.03816 3.09775,-2.82794 4.36562,-2.34141 2.76339,1.06041 2.352,2.96128 -0.96831,4.4741 -1.58486,0.72212 -2.88155,2.05893 -2.88155,2.97072 0,0.91178 -1.6109,3.16257 -3.57977,5.00178 -3.93494,3.6758 -7.15694,4.47883 -6.01338,1.49874 0.95059,-2.47719 -1.84325,-4.04703 -4.5881,-2.57802 -2.43823,1.3049 -3.83149,0.37127 -4.43697,-2.97325 -0.65933,-3.64209 -3.18984,-3.55261 -2.93264,0.10374 0.16803,2.3886 -0.46265,3.53666 -2.41606,4.39812 -1.95651,0.86283 -2.48018,1.81891 -2.0152,3.67918 0.64228,2.56962 -1.07068,8.48673 -2.7692,9.56566 -0.9783,0.62142 -2.55754,12.05536 -2.80445,20.30464 -0.14214,4.74874 -3.52624,10.83957 -6.02253,10.83957 -0.71496,0 -2.61871,-1.03736 -4.23056,-2.30524 -1.61185,-1.26789 -3.64092,-2.30524 -4.50905,-2.30524 -0.86812,0 -3.34583,-1.6143 -5.50602,-3.58732 -2.16019,-1.97303 -5.92053,-4.62609 -8.35632,-5.89569 -3.55,-1.85037 -4.16584,-2.6251 -3.10385,-3.90472 0.72867,-0.87798 2.21225,-1.59634 3.29686,-1.59634 1.0846,0 2.31328,-0.34129 2.73042,-0.75842 1.17901,-1.17901 -1.56371,-3.85206 -3.95247,-3.85206 -1.79901,0 -2.13141,-0.8796 -2.06903,-5.47495 0.0458,-3.37383 -0.85458,-7.34953 -2.34613,-10.35957 -1.33123,-2.68654 -2.74043,-7.21935 -3.13156,-10.07289 -0.81202,-5.9244 -1.89089,-7.15757 -6.74064,-7.70475 -2.87592,-0.32449 -3.39456,-0.84205 -3.08172,-3.07524 0.31353,-2.23818 -0.0702,-2.61731 -2.30524,-2.27788 -1.49261,0.22668 -2.53571,1.08764 -2.35279,1.94195 0.18072,0.84411 -0.23986,2.21968 -0.93463,3.05683 -0.69477,0.83715 -1.12283,2.20893 -0.95124,3.04838 0.17159,0.83947 -0.35544,2.73385 -1.17121,4.20975 -0.81576,1.47591 -1.20657,3.40435 -0.86848,4.28542 0.3381,0.88107 0.11871,1.90851 -0.48754,2.28319 -0.60626,0.3747 -1.10229,1.68801 -1.10229,2.91847 0,2.78332 -0.56294,2.78652 -5.05075,0.0287 -4.39984,-2.70371 -12.23856,-4.35032 -12.23856,-2.57083 0,0.68217 1.03736,1.79551 2.30524,2.47406 1.26789,0.67855 2.30525,1.99349 2.30525,2.9221 0,0.92861 0.7145,1.68838 1.5878,1.68838 0.87328,0 2.20531,0.74407 2.96006,1.65348 0.75474,0.90941 3.43037,2.72623 5.94583,4.03736 4.03562,2.10347 9.0266,6.57196 13.39051,11.98866 0.90338,1.12132 2.85052,1.61373 5.4323,1.37378 2.38551,-0.2217 4.54971,0.25919 5.31469,1.18094 1.65864,1.99853 0.40249,5.98391 -2.12862,6.75352 -3.35464,1.01999 -11.22035,1.14189 -12.74828,0.19757 -0.85203,-0.52658 -2.35304,-0.0905 -3.61282,1.04957 -1.5215,1.37693 -3.16244,1.7292 -5.58075,1.19805 -2.05535,-0.45144 -3.74099,-0.24196 -4.2142,0.52369 -0.56187,0.90913 -1.21583,0.92155 -2.27418,0.0432 -1.11436,-0.92483 -1.63474,-0.66233 -2.08268,1.0506 -0.53324,2.0391 -1.01087,2.14891 -4.46311,1.02608 -4.85682,-1.57964 -7.56256,-1.59231 -11.93431,-0.0559 -6.63884,2.33318 -15.03166,4.62248 -21.32348,5.81639 -15.5964,2.95949 -44.86253,7.15442 -49.78282,7.13574 -2.9738,-0.0115 -5.75767,0.54698 -6.18636,1.24062 -0.4287,0.69364 -2.11876,1.00513 -3.7557,0.69222 -1.63694,-0.31293 -4.16955,-0.11526 -5.62801,0.43924 -1.64371,0.62493 -2.65173,0.58087 -2.65173,-0.11592 0,-0.61825 0.51868,-1.12409 1.15262,-1.12409 0.63394,0 1.15262,-0.77802 1.15262,-1.72893 0,-0.95092 0.51868,-1.72894 1.15262,-1.72894 0.63395,0 1.15263,-0.69579 1.15263,-1.54619 0,-1.20599 -1.2047,-1.34271 -5.47495,-0.62137 -3.01122,0.50867 -8.45736,1.27835 -12.10252,1.7104 -3.64516,0.43206 -6.62757,1.23035 -6.62757,1.77399 0,0.54363 -0.82124,0.98842 -1.82498,0.98842 -1.00374,0 -1.59491,0.64834 -1.31372,1.44077 0.2812,0.79243 1.75079,1.30954 3.26576,1.14913 2.11674,-0.22412 2.36025,-0.0375 1.05176,0.80623 -1.04095,0.67119 -1.70274,2.91242 -1.70274,5.7666 0,2.5678 -0.1295,4.66871 -0.28778,4.66871 -0.15827,0 -1.1684,-1.344 -2.24471,-2.98667 z m 33.02455,-16.60788 c 0,-0.63394 -0.22873,-1.15262 -0.50828,-1.15262 -0.27956,0 -0.82885,0.51868 -1.22065,1.15262 -0.3918,0.63394 -0.16308,1.15262 0.50828,1.15262 0.67136,0 1.22065,-0.51868 1.22065,-1.15262 z m -50.71531,-2.43967 c 0,-0.56 -1.03736,-1.01819 -2.30524,-1.01819 -1.26788,0 -2.30524,0.72946 -2.30524,1.62102 0,1.05356 0.807,1.40999 2.30524,1.01819 1.26788,-0.33156 2.30524,-1.06102 2.30524,-1.62102 z m 90.48072,0.67638 c 3.80365,-0.4112 8.7311,-1.16801 10.94989,-1.68182 2.2188,-0.5138 5.46054,-1.25544 7.20388,-1.64805 4.62838,-1.04238 3.87304,-2.97855 -1.15262,-2.9545 -6.67131,0.0319 -25.11039,3.06953 -27.99101,4.61118 -2.04447,1.09417 -2.24694,1.58609 -0.98022,2.38144 0.87808,0.55134 2.37451,0.78573 3.32542,0.5209 0.95092,-0.26484 4.84101,-0.81795 8.64466,-1.22915 z m 48.7434,-11.91709 c 7.79063,-1.30687 14.68424,-2.69715 15.31911,-3.08952 1.99521,-1.23311 -0.14634,-5.50948 -5.55089,-11.08441 -5.57834,-5.75419 -7.36231,-6.08039 -17.12467,-3.13137 -2.23081,0.67389 -4.60358,0.66536 -6.33941,-0.0228 l -2.77417,-1.09978 3.71521,-1.47626 c 7.00666,-2.78412 5.13109,-7.10581 -2.00432,-4.61839 -1.92762,0.67197 -4.29914,0.91694 -5.27003,0.54437 -2.0236,-0.77649 -8.54337,4.915 -8.54337,7.45804 0,1.25181 0.95781,1.46188 4.03417,0.88475 4.57555,-0.85838 5.36879,0.0499 1.37104,1.56983 -2.27074,0.86334 -2.58931,1.64477 -2.16216,5.30359 0.34613,2.96487 1.16919,4.46582 2.66313,4.85649 2.78498,0.72829 2.73357,1.69042 -0.1878,3.51485 -6.23131,3.89152 1.22446,4.01895 22.85416,0.39063 z m -6.67275,-4.76155 c 2.25726,-1.45875 3.78311,-1.45875 2.88155,0 -0.3918,0.63394 -1.58944,1.14468 -2.66142,1.13498 -1.67968,-0.0152 -1.71011,-0.17208 -0.22013,-1.13498 z m 9.22096,-2.30524 c 0,-0.63394 0.51868,-1.15262 1.15262,-1.15262 0.63395,0 1.15263,0.51868 1.15263,1.15262 0,0.63394 -0.51868,1.15262 -1.15263,1.15262 -0.63394,0 -1.15262,-0.51868 -1.15262,-1.15262 z m -47.36115,-8.11988 c 4.65836,-2.11346 4.90849,-2.4338 2.99361,-3.834 -2.83877,-2.07576 -1.26302,-4.62697 1.83407,-2.96945 4.16985,2.23163 9.50877,-1.70982 5.59364,-4.1295 -1.53614,-0.94939 0.81173,-3.99958 3.07865,-3.99958 0.8733,0 1.58781,-0.46406 1.58781,-1.03124 0,-0.60168 -1.80044,-0.61313 -4.32233,-0.0275 -2.37728,0.55206 -4.74195,1.01612 -5.25482,1.03124 -0.51287,0.0151 -0.55745,0.63432 -0.099,1.376 0.54982,0.88963 0.21953,1.11293 -0.97066,0.65621 -2.21577,-0.85028 -21.78182,2.38414 -23.2978,3.8513 -0.60224,0.58284 -2.02861,1.05972 -3.16971,1.05972 -2.13321,0 -2.98916,3.34355 -0.92209,3.60194 4.64533,0.58066 9.22096,2.25436 9.22096,3.37289 0,1.26124 4.11053,3.22291 6.91572,3.30038 0.95092,0.0263 4.01632,-0.99002 6.81201,-2.2584 z m 22.57981,-16.08515 c 0.3918,-0.63394 -0.0962,-1.15262 -1.08459,-1.15262 -0.98833,0 -1.79696,0.51868 -1.79696,1.15262 0,0.63394 0.48807,1.15262 1.08459,1.15262 0.59653,0 1.40516,-0.51868 1.79696,-1.15262 z m 4.87463,-1.849 c -0.38302,-0.383 -1.37715,-0.42394 -2.20919,-0.0909 -0.91948,0.36794 -0.64637,0.64106 0.69638,0.69637 1.21504,0.05 1.89581,-0.22238 1.51281,-0.60538 z m 15.31779,-3.36376 c 1.30349,-1.57062 1.74193,-1.56783 4.17529,0.0265 2.60652,1.70785 2.71888,1.66252 2.71888,-1.09705 0,-2.00275 -1.00516,-3.39831 -3.30377,-4.58697 -2.15199,-1.11283 -3.54836,-2.9314 -4.00536,-5.21639 -0.38587,-1.92932 -1.23323,-3.50789 -1.88302,-3.50789 -1.58895,0 -1.50062,2.67763 0.14252,4.32077 0.99686,0.99687 0.85449,2.04047 -0.57631,4.22415 -3.57661,5.45859 -1.18871,10.56075 2.73177,5.83687 z m -5.98886,-5.108 c 0.20467,-2.0921 -0.18434,-4.36027 -0.86447,-5.0404 -0.68011,-0.68011 -1.23657,-2.26304 -1.23657,-3.51761 0,-2.13653 -1.16281,-6.38784 -3.71134,-13.56891 -1.60853,-4.53242 -6.35253,-8.66481 -8.02604,-6.9913 -1.00928,1.00928 -0.96623,2.44544 0.17717,5.90996 0.83075,2.51719 1.22003,6.36636 0.86506,8.55373 -0.35496,2.18736 -0.36621,6.05841 -0.025,8.60233 0.53913,4.01946 1.05169,4.6886 3.91321,5.10858 1.81104,0.26581 3.56002,-0.0734 3.88661,-0.75374 0.3266,-0.68036 0.28375,-0.006 -0.0952,1.50028 -0.42777,1.69941 -0.0959,3.11267 0.87511,3.72728 2.5389,1.60696 3.84529,0.51964 4.24147,-3.5302 z m 10.88196,-19.72711 c -0.44877,-3.34584 -0.26298,-4.64133 0.59003,-4.11414 0.69364,0.42869 1.60247,-0.3566 2.05205,-1.7731 0.60984,-1.92146 0.067,-3.17916 -2.22225,-5.14825 -1.66609,-1.43311 -3.02925,-3.1492 -3.02925,-3.81355 0,-0.66436 -0.77802,-1.20791 -1.72893,-1.20791 -1.07577,0 -1.72893,-1.08858 -1.72893,-2.88155 0,-1.79298 -0.65315,-2.88156 -1.72893,-2.88156 -0.95091,0 -1.72893,0.53201 -1.72893,1.18222 0,0.66107 -1.59841,0.35566 -3.62588,-0.69279 -2.75577,-1.42507 -3.46398,-1.50131 -2.95126,-0.31775 0.37104,0.85648 2.28969,5.44735 4.26368,10.20191 1.97399,4.75456 4.08008,8.81755 4.68019,9.02886 0.60013,0.21132 1.09113,2.31197 1.09113,4.66811 0,5.63523 1.84075,7.51469 4.62904,4.7264 1.62354,-1.62353 1.94628,-3.18915 1.43824,-6.9769 z m 48.36484,-17.39396 c 2.76882,-1.97158 3.92333,-2.22297 5.54835,-1.20812 2.18381,1.36381 9.96563,0.60832 11.00171,-1.06809 0.33899,-0.54849 1.75277,-1.01303 3.14172,-1.03232 1.99536,-0.0277 2.16251,-0.24583 0.79644,-1.03938 -0.95091,-0.5524 -7.00827,-1.28027 -13.46078,-1.6175 -11.54662,-0.60347 -11.76167,-0.56764 -13.62041,2.26915 -1.48126,2.26068 -1.5929,3.23854 -0.51769,4.53409 1.84679,2.22525 2.99975,2.08939 7.11066,-0.83783 z m -41.36975,-9.34848 c -0.97751,-1.58165 -3.84324,1.57191 -3.81577,4.19905 0.0247,2.36523 0.10339,2.35113 2.21508,-0.39706 1.20421,-1.56713 1.92452,-3.27803 1.60069,-3.80199 z m 132.16782,-1.99334 c 1.53683,-0.99318 1.53683,-1.11732 0,-1.11732 -0.95091,0 -2.50695,0.50279 -3.45786,1.11732 -1.53682,0.99318 -1.53682,1.11732 0,1.11732 0.95091,0 2.50695,-0.50279 3.45786,-1.11732 z m -165.97736,-2.75823 c 0,-0.24915 -0.80496,-0.76188 -1.7888,-1.13943 -1.02574,-0.3936 -1.4884,-0.20038 -1.08459,0.453 0.67689,1.09523 2.87339,1.61995 2.87339,0.68643 z m -8.64465,-19.14156 c -3.16866,-1.36161 -4.98851,-1.36161 -2.88156,0 0.95092,0.61453 2.50695,1.08881 3.45787,1.05396 1.14001,-0.0417 0.94369,-0.40079 -0.57631,-1.05396 z m -14.93668,-5.68642 c -0.41787,-0.67612 -1.63683,-1.21281 -2.70882,-1.19265 -1.71123,0.0322 -1.67804,0.2417 0.27205,1.71702 2.36872,1.79205 3.69236,1.50722 2.43677,-0.52437 z M 113.44696,484.97991 c -0.43584,-0.43584 -0.79243,-2.30005 -0.79243,-4.1427 0,-2.57031 0.46959,-3.25984 2.01709,-2.96182 1.36859,0.26357 2.01708,1.46419 2.01708,3.73448 0,3.2579 -1.6444,4.96739 -3.24174,3.37004 z m -7.58931,-4.79663 c -0.82517,-1.54185 -2.0391,-2.06089 -3.96079,-1.69354 -2.246751,0.42949 -2.918011,-0.0563 -3.548311,-2.56753 -0.47168,-1.87932 -0.21048,-3.78028 0.66424,-4.83424 1.263351,-1.52226 1.696711,-1.42199 3.504801,0.81091 1.13475,1.40137 2.8045,2.26347 3.71055,1.91578 2.22395,-0.85341 4.38463,1.97225 3.92147,5.12836 -0.49502,3.37331 -2.79471,4.03787 -4.29196,1.24026 z m 47.8573,-0.84294 c -1.11225,-2.89849 -0.78413,-3.64638 0.57462,-1.30977 0.67277,1.15694 0.98042,2.34634 0.68365,2.64311 -0.29676,0.29676 -0.86299,-0.30325 -1.25827,-1.33334 z m 54.27312,-0.53175 c 0.61646,-2.35739 1.66476,-2.89549 3.01342,-1.54683 0.83869,0.8387 -1.28335,3.85207 -2.71268,3.85207 -0.49697,0 -0.63231,-1.03736 -0.30074,-2.30524 z m 6.67338,0 c 0.3918,-0.63394 0.94109,-1.15262 1.22065,-1.15262 0.27956,0 0.50828,0.51868 0.50828,1.15262 0,0.63394 -0.54929,1.15262 -1.22065,1.15262 -0.67135,0 -0.90008,-0.51868 -0.50828,-1.15262 z m -75.4906,-2.24919 c -4.05051,-1.03314 -4.22195,-4.1281 -0.36471,-6.58423 1.78213,-1.13478 3.57124,-2.53067 3.97582,-3.10199 0.40457,-0.57131 1.33745,-0.66679 2.07304,-0.21217 0.99909,0.61747 0.96235,1.27858 -0.14525,2.61316 -0.81549,0.98261 -1.32873,2.96161 -1.14053,4.39777 0.41548,3.17059 -0.62089,3.85096 -4.39837,2.88746 z m -1.73498,-19.00516 c -7.20873,-6.80967 -12.85003,-11.01903 -14.76751,-11.01903 -3.2809,0 -5.48444,-1.4239 -7.13098,-4.60797 -0.90331,-1.74681 -3.76235,-4.22487 -6.35341,-5.50684 -4.29278,-2.1239 -5.01302,-2.18018 -8.11241,-0.63401 -4.562231,2.27594 -7.359541,1.5774 -7.772291,-1.94091 -0.47096,-4.01462 2.28784,-7.51254 5.06898,-6.42701 2.002321,0.78153 1.900621,1.07982 -1.22388,3.59 -5.4857,4.40712 -1.06304,4.6716 7.454181,0.44577 l 7.34179,-3.64264 -3.38892,-1.49447 -3.38892,-1.49448 2.93918,-0.0936 c 1.61655,-0.0515 3.43193,0.39768 4.03417,0.99814 0.60224,0.60046 4.4664,1.24881 8.58702,1.44078 l 7.49204,0.34901 -3.66289,1.68535 c -4.22677,1.94477 -3.94872,3.50142 0.62543,3.50142 1.74124,0 4.92348,1.2967 7.07163,2.88155 2.14815,1.58486 5.23132,2.88888 6.8515,2.89783 3.80156,0.021 13.30556,8.38151 12.35218,10.866 -0.37097,0.96674 -1.41968,1.47173 -2.33047,1.12224 -0.91078,-0.34951 -1.99838,-0.0814 -2.41689,0.59574 -0.41851,0.67715 -1.94057,1.23119 -3.38235,1.23119 -3.68074,0 -4.46816,1.20496 -2.3308,3.56672 1.00786,1.11368 1.65734,2.92928 1.44329,4.03467 -0.31852,1.64485 -1.22638,1.21896 -4.99967,-2.34546 z m 6.52999,-9.40789 c 1.13974,-0.7044 -2.0909,-5.069 -3.75205,-5.069 -0.49441,0 -2.35908,0.55743 -4.14368,1.23872 -2.86572,1.09403 -3.0254,1.39992 -1.36693,2.61864 2.10612,1.54766 7.56382,2.26159 9.26266,1.21164 z m 9.65593,-1.53149 c -0.85242,-1.37923 1.31585,-2.74581 2.85112,-1.79696 1.28905,0.79667 0.4428,2.86993 -1.17142,2.86993 -0.55911,0 -1.31498,-0.48284 -1.6797,-1.07297 z m 393.06849,-0.8944 c -0.62551,-1.64272 -0.49312,-1.77511 0.64524,-0.64524 0.78772,0.78187 1.14186,1.71192 0.78698,2.0668 -0.35488,0.35488 -0.99938,-0.28483 -1.43222,-1.42156 z m -442.61956,-1.39205 c -0.37112,-0.60048 -0.18346,-1.39542 0.41702,-1.76652 0.60048,-0.37113 1.39542,-0.18347 1.76653,0.41701 0.37112,0.60048 0.18346,1.39542 -0.41702,1.76653 -0.60048,0.37112 -1.39542,0.18347 -1.76653,-0.41702 z m 55.84125,-0.67475 c 0,-1.18715 0.75543,-1.75248 2.01709,-1.50951 2.42954,0.46789 2.27634,2.5135 -0.22727,3.03479 -1.04426,0.21745 -1.78982,-0.41792 -1.78982,-1.52528 z m -17.28931,-6.72438 c 0,-2.76288 2.32542,-3.54672 4.39178,-1.48034 1.05938,1.05938 1.30133,1.86531 0.55996,1.86531 -0.71793,0 -2.12578,0.31482 -3.12853,0.69962 -1.17864,0.45228 -1.82321,0.0688 -1.82321,-1.08459 z m 14.40776,0.38497 c -0.3918,-0.63395 -0.16307,-1.15262 0.50828,-1.15262 0.67136,0 1.22065,0.51867 1.22065,1.15262 0,0.63394 -0.22872,1.15262 -0.50828,1.15262 -0.27956,0 -0.82885,-0.51868 -1.22065,-1.15262 z m 251.46339,-0.76842 c -0.95966,-0.95965 -0.99853,-5.35908 -0.0688,-7.78197 0.89937,-2.34371 3.91086,-2.37739 3.91086,-0.0438 0,0.97871 0.6512,1.62991 1.44713,1.44714 0.79592,-0.18278 2.59942,0.81995 4.00776,2.2283 2.48326,2.48326 2.49406,2.59623 0.35756,3.73965 -2.47879,1.32661 -8.48316,1.58198 -9.65452,0.41062 z m 14.21565,-2.68945 c 2.27081,-1.4675 4.94114,-1.4675 4.03418,0 -0.3918,0.63395 -1.84878,1.14468 -3.23774,1.13498 -2.05308,-0.0144 -2.20203,-0.22661 -0.79644,-1.13498 z m -287.86698,-6.55763 c 1.10939,-0.28991 2.92477,-0.28991 4.03417,0 1.10939,0.28991 0.20171,0.52712 -2.01709,0.52712 -2.21879,0 -3.12648,-0.23721 -2.01708,-0.52712 z m -41.782501,-1.51071 c 0,-0.63394 0.54929,-1.15262 1.22065,-1.15262 0.67135,0 0.90008,0.51868 0.50828,1.15262 -0.3918,0.63394 -0.94109,1.15262 -1.22065,1.15262 -0.27955,0 -0.50828,-0.51868 -0.50828,-1.15262 z m 344.599191,-5.69891 c 0.65966,-1.23258 1.71527,-2.55988 2.3458,-2.94957 1.62366,-1.00348 1.42806,2.1427 -0.23672,3.80747 -2.15192,2.15192 -3.43957,1.62815 -2.10908,-0.8579 z m -4.19118,-4.18143 c -0.37423,-0.97524 -0.20007,-2.84964 0.38702,-4.16534 0.99444,-2.22865 1.1982,-2.26142 2.9803,-0.47932 1.05209,1.05209 1.63549,2.63579 1.29644,3.51934 -0.9295,2.42224 -3.8918,3.13701 -4.66376,1.12532 z m -58.88043,-60.07143 c 1.10939,-0.28991 2.92477,-0.28991 4.03417,0 1.10939,0.28992 0.20171,0.52713 -2.01709,0.52713 -2.21879,0 -3.12648,-0.23721 -2.01708,-0.52713 z m 8.09027,-0.005 c 1.12147,-0.29224 2.67751,-0.27302 3.45787,0.0428 0.78035,0.31574 -0.1372,0.55484 -2.03902,0.53135 -1.90183,-0.0235 -2.54031,-0.28182 -1.41885,-0.57405 z m 7.76048,-0.36476 c -10e-4,-0.32296 0.99241,-1.20836 2.20807,-1.96756 2.94899,-1.84168 1.97415,-5.05446 -2.27332,-7.49217 -1.93933,-1.11262 -3.39483,-2.91588 -3.39483,-4.20551 0,-2.52756 4.90304,-3.80489 14.60507,-3.80489 3.62218,0 6.3871,-0.73995 8.25493,-2.20918 1.5447,-1.21506 3.46111,-2.2092 4.2587,-2.2092 0.79759,0 1.76245,-0.81378 2.14413,-1.8084 0.45229,-1.17866 1.47424,-1.56075 2.93467,-1.09723 1.52431,0.48381 2.61859,0.005 3.4226,-1.49719 0.65003,-1.2146 2.75634,-2.52326 4.68068,-2.90813 3.91481,-0.78297 4.72922,-3.9728 1.76987,-6.93214 -3.36729,-3.3673 -1.63551,-3.03547 6.05126,1.15947 9.06865,4.9491 10.0084,6.01099 7.6377,8.63059 -1.57633,1.74182 -1.55575,2.05042 0.20239,3.03433 1.07645,0.60241 1.95718,2.45141 1.95718,4.10887 l 0,3.01359 2.87295,-2.25986 c 1.58012,-1.24293 3.31779,-1.98494 3.86148,-1.64892 1.15782,0.71557 15.58398,-13.44429 15.12809,-14.84882 -0.16983,-0.52323 0.61192,-0.66474 1.73725,-0.31447 1.12533,0.35027 2.72549,0.20987 3.5559,-0.31201 1.0909,-0.68558 0.45121,-1.47061 -2.30524,-2.829 -7.53219,-3.71192 3.53516,-1.54421 15.20314,2.97777 12.30588,4.76921 17.2893,10.3524 17.2893,19.37012 0,4.06229 -0.65494,5.40033 -4.25941,8.70189 -4.56387,4.18034 -7.26679,4.97924 -7.26679,2.14783 0,-3.83266 -4.95721,-4.38392 -15.12689,-1.68216 -13.33221,3.54196 -40.31156,6.75104 -56.33559,6.70089 -4.12062,-0.0129 -8.01071,0.10811 -8.64465,0.26887 -2.24289,0.56881 -20.16645,0.4915 -20.16864,-0.087 z m 97.4802,-30.97073 c -0.3445,-0.55742 -1.70145,-1.29463 -3.01545,-1.63825 -1.96159,-0.51297 -2.14579,-0.33162 -1.02945,1.01348 1.4574,1.75606 5.09093,2.31728 4.0449,0.62477 z m -119.48097,15.30265 c -1.08468,-1.30697 -0.78009,-1.60994 1.61853,-1.60994 3.65486,0 5.02463,1.83205 1.9675,2.63152 -1.23744,0.3236 -2.85115,-0.13611 -3.58603,-1.02158 z m -98.7839,-22.97727 c -1.61636,-1.83264 -1.04192,-2.02227 2.91403,-0.96199 1.41924,0.38038 2.29632,1.15132 1.94907,1.71319 -0.93353,1.51047 -3.17352,1.16446 -4.8631,-0.7512 z m 155.36107,-2.73268 c 0,-0.73142 -1.68571,-1.33933 -3.74602,-1.35091 -6.78413,-0.0382 -11.79639,-0.5261 -12.96698,-1.26246 -0.63394,-0.39877 -3.74602,-1.09943 -6.91573,-1.55699 -10.08434,-1.45574 -9.43432,-2.62223 1.22432,-2.19707 9.99743,0.39878 17.39719,1.21987 21.53994,2.39011 1.1094,0.31337 2.01709,0.0542 2.01709,-0.576 0,-0.63018 -0.90769,-1.42175 -2.01709,-1.75904 -1.1094,-0.3373 0.57631,-0.32447 3.74602,0.0285 5.65878,0.63014 7.43926,1.78061 7.47438,4.82965 0.0128,1.10907 -0.95056,1.31971 -3.48742,0.76252 -2.14293,-0.47067 -4.15862,-0.22745 -5.18679,0.62586 -1.23252,1.02289 -1.68172,1.04048 -1.68172,0.0658 z m 34.57861,-0.105 -2.88155,-0.92284 3.10168,-0.11491 c 1.70593,-0.0632 3.42225,0.40378 3.81405,1.03772 0.80977,1.31023 0.0571,1.31023 -4.03418,0 z M 449.218,311.04846 c -1.66956,-0.92399 -2.15322,-1.60353 -1.15088,-1.61697 2.05879,-0.0277 5.3508,1.89063 4.57536,2.66607 -0.29957,0.29957 -1.84059,-0.17253 -3.42448,-1.0491 z M 335.90793,308.6338 c -0.4277,-0.42771 -0.19994,-1.47371 0.50612,-2.32446 1.49582,-1.80235 7.45239,-2.07881 8.49353,-0.39421 0.41146,0.66576 -0.67961,1.15262 -2.583,1.15262 -1.81245,0 -3.82269,0.52733 -4.4672,1.17184 -0.6445,0.6445 -1.52176,0.8219 -1.94945,0.39421 z m 51.64661,-1.56605 c -0.3918,-0.63394 0.0962,-1.15262 1.08459,-1.15262 0.98833,0 1.79696,0.51868 1.79696,1.15262 0,0.63394 -0.48807,1.15262 -1.08459,1.15262 -0.59653,0 -1.40516,-0.51868 -1.79696,-1.15262 z m -40.29249,-1.07297 c -0.96523,-1.56176 0.89473,-2.38178 6.51167,-2.87089 4.94086,-0.43024 8.39419,0.97315 7.18983,2.92185 -0.84158,1.36169 -12.85606,1.31702 -13.7015,-0.051 z"
       id="path3050"
       inkscape:connector-curvature="0" />
    <text
       xml:space="preserve"
       style="font-size:495.12747192px;font-style:normal;font-weight:normal;line-height:125%;letter-spacing:0px;word-spacing:0px;fill:#000000;fill-opacity:1;stroke:#000000;stroke-width:1;font-family:Sans"
       x="586.44861"
       y="625.94373"
       id="text3052"
       sodipodi:linespacing="125%"
       transform="scale(0.99829357,1.0017093)"><tspan
         sodipodi:role="line"
         id="tspan3054"
         x="586.44861"
         y="625.94373"
         style="font-style:normal;font-variant:normal;font-weight:normal;font-stretch:normal;stroke:#000000;stroke-width:1;font-family:Linux Libertine O;-inkscape-font-specification:Linux Libertine O">Mincer</tspan></text>
    <text
       transform="scale(0.99901836,1.0009826)"
       sodipodi:linespacing="100%"
       id="text3056"
       y="768.96381"
       x="2016.6128"
       style="font-size:145.07008362px;font-style:normal;font-weight:normal;text-align:end;line-height:100%;letter-spacing:0px;word-spacing:0px;text-anchor:end;fill:#000000;fill-opacity:1;stroke:#000000;stroke-width:0.99999994;font-family:Sans"
       xml:space="preserve"><tspan
         style="font-style:normal;font-variant:normal;font-weight:normal;font-stretch:normal;text-align:end;line-height:100%;text-anchor:end;stroke:#000000;stroke-width:0.99999994;font-family:Linux Libertine O;-inkscape-font-specification:Linux Libertine O"
         y="768.96381"
         x="2016.6128"
         id="tspan3058"
         sodipodi:role="line">stuff your websites with</tspan><tspan
         style="font-style:normal;font-variant:normal;font-weight:normal;font-stretch:normal;text-align:end;line-height:100%;text-anchor:end;stroke:#000000;stroke-width:0.99999994;font-family:Linux Libertine O;-inkscape-font-specification:Linux Libertine O"
         y="914.03387"
         x="2016.6128"
         sodipodi:role="line"
         id="tspan3060">the best ingredients</tspan></text>
  </g>
</svg>
