<?xml version="1.0" encoding="UTF-8" standalone="no"?>
<!-- Created with Inkscape (http://www.inkscape.org/) -->

<svg
   xmlns:dc="http://purl.org/dc/elements/1.1/"
   xmlns:cc="http://creativecommons.org/ns#"
   xmlns:rdf="http://www.w3.org/1999/02/22-rdf-syntax-ns#"
   xmlns:svg="http://www.w3.org/2000/svg"
   xmlns="http://www.w3.org/2000/svg"
   xmlns:sodipodi="http://sodipodi.sourceforge.net/DTD/sodipodi-0.dtd"
   xmlns:inkscape="http://www.inkscape.org/namespaces/inkscape"
   width="629.32001"
   height="629.32001"
   id="svg3081"
   version="1.1"
   inkscape:version="0.48.4 r9939"
   sodipodi:docname="mincer_logo.svg"
   inkscape:export-filename="/users/pierre-yves.martin/Documents/Portail_documentaire/mincer_logo.png"
   inkscape:export-xdpi="73.220001"
   inkscape:export-ydpi="73.220001">
  <defs
     id="defs3083" />
  <sodipodi:namedview
     id="base"
     pagecolor="#ffffff"
     bordercolor="#666666"
     borderopacity="1.0"
     inkscape:pageopacity="0.0"
     inkscape:pageshadow="2"
     inkscape:zoom="1.2475107"
     inkscape:cx="218.56568"
     inkscape:cy="279.50307"
     inkscape:document-units="px"
     inkscape:current-layer="layer1"
     showgrid="false"
     fit-margin-top="0"
     fit-margin-left="0"
     fit-margin-right="0"
     fit-margin-bottom="0"
     inkscape:window-width="1920"
     inkscape:window-height="1056"
     inkscape:window-x="0"
     inkscape:window-y="24"
     inkscape:window-maximized="1" />
  <metadata
     id="metadata3086">
    <rdf:RDF>
      <cc:Work
         rdf:about="">
        <dc:format>image/svg+xml</dc:format>
        <dc:type
           rdf:resource="http://purl.org/dc/dcmitype/StillImage" />
        <dc:title></dc:title>
      </cc:Work>
    </rdf:RDF>
  </metadata>
  <g
     inkscape:label="Calque 1"
     inkscape:groupmode="layer"
     id="layer1"
     transform="translate(-47.063804,-96.195644)">
    <path
       style="fill:#000000"
       d="m 506.27171,683.04477 c -4.28487,-2.55943 -5.00496,-4.27446 -1.1849,-2.82208 4.8166,1.83127 7.13529,1.1961 9.4794,-2.59675 1.75334,-2.83697 2.08395,-4.47421 1.60665,-7.95649 -0.75958,-5.54171 0.90656,-6.77431 2.85465,-2.11186 0.80515,1.92697 1.90106,3.77377 2.43537,4.10399 0.53432,0.33023 0.71371,1.27214 0.39867,2.09315 -0.94116,2.4526 5.5785,1.47013 10.16016,-1.53107 2.2,-1.44111 4.74265,-2.90511 5.65034,-3.25333 3.30198,-1.26676 3.16715,-12.27506 -0.20004,-16.33227 -0.9522,-1.14734 -1.52807,-1.10765 -3.59686,0.24786 -2.00484,1.31363 -3.12091,1.41204 -5.99837,0.52892 -1.94438,-0.59675 -4.24352,-0.8132 -5.1092,-0.48101 -0.93539,0.35894 -1.31769,0.18934 -0.94231,-0.41805 0.34741,-0.56212 -0.25377,-2.75874 -1.33595,-4.88138 -1.08219,-2.12264 -1.96761,-4.35175 -1.96761,-4.95358 0,-0.60182 -1.61979,-5.11123 -3.59952,-10.0209 -4.14802,-10.28691 -10.18934,-32.74398 -11.55646,-42.95817 -0.51503,-3.84791 -1.36562,-7.42541 -1.89021,-7.95 -0.5246,-0.5246 -0.96481,-2.55131 -0.97826,-4.50381 -0.0134,-1.9525 -0.48179,-5.53408 -1.04077,-7.95906 -3.83744,-16.64764 -4.66815,-54.57656 -2.0498,-93.59094 1.73009,-25.77893 1.91025,-33.52632 1.06975,-46 -1.49501,-22.1868 -4.02778,-39.67715 -9.48502,-65.5 -3.92608,-18.57761 -20.79933,-64.19322 -24.83079,-67.12824 -2.34992,-1.71081 -2.51147,-14.87176 -0.18255,-14.87176 1.93902,0 2.38694,-1.94662 1.61359,-7.01256 -0.9318,-6.10391 -3.61247,-9.97819 -6.93497,-10.02288 -1.44924,-0.0195 -3.73532,-0.64482 -5.08016,-1.38963 -2.71619,-1.5043 -5.73604,-0.63478 -9.74932,2.80714 -2.3707,2.0332 -2.37908,2.29939 -0.70472,22.40558 l 0.69016,8.28765 2.10452,-1.92272 c 3.50883,-3.20569 6.26852,-3.52803 9.64161,-1.12617 3.03234,2.15921 4.00682,3.70242 9.25187,14.65159 1.53392,3.2021 3.22142,6.60339 3.75,7.55843 0.52858,0.95504 0.96105,2.33302 0.96105,3.06217 0,0.72916 0.90587,3.20068 2.01304,5.49226 1.10718,2.29159 3.19265,7.88861 4.63438,12.43783 1.44173,4.54922 3.01086,8.69881 3.48696,9.22131 0.47609,0.5225 0.86562,1.99111 0.86562,3.26357 0,1.27246 0.40296,3.09496 0.89547,4.05 1.65212,3.20366 6.09833,26.5853 8.12668,42.73643 1.10516,8.8 2.20911,17.125 2.45324,18.5 0.61015,3.4366 1.8534,33.13464 1.69545,40.5 -0.0708,3.3 -0.58024,12.075 -1.13217,19.5 -3.30103,44.40861 -3.32905,45.24731 -2.10416,63 0.6641,9.625 2.09881,22.9 3.18824,29.5 1.08944,6.6 2.37304,14.475 2.85245,17.5 2.48738,15.69508 10.51146,42.72006 14.84567,50 4.1064,6.89732 4.4167,8.08001 2.63608,10.04757 -1.05043,1.16071 -1.227,1.97651 -0.52209,2.41217 0.58583,0.36206 1.06514,0.18174 1.06514,-0.40072 0,-0.58246 0.42331,-1.05902 0.9407,-1.05902 0.51738,0 0.33237,1.17255 -0.41115,2.60567 -1.00695,1.9409 -1.08988,3.35712 -0.32507,5.55105 0.56472,1.61996 0.82633,3.1458 0.58136,3.39078 -0.24497,0.24497 -3.05115,-1.578 -6.23594,-4.05105 -3.1848,-2.47305 -6.2989,-4.4936 -6.92022,-4.49013 -1.29789,0.007 -4.62968,5.45847 -4.62968,7.57472 0,0.78043 -0.44139,1.41896 -0.98087,1.41896 -0.58434,0 -0.73637,-1.78384 -0.37605,-4.41261 0.42111,-3.07233 -0.0471,-6.64126 -1.5416,-11.75 -1.18053,-4.03556 -3.00339,-10.26239 -4.05081,-13.83739 -1.04742,-3.575 -2.19139,-8.075 -2.54215,-10 -0.35076,-1.925 -1.28699,-5.525 -2.0805,-8 -4.02141,-12.54286 -10.4825,-45.961 -10.34375,-53.5 0.0912,-4.95664 0.62342,-3.77978 1.80883,4 4.71676,30.95574 8.76361,48.33409 12.10909,52 1.09873,1.20397 1.81973,3.50167 1.8115,5.77291 -0.008,2.0751 0.70123,4.86402 1.57503,6.1976 0.8738,1.33358 1.34089,3.07053 1.03799,3.85989 -0.30291,0.78935 0.62762,4.23484 2.06784,7.65664 1.81226,4.30575 2.42273,7.11311 1.98255,9.11721 -0.73645,3.35303 0.75984,3.81894 4.30039,1.33905 2.93156,-2.05335 2.83217,-3.1583 -1.19816,-13.31932 -2.95386,-7.4471 -6.66428,-21.58866 -9.69242,-36.9408 -1.06044,-5.37626 -1.87456,-6.82119 -2.90442,-5.15484 -1.16764,1.88928 -2.54933,-1.42269 -3.98177,-9.54448 -1.80463,-10.23207 -0.74099,-12.47786 1.22499,-2.58648 1.67561,8.4304 3.77981,12.92646 3.76871,8.05262 -0.003,-1.3475 -0.43745,-4.025 -0.9653,-5.95 -1.03155,-3.76198 -2.09113,-11.00473 -4.60828,-31.5 -1.62491,-13.23035 -2.13573,-55.14503 -0.83029,-68.12712 0.36289,-3.6088 0.21509,-6.37496 -0.35959,-6.73014 -1.06802,-0.66007 -2.20261,4.731 -2.21995,10.54824 -0.006,2.03004 -0.45558,3.96575 -0.99895,4.30156 -0.62833,0.38833 -0.76085,-1.04618 -0.36407,-3.94098 0.42448,-3.09694 0.26083,-4.55156 -0.51207,-4.55156 -1.05071,0 -1.58571,2.36677 -1.35626,6 0.0521,0.825 -0.38034,4.875 -0.96097,9 -0.58064,4.125 -1.13088,15.241 -1.22275,24.70222 -0.0919,9.46123 -0.42909,17.46426 -0.74936,17.78453 -1.19084,1.19084 -1.82654,-15.92805 -1.78198,-47.98675 0.0739,-53.16636 -3.29217,-85.08258 -12.55048,-119 -4.18493,-15.33129 -4.59003,-16.40258 -12.1006,-32 -9.99032,-20.74717 -14.79345,-26.5 -22.12527,-26.5 -1.56378,0 -3.82192,-0.68549 -5.01808,-1.52332 -1.994,-1.39665 -2.26196,-1.36054 -3.22251,0.43426 -0.57621,1.07667 -1.04655,2.54966 -1.04519,3.27332 10e-4,0.72366 -1.38258,4.46574 -3.07542,8.31574 l -3.07789,7 -14.67458,3.7401 c -8.07102,2.05705 -22.46725,5.75962 -31.99163,8.22793 -9.52438,2.46831 -20.99938,5.17625 -25.5,6.01766 -16.88069,3.15589 -21.72535,4.30461 -23.15365,5.49 -1.54364,1.2811 -11.99179,4.21024 -32.0293,8.97941 -24.64825,5.86658 -30.62365,7.3078 -56.5,13.62734 -14.575,3.55952 -27.61635,6.94731 -28.98078,7.52842 -1.36443,0.58111 -6.53943,1.26163 -11.5,1.51226 -6.41161,0.32395 -10.29088,1.06911 -13.41764,2.57734 -2.41913,1.16691 -6.69413,2.29908 -9.5,2.51594 -8.26476,0.63878 -9.32825,1.05845 -10.05886,3.9694 -0.53397,2.12751 -0.18482,3.08299 1.63941,4.48647 1.27483,0.98079 3.48037,1.79326 4.9012,1.80549 1.42084,0.0122 2.90865,0.34755 3.30625,0.74515 1.08579,1.0858 7.48279,1.29262 8.11943,0.26251 0.30527,-0.49394 1.24529,-0.6332 2.08893,-0.30946 0.93758,0.35978 2.85296,-0.6899 4.927,-2.70013 2.68366,-2.60111 3.68435,-3.04702 4.78605,-2.1327 0.94874,0.78739 2.3171,0.86325 4.29097,0.2379 7.66106,-2.42714 27.08008,-7.67111 71.39804,-19.28053 6.325,-1.65688 14.2,-3.63806 17.5,-4.40261 3.3,-0.76456 10.95,-2.75186 17,-4.41622 6.05,-1.66437 18.2,-4.54602 27,-6.40367 8.8,-1.85765 18.925,-4.31685 22.5,-5.46487 3.575,-1.14803 7.50339,-2.09313 8.72976,-2.10023 1.22637,-0.007 3.92637,-0.63551 6,-1.39648 5.03584,-1.84802 22.86398,-6.5772 36.27024,-9.62121 1.925,-0.43709 5.975,-1.70883 9,-2.82608 5.42627,-2.00413 7.35236,-1.50355 5.02143,1.30505 -0.64221,0.77382 -1.78841,1.16873 -2.54711,0.87759 -0.77856,-0.29876 -3.11337,1.23959 -5.35991,3.53151 -3.28169,3.34798 -4.60741,4.03728 -7.5519,3.92659 -1.9643,-0.0738 -3.90694,0.20138 -4.31698,0.61162 -0.41004,0.41024 -0.84921,3.52073 -0.97592,6.9122 -0.62767,16.79904 -1.57437,28.28005 -2.41758,29.31906 -0.59471,0.73282 -0.53834,1.28515 0.15475,1.51618 0.59964,0.19988 1.30108,3.72037 1.55876,7.82331 0.25767,4.10294 0.87314,8.82066 1.36771,10.48382 3.4212,11.505 5.613,17.58295 7.6845,21.30942 3.10693,5.58914 3.02618,6.66354 -0.36775,4.89288 -1.5125,-0.7891 -4.06399,-2.05204 -5.66998,-2.80654 -1.60599,-0.7545 -4.63948,-2.94682 -6.7411,-4.87182 -5.10247,-4.67367 -9.46618,-8 -10.49494,-8 -0.46183,0 1.40935,2.04687 4.15817,4.54859 2.74882,2.50173 6.60934,6.05381 8.57894,7.89351 4.07271,3.8041 11.54293,7.9083 12.88478,7.07899 0.49351,-0.305 1.54244,0.36654 2.33097,1.49232 1.08847,1.554 1.22515,3.16313 0.56764,6.68261 -0.47633,2.54966 -0.7532,4.72887 -0.61527,4.84268 1.50157,1.23906 7.10806,3.4613 8.73251,3.4613 1.14458,0 2.34007,0.675 2.65665,1.5 0.31659,0.825 1.65246,1.5 2.96862,1.5 1.31615,0 2.45964,0.5625 2.54107,1.25 0.0814,0.6875 0.20865,1.925 0.28272,2.75 0.31839,3.54672 1.80099,8 2.66337,8 0.51439,0 1.82695,-1.4625 2.91681,-3.25 l 1.98156,-3.25 0.004,4.17857 c 0.005,5.36351 1.98686,7.46023 6.29243,6.65646 2.53489,-0.47323 2.96633,-0.3372 2.04827,0.64577 -2.51926,2.69739 -9.68007,2.31294 -24.50605,-1.31571 -7.98862,-1.9552 -17.10205,-4.69472 -20.25207,-6.08781 -9.6282,-4.25804 -27.77548,-23.36607 -34.15286,-35.96097 -1.54555,-3.05235 -3.46734,-5.80194 -4.27065,-6.1102 -1.72363,-0.66142 -5.93764,0.56566 -16.07411,4.68061 -12.80953,5.20009 -29.22582,6.62988 -35.5414,3.0955 -1.47129,-0.82337 -0.37147,-1.06432 4.99957,-1.09531 5.75166,-0.0332 7.90676,-0.56865 13.08442,-3.25105 3.40924,-1.76623 8.27704,-5.20294 10.81734,-7.63713 2.5403,-2.43419 6.1214,-5.05366 7.958,-5.82104 2.80948,-1.17388 3.26175,-1.80075 2.85066,-3.95124 -0.52154,-2.72823 -1.82739,-3.95734 -4.24981,-4.00002 -0.825,-0.0145 -1.3453,-0.70143 -1.15621,-1.52643 1.39748,-6.0975 1.22126,-7.93813 -1.22158,-12.75884 -2.82893,-5.58261 -3.23192,-5.95586 -9.10755,-8.43529 -3.95006,-1.66687 -3.96639,-1.69478 -1.01466,-1.73482 5.22705,-0.0709 11.70383,2.44842 14.17402,5.51338 2.32869,2.88937 2.35524,2.89535 2.95452,0.66557 0.3326,-1.2375 0.94975,-2.25 1.37146,-2.25 0.42171,0 1.02948,-1.00474 1.35062,-2.23275 0.47567,-1.819 0.82158,-1.99431 1.86663,-0.94601 1.04419,1.04744 0.85592,1.60928 -1.0123,3.02103 -2.30561,1.74228 -2.07219,3.15773 0.52073,3.15773 0.7658,0 1.15141,-0.38986 0.85692,-0.86635 -0.29449,-0.4765 0.35395,-1.67124 1.44098,-2.65499 2.38649,-2.15974 2.55152,-1.28601 0.38241,2.02448 -2.96362,4.52305 -0.80958,5.03668 2.42082,0.57725 3.45104,-4.76403 3.99989,-6.6116 1.70213,-5.72987 -0.80908,0.31048 -2.12694,-0.0914 -2.92857,-0.89301 -0.80189,-0.80163 -2.2137,-1.45751 -3.13761,-1.45751 -1.31405,0 -1.53629,-0.57191 -1.02063,-2.62648 0.54172,-2.15839 0.36825,-2.51483 -0.97338,-2 -0.89792,0.34456 -1.82078,0.62648 -2.0508,0.62648 -0.23001,0 -0.41821,0.8449 -0.41821,1.87756 0,1.03265 -0.74237,2.49366 -1.64971,3.24668 -1.48473,1.23223 -1.60315,1.05198 -1.1842,-1.80249 l 0.46549,-3.17164 -6.19024,0.40426 c -3.40463,0.22234 -11.30924,2.02666 -17.56579,4.0096 -6.25655,1.98294 -12.84222,3.84196 -14.63482,4.13117 -4.05275,0.65385 -4.90484,1.91354 -2.83869,4.19661 0.87888,0.97115 1.59796,2.09994 1.59796,2.50842 0,0.40848 0.675,1.41769 1.5,2.24269 0.825,0.825 1.5,2.57702 1.5,3.89338 0,2.67866 2.56117,4.46376 6.40436,4.46376 2.30276,0 2.51561,0.34467 2.31574,3.75 l -0.2201,3.75 6.26695,0.5 c 3.44682,0.275 6.30297,0.95 6.34702,1.5 0.0955,1.19213 -5.61224,3.36391 -9.05008,3.44356 -2.7258,0.0632 -14.47858,-2.58839 -17.56389,-3.96259 -1.1,-0.48994 -4.36967,-1.56396 -7.26594,-2.38672 -7.17415,-2.03799 -7.46948,-2.30532 -5.63675,-5.10242 0.8663,-1.32213 1.29048,-2.86437 0.94264,-3.42719 -0.80281,-1.29897 1.27788,-5.29526 2.39692,-4.60366 1.6331,1.00931 3.26848,-2.20876 2.16771,-4.26557 -0.56882,-1.06285 -0.71255,-2.27251 -0.3194,-2.68815 0.39315,-0.41565 -0.18518,-0.48821 -1.28518,-0.16126 -7.05919,2.09818 -27.42644,7.14336 -35,8.66986 -4.95,0.99771 -9.78125,2.12304 -10.7361,2.50073 -1.27948,0.5061 -1.99435,0.007 -2.71799,-1.89583 -1.07774,-2.83468 -4.04011,-2.66204 -4.0535,0.23623 -0.004,0.90365 -0.44351,5.43476 -0.97629,10.06911 -0.65334,5.68289 -0.63506,8.82813 0.0561,9.66097 0.70813,0.85324 0.66857,1.45507 -0.12799,1.94737 -1.32735,0.82035 -0.69508,9.83066 1.55713,22.1901 2.40594,13.20309 4.55477,20.11013 7.58737,24.38834 1.01868,1.43708 1.60656,2.85845 1.30641,3.1586 -0.98489,0.9849 -6.2027,-1.04297 -10.77111,-4.18612 -5.48191,-3.77165 -6.77178,-3.94508 -3.54838,-0.47709 3.87289,4.16672 14.48865,11.39173 16.73798,11.39173 1.59277,0 2.13069,0.73672 2.37301,3.25 0.31183,3.23414 0.34141,3.2507 6.06336,3.39423 3.1625,0.0793 5.75,-0.0555 5.75,-0.29966 0,-1.28775 -3.13405,-6.23474 -4.22896,-6.67528 -0.69907,-0.28127 -0.32134,-0.54692 0.83941,-0.59034 1.16075,-0.0434 3.73545,1.0238 5.72155,2.3716 3.23438,2.19492 5.68258,2.0001 4.23803,-0.33724 -0.67856,-1.09793 1.98808,-3.42879 3.38394,-2.95785 0.65066,0.21952 0.54191,1.26732 -0.29971,2.8876 -1.45631,2.8037 -1.75009,5.95694 -0.55498,5.95694 0.42127,0 1.05159,-0.9 1.40072,-2 0.34913,-1.1 1.00197,-2 1.45076,-2 1.36776,0 1.91896,3.86324 0.69601,4.8782 -0.63073,0.52345 -1.14677,2.45249 -1.14677,4.28676 0,4.0945 2.60534,4.82795 8.02099,2.25806 2.80881,-1.33287 3.85653,-1.44171 4.78737,-0.49734 2.76411,2.80428 -7.53654,5.33796 -19.30836,4.74933 -3.43151,-0.17159 -3.49266,-0.10652 -3.12484,3.32499 0.20634,1.925 0.43134,4.29326 0.5,5.2628 0.18563,2.62118 1.641,2.25958 3.7441,-0.93024 1.02716,-1.55791 1.87053,-2.23477 1.87415,-1.50414 0.011,2.21899 8.02286,9.42047 11.36818,10.21834 2.11727,0.50497 -0.11614,0.78182 -6.86425,0.85088 -9.6339,0.0986 -10.58439,-0.0983 -25.78214,-5.33907 -10.25403,-3.53602 -17.14487,-6.52283 -19.67873,-8.52969 -8.80116,-6.97064 -22.66715,-23.53431 -27.38097,-32.70801 -2.10272,-4.09217 -4.28679,-4.71667 -9.73877,-2.78464 -7.49175,2.65486 -24.8616,6.46377 -29.47688,6.46377 -3.56828,0 -15.46827,-4.00648 -15.43004,-5.19497 0.005,-0.16777 3.15078,-0.40413 6.98973,-0.52524 4.47125,-0.14107 7.88213,-0.81138 9.49018,-1.86501 1.38066,-0.90464 2.51028,-1.33925 2.51028,-0.96581 0,0.61359 7.79919,-3.24422 9,-4.45178 2.54365,-2.55796 9.1981,-5.99719 11.60375,-5.99719 1.64794,0 3.53625,-0.54 4.19625,-1.2 0.93333,-0.93333 1.2,-0.68519 1.2,1.11663 0,1.75209 0.4457,2.20008 1.82896,1.83835 1.00593,-0.26306 2.48495,0.022 3.28671,0.63337 2.37757,1.81307 6.39529,8.0048 6.08134,9.37196 -0.15996,0.69655 0.40528,1.53358 1.25608,1.86006 0.8508,0.32649 1.54691,1.44546 1.54691,2.48662 0,1.04115 0.33919,1.89301 0.75376,1.89301 0.41457,0 3.32924,2.45506 6.47704,5.45569 5.3942,5.14201 10.36348,8.15778 25.7692,15.6389 15.30963,7.43446 19.06595,9.05009 20.17883,8.67913 0.6483,-0.2161 -5.31422,-3.64817 -13.25005,-7.62682 -7.93583,-3.97865 -16.1785,-8.294 -18.31704,-9.58965 -7.05657,-4.27529 -15.62406,-12.63993 -20.38571,-19.90307 -2.57963,-3.9348 -6.71601,-10.06743 -9.19196,-13.62807 -3.60146,-5.17924 -4.50496,-7.32537 -4.5179,-10.73166 -0.009,-2.34177 -0.46617,-4.2573 -1.01617,-4.25674 -0.55,5.6e-4 -1,0.88359 -1,1.96229 0,4.15277 -4.7835,-0.23006 -6.08893,-5.57892 -1.31504,-5.38824 -5.45523,-13.42108 -6.91733,-13.42108 -0.7962,0 -2.18223,1.12114 -3.08007,2.49141 -0.89784,1.37028 -2.05964,2.22739 -2.58177,1.9047 -0.52214,-0.3227 -2.61042,0.56076 -4.64062,1.96325 -2.89131,1.99734 -5.42503,2.68872 -11.69128,3.19021 -4.4,0.35213 -8.13393,0.76896 -8.29762,0.92629 -0.16369,0.15732 0.43095,1.01462 1.32143,1.90509 1.74241,1.74241 9.9452,2.28723 10.91091,0.72468 0.53478,-0.8653 8.56528,-2.05535 8.56528,-1.2693 0,0.21405 -1.15734,1.80094 -2.57187,3.52642 -1.41453,1.72549 -3.87897,5.16225 -5.47654,7.63725 -2.65784,4.11761 -2.76295,4.60622 -1.237,5.75 0.91722,0.6875 3.04416,1.25689 4.72654,1.26531 1.68238,0.008 3.7265,0.43746 4.5425,0.95341 1.17164,0.74083 0.70524,1.26333 -2.21788,2.48469 -5.25769,2.1968 -8.20612,1.95267 -18.32816,-1.51758 -7.03777,-2.41284 -10.1067,-2.96958 -14.43759,-2.61918 -10.27551,0.83139 -22.67182,-2.22471 -35.499998,-8.75192 -5.50251,-2.79977 -21.51596,-18.11823 -21.47294,-20.541 0.0161,-0.90766 1.43196,0.0935 3.50183,2.47627 6.28774,7.23816 10.94505,11.47085 12.63778,11.48554 0.91666,0.008 1.81666,0.39995 2,0.87111 0.18333,0.47116 1.9861,1.16003 4.00616,1.53083 3.19383,0.58627 3.76235,0.39211 4.359318,-1.48877 0.52379,-1.65032 0.88404,-1.84333 1.51997,-0.81438 0.4785,0.77423 0.37125,1.90554 -0.25182,2.6563 -2.069258,2.4933 0.10029,2.46968 2.41347,-0.0263 l 2.32454,-2.50822 2.73085,2.34898 c 1.50196,1.29194 2.73084,2.99742 2.73084,3.78996 0,1.79573 3.00685,3.0481 4.27458,1.78037 0.58685,-0.58685 0.15213,-1.36187 -1.15687,-2.06242 -1.15336,-0.61726 -2.82611,-2.53222 -3.71723,-4.25546 -1.56403,-3.02449 -1.53949,-3.19408 0.70747,-4.88897 1.63692,-1.23473 2.83857,-1.48237 4.04919,-0.83447 3.17535,1.6994 3.16301,-1.1423 -0.0185,-4.25279 -2.46663,-2.41158 -3.82872,-2.9638 -6.85829,-2.78049 -5.55015,0.33582 -7.46905,0.0635 -6.83067,-0.96945 0.31226,-0.50524 -0.78102,-1.21487 -2.429508,-1.57693 -1.6485,-0.36207 -3.25398,-1.07369 -3.56775,-1.58138 -0.31373,-0.50768 -1.49164,-0.92306 -2.61753,-0.92306 -3.28224,0 -8.95263,-5.20968 -14.30009,-13.13822 -2.73086,-4.04898 -5.99336,-8.35279 -7.25,-9.56403 -1.5424,-1.48668 -2.2848,-3.36306 -2.2848,-5.77475 0,-2.87614 -0.48005,-3.75502 -2.46279,-4.50885 -1.84489,-0.70143 -2.43952,-1.63608 -2.37004,-3.72525 0.051,-1.5339 -1.04417,-7.2889 -2.43376,-12.7889 -1.38959,-5.5 -2.83763,-11.9125 -3.21787,-14.25 -0.45661,-2.80702 -1.20136,-4.25 -2.1935,-4.25 -1.13579,0 -1.44745,-1.03659 -1.27781,-4.25 0.33476,-6.34111 0.20473,-6.62331 -3.00959,-6.53192 -1.63094,0.0464 -3.64767,-0.48196 -4.48162,-1.17408 -1.34239,-1.11408 -1.34636,-1.50096 -0.0346,-3.3737 1.76674,-2.52237 1.97455,-9.33932 0.30171,-9.89694 -1.33899,-0.44633 -0.39823,-3.77336 1.06697,-3.77336 0.5224,0 1.92323,1.575 3.11294,3.5 2.53288,4.09828 3.46199,4.47684 2.60474,1.06129 -0.33664,-1.3413 -0.16731,-2.7136 0.37629,-3.04956 0.5436,-0.33597 0.97493,-1.60105 0.9585,-2.81129 -0.0448,-3.30011 1.67145,-11.56263 3.57277,-17.20044 2.31812,-6.87372 7.68286,-16.5 9.19547,-16.5 0.68537,0 1.93911,-1.05762 2.78608,-2.35027 1.91745,-2.92639 11.08796,-8.02622 12.67216,-7.04713 0.64451,0.39833 3.45833,0.83368 6.25292,0.96744 4.96684,0.23772 6.74394,0.9113 13.295098,5.03924 4.01044,2.52701 9.28597,9.05978 9.28597,11.49896 0,1.30632 -1.89303,-0.032 -6.58617,-4.65638 -8.609838,-8.48363 -11.244668,-9.84377 -16.386808,-8.45914 -9.92312,2.67202 -19.96235,19.00823 -21.20605,34.50728 -0.37451,4.66723 1.43826,6.27664 2.18885,1.9433 0.2804,-1.61881 0.8429,-2.8308 1.25,-2.6933 0.4071,0.1375 1.15986,0.25 1.67279,0.25 0.51294,0 1.19786,0.8357 1.52204,1.85712 0.41579,1.31001 1.27814,1.72545 2.92728,1.4102 1.75243,-0.335 2.47731,0.0864 2.89478,1.68282 0.44105,1.68656 1.0679,2.00147 3.01253,1.5134 2.06564,-0.51844 2.56406,-0.1842 3.13854,2.10472 1.00557,4.00653 -1.05397,5.56936 -3.34456,2.53792 -1.14821,-1.51958 -2.27422,-2.10617 -3.08322,-1.60618 -0.80374,0.49674 -1.90475,-0.048 -2.98108,-1.47492 -1.43793,-1.90631 -2.04029,-2.08401 -3.82555,-1.12857 -2.51961,1.34845 -1.88431,4.09694 0.7856,3.39874 1.19852,-0.31342 2.25657,0.27633 3.00515,1.67508 0.90964,1.69967 1.4511,1.91336 2.5459,1.00476 1.11014,-0.92134 1.8011,-0.48065 3.42653,2.18543 1.11979,1.83671 2.03766,2.77698 2.03971,2.08948 0.002,-0.6875 0.90374,-1.25 2.00374,-1.25 1.61905,0 2,0.66667 2,3.5 0,3.92497 -1.79645,4.65684 -3.75048,1.52794 -0.75099,-1.20254 -1.84527,-1.73656 -2.80431,-1.36854 -0.95386,0.36603 -2.13497,-0.19916 -3.00148,-1.43628 -0.94769,-1.35301 -2.12095,-1.85878 -3.48466,-1.50217 -2.72045,0.71142 -2.14041,3.87997 0.63998,3.49594 1.41431,-0.19534 2.4355,0.56352 3.29406,2.44785 0.93007,2.04128 1.45401,2.39165 2.07467,1.38739 1.39439,-2.25616 4.03222,-0.38683 4.03222,2.85747 0,4.41604 -2.74501,5.03954 -4.24412,0.96401 -0.4147,-1.12741 -1.38945,-1.47515 -3.17706,-1.13343 -1.87897,0.35919 -2.57882,0.0703 -2.57882,-1.06459 0,-2.15563 -1.09413,-2.594 -3.86414,-1.54818 -1.87377,0.70745 -2.12542,1.18024 -1.21323,2.27936 0.633,0.76272 1.97239,1.17194 2.97643,0.90938 1.25015,-0.32692 2.00029,0.19097 2.38005,1.64316 0.438,1.67492 1.06879,1.99148 3.00166,1.50636 1.93676,-0.4861 2.56362,-0.16874 3.00568,1.5217 0.36023,1.37752 1.20742,2.02525 2.38605,1.82426 2.21246,-0.37728 3.09901,3.55383 1.29239,5.73068 -1.49348,1.79954 -0.42336,4.8476 1.44958,4.12888 2.17436,-0.83437 5.23406,3.07712 3.97205,5.07783 -1.62795,2.58083 -2.94962,2.50527 -4.20052,-0.24014 -1.02194,-2.24291 -1.39651,-2.39436 -3.17492,-1.28372 -2.58071,1.61167 -2.05245,3.22524 1.06502,3.25315 1.74339,0.0156 2.51355,0.65285 2.7432,2.26978 0.25966,1.82813 0.65647,2.06766 2.12414,1.28218 1.35257,-0.72387 2.23578,-0.48972 3.52465,0.93447 0.9459,1.04521 2.32521,1.66807 3.06513,1.38414 0.73992,-0.28394 1.93089,0.42141 2.646588,1.56744 0.71571,1.14602 2.33216,2.08368 3.59212,2.08368 1.25996,0 2.54986,0.675 2.86645,1.5 0.31658,0.825 1.65245,1.5 2.96861,1.5 2.05249,0 2.39301,-0.48145 2.39301,-3.38337 0,-2.50465 0.50263,-3.51481 1.93529,-3.88946 1.40883,-0.36841 1.78281,-1.08916 1.37477,-2.64951 -0.34658,-1.32532 0.1435,-2.92136 1.28402,-4.18162 1.0145,-1.12101 1.85835,-2.99652 1.87523,-4.16782 0.0203,-1.40492 0.84152,-2.32247 2.41342,-2.69632 2.14919,-0.51116 2.22356,-0.6988 0.75878,-1.91446 -1.40465,-1.16575 -2.00559,-0.9392 -4.45013,1.67769 -1.55441,1.66399 -4.53831,3.74081 -6.63091,4.61516 -3.94743,1.64934 -15.067618,2.19618 -15.940468,0.78388 -0.84944,-1.37443 1.80076,-5.64343 4.14775,-6.6813 2.940818,-1.30047 2.838188,-4.30301 -0.29212,-8.5459 l -2.52437,-3.4216 2.27437,-1.75099 c 2.197868,-1.69208 3.133168,-1.72173 13.250628,-0.41999 0.53694,0.0691 1.13757,-0.93899 1.33472,-2.24017 0.19879,-1.31193 1.22985,-2.59364 2.31463,-2.87732 2.66359,-0.69654 1.74542,-2.83813 -1.04247,-2.43152 -1.58636,0.23137 -2.39088,-0.28619 -2.78447,-1.79127 -0.3811,-1.45734 -1.21467,-2.02592 -2.67609,-1.82538 -1.42452,0.19548 -2.45145,-0.46298 -3.12258,-2.00214 -0.74612,-1.71116 -1.56108,-2.15317 -3.20999,-1.74099 -1.52473,0.38113 -2.5215,-0.0296 -3.214588,-1.32469 -0.68826,-1.28602 -1.75886,-1.73292 -3.3999,-1.41921 -1.76985,0.33832 -2.53014,-0.0577 -2.91171,-1.51688 -0.38829,-1.48484 -1.13475,-1.85657 -3.00874,-1.49833 -2.04875,0.39164 -2.61204,-5e-4 -3.16491,-2.20328 -0.58233,-2.32018 -0.88668,-2.50201 -2.26851,-1.35519 -1.36003,1.12872 -1.81325,0.99723 -3.06602,-0.88955 -1.17577,-1.7708 -1.85092,-2.01025 -3.37231,-1.19602 -1.59118,0.85157 -2.07087,0.57446 -2.93358,-1.69466 -1.85865,-4.88861 1.28853,-7.48811 4.17829,-3.45117 1.08431,1.51476 1.86766,1.72234 3.73612,0.99 1.87294,-0.7341 2.12502,-1.21475 1.21323,-2.31339 -0.633,-0.76272 -2.01396,-1.16107 -3.0688,-0.88522 -1.43409,0.37502 -2.08265,-0.15497 -2.57108,-2.101 -0.79499,-3.16751 0.0531,-5.71763 1.78468,-5.36629 0.79846,0.16202 1.18291,-0.61608 1.02483,-2.07416 -0.13915,-1.28339 0.13266,-3.02258 0.60403,-3.86486 0.73115,-1.3065 1.179,-1.18583 3.04916,0.82155 1.20568,1.29414 2.90828,2.35833 3.78356,2.36487 2.08352,0.0155 3.80231,2.80283 3.00677,4.87596 -0.87317,2.27545 -3.34961,2.04759 -3.98085,-0.36628 -0.4266,-1.63132 -0.9576,-1.84164 -2.86663,-1.13544 -3.01701,1.11606 -3.10829,3.71801 -0.11942,3.4041 1.36543,-0.1434 2.63519,0.53547 3.29001,1.75901 0.77312,1.4446 1.70685,1.8318 3.39535,1.40802 1.87799,-0.47135 2.41646,-0.12691 2.78075,1.77873 0.24847,1.29979 0.26993,2.90878 0.0477,3.57552 -0.66517,1.99551 -3.96294,1.36989 -4.54673,-0.86256 -0.46485,-1.77757 -0.84842,-1.91113 -2.6774,-0.93229 -2.4717,1.32281 -2.14323,3.65921 0.44826,3.18852 0.96473,-0.17523 2.37717,0.57102 3.13876,1.65834 0.86449,1.23423 2.10672,1.78812 3.30657,1.47435 1.25052,-0.32702 2.29654,0.19748 2.99441,1.50146 0.69652,1.30145 1.7445,1.82832 2.989218,1.50282 1.32801,-0.34728 2.12055,0.14112 2.58047,1.5902 0.73368,2.31162 1.7633,2.57159 4.46286,1.12683 1.26923,-0.67927 1.65559,-1.73234 1.30619,-3.56013 -0.39137,-2.04732 -0.0365,-2.71575 1.68032,-3.1647 1.94171,-0.50777 2.7601,-3.94991 0.82965,-3.48947 -0.4125,0.0984 -1.65171,0.17889 -2.7538,0.17889 -1.64604,0 -1.95849,0.58017 -1.75,3.24939 0.20676,2.64719 -0.13903,3.30556 -1.86585,3.55247 -1.42821,0.20421 -2.28921,-0.34533 -2.63945,-1.68468 -0.36606,-1.3998 -1.10587,-1.8345 -2.501158,-1.46962 -1.52354,0.39841 -2.13951,-0.11206 -2.66589,-2.20936 -1.00302,-3.99633 1.0479,-5.58169 3.324008,-2.56946 1.54691,2.0472 2.09081,2.20769 4.00678,1.1823 2.6961,-1.44291 2.23665,-3.55104 -0.77393,-3.55104 -3.653081,0 -5.664998,-4.97401 -2.50275,-6.18748 1.02587,-0.39366 2.23662,0.18222 3.2737,1.55711 1.45042,1.92286 1.86991,2.01789 3.53452,0.80069 1.25085,-0.91464 1.65574,-1.98841 1.19878,-3.17921 -0.63293,-1.64939 -0.7911,-1.66289 -1.91248,-0.16326 -1.53817,2.05701 -3.21365,0.9928 -4.09307,-2.59981 -0.86968,-3.55281 1.94058,-5.03342 4.06277,-2.14052 0.77163,1.05186 2.25316,1.7765 3.29229,1.61031 1.09261,-0.17474 2.34406,0.54752 2.96768,1.71276 0.63632,1.18898 1.68463,1.78229 2.55736,1.44739 0.81345,-0.31215 1.24925,-0.9393 0.96843,-1.39367 -0.28081,-0.45436 -0.0459,-1.1133 0.52206,-1.46431 0.56794,-0.35101 0.76691,-1.1696 0.44215,-1.8191 -0.32475,-0.64949 0.047,-0.40441 0.82604,0.54462 1.25059,1.52343 1.63993,1.55643 3.32415,0.28181 1.04922,-0.79405 2.69516,-1.45803 3.65766,-1.47553 0.9625,-0.0175 1.75,-0.69268 1.75,-1.50042 0,-0.89459 0.58629,-1.24363 1.5,-0.89301 1.59954,0.6138 2.11405,4.36163 0.59878,4.36163 -0.49568,0 -1.77385,1.47899 -2.8404,3.28665 -1.67528,2.83939 -1.76905,3.68989 -0.68909,6.25 4.7526,11.26626 6.43071,15.84057 6.43071,17.52926 0,1.06375 0.43266,1.93409 0.96146,1.93409 0.5288,0 1.4418,1.9125 2.02888,4.25 0.58709,2.3375 1.67748,5.375 2.42308,6.75 2.01546,3.71678 2.52397,7.21787 3.05007,21 0.72251,18.92704 -2.74384,36.66481 -9.28254,47.5 -2.94243,4.87587 -9.15006,11.5 -10.77691,11.5 -2.04671,0 -2.384,2.80371 -0.79485,6.60709 1.08362,2.59346 1.21709,3.96663 0.45921,4.72451 -1.53143,1.53143 -1.3187,4.6684 0.31659,4.6684 0.76174,0 2.18094,-1.21478 3.15377,-2.69951 1.63994,-2.50285 1.6517,-2.90351 0.16152,-5.5 -0.88399,-1.54027 -1.17819,-2.80049 -0.65377,-2.80049 0.52442,0 0.95349,0.45 0.95349,1 0,0.55 0.697,1 1.54889,1 0.85189,0 2.37923,1.85462 3.39409,4.12138 1.62539,3.63042 1.92512,3.86957 2.51609,2.00759 0.36898,-1.16258 2.41689,-4.32264 4.5509,-7.02237 4.81774,-6.0949 7.99003,-11.92138 7.99003,-14.67512 0,-1.15398 0.3084,-2.40655 0.68534,-2.78348 1.66657,-1.66657 3.18953,-8.09385 2.2003,-9.2858 -0.70939,-0.85475 -0.5527,-1.94069 0.51516,-3.57046 0.84403,-1.28816 1.81967,-4.58077 2.16808,-7.31692 0.34841,-2.73615 0.86393,-6.70133 1.1456,-8.81152 0.29138,-2.1829 0.0322,-4.31658 -0.60118,-4.95 -1.23541,-1.23541 -1.37025,-6.20312 -0.24592,-9.06025 1.30778,-3.32331 3.48423,0.88664 3.70905,7.1745 0.25467,7.12257 0.17104,6.90006 1.77093,4.71209 1.67528,-2.29109 3.19767,-0.42656 1.79369,2.1968 -1.26924,2.3716 2.71925,10.91308 4.86762,10.42419 0.82023,-0.18666 2.50455,-0.44988 3.74293,-0.58494 3.43951,-0.37511 3.58344,-1.11113 0.80378,-4.11043 -4.42872,-4.77867 -2.8461,-8.50371 3.40078,-8.00449 1.90089,0.15191 3.64711,0.89788 3.88049,1.65771 0.80065,2.60676 3.47494,4.88152 5.73888,4.88152 2.47358,0 3.16003,-1.81942 3.97778,-10.54301 0.77164,-8.23168 2.6389,-7.518 2.84342,1.08677 0.15309,6.44122 1.58432,7.93572 6.20755,6.48198 1.59265,-0.50079 5.14572,-1.40472 7.89572,-2.00872 8.90085,-1.95495 12.89884,-3.10314 14.00672,-4.02259 0.597,-0.49547 1.96471,-0.89732 3.03937,-0.89301 3.23433,0.013 9.76234,-1.66406 12.95391,-3.32785 1.65,-0.86015 5.025,-2.10295 7.5,-2.76177 4.78541,-1.27383 8.30237,-3.71354 7.4174,-5.14545 -0.51731,-0.83703 4.98537,-1.44793 9.0826,-1.00833 1.1,0.11802 2.675,0.2603 3.5,0.31619 1.72464,0.11682 17.75903,-3.3192 29.5,-6.32158 10.48258,-2.68058 16.2131,-3.90185 20.5,-4.36889 1.925,-0.20972 6.65,-0.86018 10.5,-1.44548 3.85,-0.58529 8.03643,-1.0614 9.30317,-1.05801 1.26674,0.003 4.06132,-0.89079 6.21016,-1.98705 2.14885,-1.09626 4.98078,-1.9932 6.29319,-1.9932 1.31241,0 3.82036,-0.71545 5.57322,-1.58989 1.75285,-0.87444 4.85949,-1.67123 6.90363,-1.77064 2.04415,-0.0994 4.78081,-0.77746 6.08147,-1.50676 1.30066,-0.7293 3.68298,-1.13254 5.29403,-0.89609 1.61105,0.23646 3.16093,0.0549 3.44418,-0.40335 0.28324,-0.4583 1.85426,-0.83327 3.49115,-0.83327 1.63689,0 3.97283,-0.64824 5.19098,-1.44054 1.21815,-0.7923 4.28897,-1.68612 6.82405,-1.98627 2.53507,-0.30015 5.91007,-1.22413 7.5,-2.0533 1.58992,-0.82916 3.49776,-1.51034 4.23964,-1.51373 0.74188,-0.003 2.89547,-0.74007 4.78576,-1.63707 1.89029,-0.897 3.7006,-1.36719 4.02292,-1.04487 0.32232,0.32232 2.76027,-0.51573 5.41766,-1.86233 4.04956,-2.05207 4.93893,-3.02036 5.49456,-5.98211 1.09945,-5.86057 1.01575,-21.28356 -0.12171,-22.42658 -0.73886,-0.74247 -3.41747,-0.46388 -9,0.93605 -11.73868,2.9437 -22.44806,4.81168 -22.44806,3.91551 0,-1.40395 2.24878,-2.23453 9.4397,-3.48652 3.88316,-0.67609 10.62987,-2.17804 14.99267,-3.33768 8.79918,-2.33882 9.08701,-2.22751 10.13481,3.91944 0.93175,5.46611 1.12072,5.6854 2.31362,2.6849 1.56026,-3.92448 1.37741,-12.26233 -0.39718,-18.1123 -1.52945,-5.04183 -4.15838,-8.89165 -5.50396,-8.06003 -1.20713,0.74605 -2.66598,-1.71888 -3.38718,-5.7231 l -0.6683,-3.71053 5.06036,-0.67128 c 2.78319,-0.3692 5.30181,-1.06196 5.59692,-1.53947 0.29512,-0.4775 1.52252,-0.8782 2.72756,-0.89043 2.1542,-0.0219 2.14901,-0.0559 -0.30902,-2.02705 -1.7322,-1.3891 -3.6517,-1.91161 -6.25,-1.70134 -4.01432,0.32487 -4.62916,-0.27484 -2.28032,-2.22421 2.09198,-1.73618 19.22982,-5.98126 24.2433,-6.00512 4.39944,-0.0209 13.65596,3.12 16.35561,5.54979 1.35396,1.21862 2.14217,1.18649 5.7604,-0.23479 3.35947,-1.31964 4.69736,-1.41625 6.7378,-0.48656 3.01607,1.37421 2.20505,3.56205 -1.02035,2.75253 -2.64659,-0.66425 -7.53544,3.66972 -5.53451,4.90636 0.63928,0.3951 1.66313,0.21757 2.2752,-0.3945 2.31611,-2.31611 5.29133,-1.21887 7.15073,2.63713 1.93946,4.02205 4.56214,15.11736 4.56214,19.30026 0,4.58309 -2.21467,7.93333 -5.25,7.94194 -2.08073,0.006 -2.75,0.49454 -2.75,2.0078 0,2.95986 6.31389,2.81764 8.4203,-0.18967 0.84353,-1.20431 1.78229,-1.94108 2.08612,-1.63725 1.01872,1.01873 -5.28352,6.82692 -7.40763,6.82692 -1.15433,0 -2.09879,0.38707 -2.09879,0.86015 0,0.47309 1.75372,4.65608 3.89716,9.29554 7.6539,16.56683 19.59149,56.62396 23.0497,77.34431 6.43659,38.56577 7.42053,59.55423 4.5239,96.5 -1.81323,23.12727 -2.05433,58.88068 -0.48216,71.5 5.16424,41.45172 17.08964,89.5 22.21355,89.5 0.42401,0 2.29669,-1.66489 4.16151,-3.69975 3.37024,-3.67758 3.44283,-3.7011 12.1075,-3.92282 4.79431,-0.12269 11.03711,-0.76277 13.87288,-1.42241 7.07684,-1.64616 16.91528,-6.92415 25.17277,-13.50436 18.2547,-14.54672 50.64353,-25.43921 75.66809,-25.44747 10.59641,-0.003 13.5531,0.72584 16.71907,4.12411 3.19324,3.42754 2.74705,5.04418 -0.89123,3.22917 -1.643,-0.81964 -3.4997,-1.17355 -4.126,-0.78647 -0.6263,0.38707 -3.89453,0.88206 -7.26274,1.09997 -7.65699,0.49536 -16.98,3.0369 -19.65704,5.35869 -1.11992,0.97129 -2.80813,1.57099 -3.75159,1.33265 -0.94345,-0.23833 -2.90451,0.68124 -4.35789,2.04349 -1.45339,1.36225 -2.86336,2.25599 -3.13326,1.98608 -0.26991,-0.2699 -2.79957,-0.18446 -5.62147,0.18988 -4.37677,0.5806 -4.95053,0.89773 -3.90448,2.15814 0.99533,1.1993 0.85674,1.73318 -0.73602,2.83521 -1.07924,0.74672 -2.52475,1.84077 -3.21225,2.43121 -0.6875,0.59044 -1.25,0.75235 -1.25,0.35979 0,-0.39255 -1.19756,0.3772 -2.66125,1.71058 -1.46369,1.33337 -2.33713,1.86181 -1.94098,1.17431 0.5129,-0.89012 -0.20506,-1.25 -2.49374,-1.25 -3.1106,0 -3.15787,0.062 -1.46927,1.92791 1.67984,1.85621 1.62274,1.991 -1.53545,3.62416 -2.99873,1.5507 -3.13001,1.80607 -1.52991,2.97609 1.36446,0.99772 1.46528,1.45598 0.45735,2.07891 -1.70024,1.05081 -10.04772,1.35395 -11.32675,0.41133 -2.15312,-1.5868 -7.42817,-1.96882 -8.21789,-0.59513 -0.43016,0.74823 -2.96088,2.57159 -5.62382,4.05191 -4.17328,2.31991 -5.22191,2.534 -7.59569,1.55075 -2.24125,-0.92836 -3.4437,-0.81184 -6.45854,0.62584 -2.93591,1.40004 -4.09139,1.52498 -5.56902,0.60218 -1.46572,-0.91535 -2.11621,-0.86107 -3.04147,0.2538 -1.01247,1.21995 -1.50913,1.20055 -3.55323,-0.1388 -3.33476,-2.18501 -4.96429,-1.30847 -2.49495,1.34206 3.00701,3.22765 7.75985,15.97309 8.50697,22.81271 1.06901,9.78639 1.50957,11.23413 2.87913,9.46132 0.64268,-0.8319 2.42731,-2.31818 3.96583,-3.30285 3.76445,-2.40928 21.6811,-9.68219 23.85185,-9.68219 0.95304,0 2.01091,-0.45 2.35083,-1 0.33992,-0.55 1.50255,-1 2.58364,-1 1.25337,0 2.92775,-1.59291 4.62093,-4.39609 2.31223,-3.82805 2.89446,-4.248 4.5059,-3.25 1.42184,0.88058 2.03516,0.84962 2.64742,-0.13362 0.61518,-0.98793 1.40401,-0.80212 3.45983,0.81499 1.46463,1.15208 3.16552,1.78409 3.77976,1.40448 0.75551,-0.46693 0.89982,-0.007 0.44612,1.42288 -0.5878,1.85199 -0.32196,2.0725 2.15137,1.78452 3.01615,-0.35118 7.30503,-2.6337 7.30503,-3.88771 0,-0.4177 1.5382,-0.75945 3.41821,-0.75945 1.88002,0 4.24252,-0.32515 5.25,-0.72255 1.50163,-0.59233 1.29107,-0.8194 -1.16821,-1.25982 -3.92976,-0.70378 -3.37645,-2.51763 0.76798,-2.51763 1.77761,0 3.79855,-0.36655 4.49097,-0.81455 0.69242,-0.448 2.1502,-0.53167 3.2395,-0.18594 1.1304,0.35877 2.93907,-0.0428 4.21356,-0.93545 1.22815,-0.86023 3.19719,-1.56406 4.37564,-1.56406 1.17845,0 3.29687,-0.90792 4.7076,-2.0176 1.55295,-1.22155 2.81088,-1.61969 3.18825,-1.0091 0.35137,0.56852 2.38722,-0.62355 4.66648,-2.7324 2.22376,-2.05749 4.40346,-3.7409 4.84378,-3.7409 1.52152,0 9.00624,-6.59872 9.00624,-7.94013 0,-0.74024 0.675,-1.60491 1.5,-1.9215 0.825,-0.31658 1.5,-1.26472 1.5,-2.10699 0,-0.84226 0.42011,-1.53138 0.93358,-1.53138 0.51347,0 1.12104,-1.2375 1.35017,-2.75 0.29849,-1.97042 0.45906,-1.56691 0.56642,1.4234 0.12133,3.37954 -0.53257,5.0674 -3.43755,8.87313 -1.97306,2.58485 -4.78556,5.78135 -6.25,7.10333 -3.9787,3.59166 -19.902,12.88104 -30.55646,17.82611 -13.30561,6.17555 -29.76504,10.25575 -46.60616,11.5534 -5.775,0.44497 -11.85,1.32368 -13.5,1.95268 -6.72376,2.56318 -12.31763,5.69436 -18.0924,10.12726 -7.43797,5.70963 -15.1289,7.88998 -21.30447,6.03974 -3.51856,-1.05419 -4.41364,-0.91056 -9.14978,1.46827 -7.43889,3.73635 -16.1599,4.24205 -21.20335,1.22951 z m 0.8628,-47.89399 c -1.98704,-3.97185 -3.63166,-8.17359 -3.65472,-9.3372 -0.0356,-1.79688 -3.79594,-10.06295 -3.91616,-8.60861 -0.0231,0.27887 1.0328,4.32887 2.34635,9 3.14725,11.192 6.48205,18.52265 7.81831,17.18639 0.69202,-0.69202 -0.1403,-3.33635 -2.59378,-8.24058 z M 258.85884,491.21531 c -1.29042,-1.16674 -8.47484,-2.0492 -7.80052,-0.95814 0.31978,0.51743 1.65331,0.94077 2.96339,0.94077 1.31008,0 2.66462,0.45734 3.01008,1.01631 0.34546,0.55897 1.08623,0.73318 1.64615,0.38713 0.55992,-0.34604 0.64133,-0.96978 0.1809,-1.38607 z m -4.33713,-4.51737 c 1.05515,-1.27137 0.82652,-1.5 -1.5,-1.5 -2.32652,0 -2.55515,0.22863 -1.5,1.5 0.68469,0.825 1.35969,1.5 1.5,1.5 0.14031,0 0.81531,-0.675 1.5,-1.5 z m 221,-11.44098 c 0,-0.51754 -0.45,-1.2191 -1,-1.55902 -0.55,-0.33992 -1,0.0835 -1,0.94098 0,0.85746 0.45,1.55902 1,1.55902 0.55,0 1,-0.42344 1,-0.94098 z m -257,-13.5 c 0,-0.24254 -0.45,-0.7191 -1,-1.05902 -0.55,-0.33992 -1,-0.14148 -1,0.44098 0,0.58246 0.45,1.05902 1,1.05902 0.55,0 1,-0.19844 1,-0.44098 z m -22.81667,-4.77569 c -0.71756,-0.71756 -1.18333,-0.7766 -1.18333,-0.15 0,1.33478 1.18261,2.51739 1.85,1.85 0.28417,-0.28416 -0.0158,-1.04916 -0.66667,-1.7 z m 17.16175,-1.32646 c -0.32569,-0.84872 -0.80663,-1.32866 -1.06875,-1.06653 -0.26213,0.26213 -0.17998,0.95654 0.18255,1.54313 0.98605,1.59546 1.56238,1.28551 0.8862,-0.4766 z m 8.15492,0.54313 c -0.33992,-0.55 -1.06803,-1 -1.61803,-1 -0.55,0 -0.72189,0.45 -0.38197,1 0.33992,0.55 1.06803,1 1.61803,1 0.55,0 0.72189,-0.45 0.38197,-1 z m -10.47019,-4.94431 c -1.07417,-2.0071 -3.02981,-3.65237 -3.02981,-2.54897 0,1.37387 2.13157,4.49328 3.07037,4.49328 0.65276,0 0.63867,-0.67514 -0.0406,-1.94431 z m 17.97019,-4.05569 c 0,-0.55 -0.19844,-1 -0.44098,-1 -0.24254,0 -0.7191,0.45 -1.05902,1 -0.33992,0.55 -0.14148,1 0.44098,1 0.58246,0 1.05902,-0.45 1.05902,-1 z m 155.5746,-0.87929 c -0.29889,-0.48361 -1.47616,-1.12321 -2.61617,-1.42133 -1.70185,-0.44504 -1.86166,-0.28771 -0.89314,0.87929 1.26442,1.52353 4.41683,2.01044 3.50931,0.54204 z m -231.0746,-6.89469 c 0.55,-0.40885 2.09094,-1.97695 3.42431,-3.48469 3.47485,-3.92924 0.74078,-3.38701 -3.689,0.73161 -2.26897,2.1096 -3.14647,3.47756 -2.23531,3.48469 0.825,0.006 1.95,-0.32277 2.5,-0.73161 z m 47.5,-3.34265 c 0,-0.62755 0.8837,-0.88554 2.01759,-0.58902 1.10968,0.29019 2.65253,-0.10733 3.42857,-0.88337 0.77604,-0.77604 1.89313,-1.41098 2.48241,-1.41098 1.51006,0 1.33208,-1.0545 -0.52418,-3.10564 -1.08213,-1.19575 -1.68941,-4.11731 -1.88712,-9.07874 -0.23023,-5.77776 -0.63056,-7.38359 -1.90439,-7.63894 -1.31438,-0.26349 -1.61288,0.61559 -1.61288,4.75 0,6.13651 -1.76025,6.79752 -2.1925,0.82332 -0.38943,-5.38241 -2.24974,-5.56975 -2.48255,-0.25 -0.0963,2.2 -0.43028,6.966 -0.74222,10.59112 -0.31194,3.62511 -0.27066,6.88761 0.0917,7.25 1.06572,1.06572 3.32555,0.75466 3.32555,-0.45775 z m 0,-7.94239 c 0,-1.13246 0.45,-1.7809 1,-1.44098 0.55,0.33992 1,1.26648 1,2.05902 0,0.79254 -0.45,1.44098 -1,1.44098 -0.55,0 -1,-0.92656 -1,-2.05902 z m 161,-0.38196 c 0,-0.24254 -0.45,-0.7191 -1,-1.05902 -0.55,-0.33992 -1,-0.14148 -1,0.44098 0,0.58246 0.45,1.05902 1,1.05902 0.55,0 1,-0.19844 1,-0.44098 z m 8.8925,-4.27181 c -0.76587,-0.96862 -1.72322,-2.21699 -2.12743,-2.77417 -0.4042,-0.55717 -1.8667,-2.428 -3.25,-4.1574 -1.38329,-1.72939 -2.51507,-3.45841 -2.51507,-3.84227 0,-0.38385 -0.9558,-1.89389 -2.124,-3.35564 l -2.124,-2.65773 0.74228,2.5 c 0.40825,1.375 1.36405,3.21043 2.124,4.07874 0.75995,0.86831 1.38172,1.93086 1.38172,2.36122 0,1.23676 8.19511,10.69826 8.76914,10.12424 0.28372,-0.28373 -0.11076,-1.30837 -0.87664,-2.27699 z m 103.02474,-20.32049 c -1.07924,-6.70147 -1.48109,-7.7362 -2.5783,-6.63899 -0.59194,0.59193 1.34401,10.95252 2.42704,12.9888 1.05154,1.97706 1.10832,-0.40697 0.15126,-6.34981 z m -108.55341,4.53902 c -0.31537,-0.82184 -0.98359,-1.24074 -1.48493,-0.9309 -1.04858,0.64806 -0.20682,2.42516 1.14873,2.42516 0.50028,0 0.65157,-0.67242 0.3362,-1.49426 z m 119.68995,-12.93492 c -0.61624,-5.7236 -1.74061,-12.806 -2.49859,-15.73868 -0.75798,-2.93268 -1.68416,-7.58214 -2.05817,-10.33214 -0.83143,-6.1132 -0.957,-6.54747 -8.52999,-29.5 -7.67657,-23.26645 -16.32967,-41 -20.00599,-41 -1.45945,0 -1.15702,1.4716 0.84571,4.11514 3.14282,4.14843 8.2938,16.01516 11.66989,26.88486 1.79369,5.775 4.84873,15.02247 6.78898,20.54993 3.78014,10.76902 10.78053,38.20633 12.85288,50.37554 1.74972,10.27467 2.28691,7.19919 0.93528,-5.35465 z m -380.32732,8.82231 c -0.35211,-0.35211 -1.4345,-0.33541 -2.4053,0.0371 -1.49712,0.57449 -1.5429,0.81466 -0.30149,1.58189 1.53301,0.94746 3.8734,-0.45241 2.70679,-1.61902 z m 251.99981,-1.37355 c -1.49756,-2.13806 -1.26608,-6.01958 0.35898,-6.01958 0.46859,0 0.58279,0.70151 0.25377,1.5589 -0.37063,0.96586 0.55288,2.6843 2.42758,4.51717 l 3.02578,2.95826 1.10381,-3.16639 c 1.51288,-4.33983 1.42296,-4.81433 -1.08833,-5.74332 -1.21202,-0.44835 -2.72726,-2.33416 -3.38896,-4.21777 -1.17791,-3.35303 -1.21153,-3.36924 -2.12836,-1.02594 -0.67942,1.73653 -0.93846,-0.18408 -0.95711,-7.09643 -0.0282,-10.43082 -0.6335,-12.61026 -2.96511,-10.6752 -1.12286,0.9319 -1.3557,3.03621 -1.02328,9.248 0.44579,8.33039 -0.41286,11.87852 -3.57194,14.76002 -2.5552,2.33067 -2.21245,3.32205 1.62871,4.71103 1.87099,0.67656 3.96692,1.91103 4.65761,2.74327 1.96843,2.37181 3.48706,0.0467 1.66685,-2.55202 z m 27.69362,0.8508 c -0.7889,-1.27647 -2.41989,-0.0558 -2.41989,1.81108 0,1.27119 0.27832,1.33244 1.48899,0.32768 0.81894,-0.67967 1.23785,-1.64211 0.9309,-2.13876 z m -265.41989,0.12962 c 0,-0.55 -0.19844,-1 -0.44098,-1 -0.24254,0 -0.7191,0.45 -1.05902,1 -0.33992,0.55 -0.14148,1 0.44098,1 0.58246,0 1.05902,-0.45 1.05902,-1 z m -20.191658,-2.075 c -0.19709,-0.59125 -0.78584,-1.075 -1.30834,-1.075 -0.5225,0 -1.11125,0.48375 -1.30833,1.075 -0.19708,0.59125 0.39166,1.075 1.30833,1.075 0.91667,0 1.50542,-0.48375 1.30834,-1.075 z m 14.441658,-1.58728 c -0.6875,-0.27741 -1.8125,-0.27741 -2.5,0 -0.6875,0.27741 -0.125,0.50439 1.25,0.50439 1.375,0 1.9375,-0.22698 1.25,-0.50439 z m -19.749998,-1.33772 c -0.33992,-0.55 -1.06803,-1 -1.61803,-1 -0.55,0 -0.72189,0.45 -0.38197,1 0.33992,0.55 1.06804,1 1.61804,1 0.55,0 0.72188,-0.45 0.38196,-1 z m 9.041118,-5.06653 c 0.94392,-1.52729 0.19643,-1.9391 -2.323538,-1.28012 -1.2073,0.31572 -1.94859,0.97287 -1.64731,1.46034 0.7557,1.22275 3.171528,1.11311 3.970848,-0.18022 z m 15.45888,-0.54046 c 0,-0.21615 -0.675,-0.39301 -1.5,-0.39301 -0.825,0 -1.5,0.43588 -1.5,0.96862 0,0.53273 0.675,0.70959 1.5,0.39301 0.825,-0.31659 1.5,-0.75246 1.5,-0.96862 z m 178,0.60699 c 0,-0.55 -0.47656,-1 -1.05902,-1 -0.58246,0 -0.7809,0.45 -0.44098,1 0.33992,0.55 0.81648,1 1.05902,1 0.24254,0 0.44098,-0.45 0.44098,-1 z M 469.4936,382.64586 c -1.11775,-4.92136 -2.51544,-11.19792 -3.10598,-13.94792 -0.59053,-2.75 -2.87144,-10.4 -5.06869,-17 -2.19725,-6.6 -4.18609,-12.62691 -4.41965,-13.39313 -0.23355,-0.76622 -0.67024,-1.14753 -0.97042,-0.84735 -0.54229,0.54228 1.06618,7.41418 2.63099,11.24048 0.44986,1.1 1.11558,3.8 1.47938,6 0.3638,2.2 0.99566,4.45 1.40413,5 0.40847,0.55 1.32885,3.7 2.04529,7 0.71643,3.3 1.86602,7.8 2.55464,10 0.68862,2.2 1.57942,6.475 1.97956,9.5 0.83063,6.27947 1.35603,7.54283 2.61381,6.28505 0.51895,-0.51895 0.043,-4.61506 -1.14306,-9.83713 z m -179.47189,8.55208 c 0.33992,-0.55 0.14148,-1 -0.44098,-1 -0.58246,0 -1.05902,0.45 -1.05902,1 0,0.55 0.19844,1 0.44098,1 0.24254,0 0.7191,-0.45 1.05902,-1 z m -194.074838,-2.1211 c -0.64806,-1.04858 -2.42516,-0.20682 -2.42516,1.14873 0,0.50028 0.67242,0.65157 1.49426,0.3362 0.82184,-0.31537 1.24075,-0.98359 0.9309,-1.48493 z m 14.324708,-0.46237 c -0.95296,-0.95296 -2.8635,0.5906 -2.15331,1.7397 0.42212,0.683 0.98146,0.66575 1.69964,-0.0524 0.58876,-0.58876 0.79291,-1.34803 0.45367,-1.68727 z m 16.30295,0.0835 c -0.0784,-1.48429 -2.31562,-1.2116 -2.83465,0.3455 -0.28038,0.84112 0.17677,1.21599 1.21948,1 0.9174,-0.19002 1.64422,-0.7955 1.61517,-1.3455 z m -36.819508,-2.6667 c -1.06116,-1.06115 -4.44862,0.009 -3.72657,1.1776 0.27239,0.44074 1.42455,0.55832 2.56035,0.26131 1.22183,-0.31952 1.69804,-0.90708 1.16622,-1.43891 z m 14.766688,-0.95133 c 0,-0.55 -0.45,-0.72189 -1,-0.38197 -0.55,0.33992 -1,1.06803 -1,1.61803 0,0.55 0.45,0.72189 1,0.38197 0.55,-0.33992 1,-1.06803 1,-1.61803 z m 16.45729,1.18713 c 0.31644,-0.512 0.0964,-1.22687 -0.48887,-1.58861 -1.47996,-0.91467 -4.23206,0.28391 -3.47279,1.51245 0.7816,1.26464 3.19842,1.31111 3.96166,0.0762 z m 238.54271,-2.0691 c 0,-0.55 -0.47656,-1 -1.05902,-1 -0.58246,0 -0.7809,0.45 -0.44098,1 0.33992,0.55 0.81648,1 1.05902,1 0.24254,0 0.44098,-0.45 0.44098,-1 z M 98.062832,383.13144 c 0.92034,-1.48915 -0.14672,-2.29879 -2.06137,-1.56407 -0.88358,0.33906 -1.32643,1.06965 -0.98411,1.62354 0.81057,1.31154 2.2151,1.28411 3.04548,-0.0595 z m 16.789718,-1.51369 c -0.39835,-1.03809 -1.01176,-1.12573 -2.45881,-0.35129 -2.37305,1.27002 -1.58681,2.93119 1.05977,2.23909 1.13332,-0.29637 1.71075,-1.07552 1.39904,-1.8878 z m 14.74416,0.30522 c -0.12369,-1.1957 -1.49529,-0.96414 -1.925,0.325 -0.22,0.66 0.14,1.02 0.8,0.8 0.66,-0.22 1.16625,-0.72625 1.125,-1.125 z m 25.38229,0.3441 c 0.31644,-0.512 0.11799,-1.21356 -0.44098,-1.55902 -0.55897,-0.34546 -1.01631,0.0734 -1.01631,0.9309 0,1.75653 0.60006,2.01516 1.45729,0.62812 z m -60.584838,-1.99479 c 0.20484,-0.0409 -0.17991,-0.73985 -0.85501,-1.5533 -0.91932,-1.10771 -1.71018,-1.22063 -3.15045,-0.44982 -1.05765,0.56603 -1.66273,1.45029 -1.34461,1.96502 0.48426,0.78354 1.57495,0.79131 5.35007,0.0381 z m 14.391978,-0.67208 c 0.32877,-0.32877 0.35879,-1.22053 0.0667,-1.98168 -0.39863,-1.03882 -1.01185,-1.12661 -2.4591,-0.35206 -1.06043,0.56752 -1.66389,1.45928 -1.34103,1.98168 0.65709,1.0632 2.81848,1.26702 3.73343,0.35206 z m 14.73557,-1.46125 c 0,-0.51754 -0.675,-0.94098 -1.5,-0.94098 -1.54641,0 -1.9867,1.17996 -0.86052,2.30615 0.79893,0.79893 2.36052,-0.10419 2.36052,-1.36517 z m -43.294688,-3.94098 c 0.80375,0 1.26953,-0.5625 1.03507,-1.25 -0.23446,-0.6875 -1.39732,-1.10915 -2.58413,-0.93701 -1.57091,0.22786 -2.43548,-0.41723 -3.17854,-2.37163 -1.73584,-4.56559 2.26977,-7.47724 4.77277,-3.4693 0.6857,1.09798 1.86792,1.72787 2.66728,1.42112 0.88794,-0.34073 1.97978,0.48746 2.86173,2.17071 0.90802,1.73303 1.68255,2.30654 2.13228,1.57888 1.13189,-1.83144 2.42314,-1.33596 3.90904,1.5 0.84226,1.60751 1.65078,2.21221 2.06397,1.54367 0.3736,-0.6045 1.3855,-0.82809 2.24867,-0.49686 1.14881,0.44084 1.46424,0.0941 1.17699,-1.29367 -0.26485,-1.27961 -1.1194,-1.8169 -2.62881,-1.65285 -1.61775,0.17583 -2.51574,-0.49163 -3.24618,-2.41284 -0.76745,-2.01855 -1.28882,-2.37685 -2.17261,-1.49306 -1.77246,1.77246 -2.71706,1.41345 -3.80416,-1.44585 -0.80779,-2.12464 -1.25895,-2.387 -2.43145,-1.41391 -1.68607,1.39932 -3.52723,0.55586 -3.52723,-1.61587 0,-1.16492 -0.69284,-1.36827 -2.96304,-0.86965 -2.59164,0.56922 -3.04387,0.32877 -3.60785,-1.91831 -1.24809,-4.97278 2.28869,-7.83791 4.52262,-3.66377 0.68653,1.28279 1.69892,1.73281 3.08361,1.37071 2.80858,-0.73446 2.13298,-3.8808 -0.74688,-3.47834 -1.3857,0.19364 -2.5691,-0.45804 -3.29509,-1.81457 -0.94661,-1.76875 -1.38577,-1.90683 -2.67132,-0.83991 -1.276,1.05898 -1.77592,0.95209 -2.93026,-0.62657 -1.73922,-2.37852 -1.78314,-4.95144 -0.10825,-6.34147 1.49832,-1.2435 3.09151,-0.41333 4.01671,2.093 0.55742,1.51003 0.95402,1.58551 2.67706,0.50945 2.7218,-1.6998 2.79121,-4.26376 0.0761,-2.81067 -1.53112,0.81942 -2.15644,0.66685 -2.92966,-0.71482 -0.60474,-1.08061 -2.1646,-1.75661 -4.05339,-1.75661 -3.04206,0 -3.07034,0.049 -3.07034,5.31574 0,2.92366 0.46903,6.19212 1.04228,7.26325 0.66224,1.23741 0.7018,2.5559 0.1085,3.61607 -1.02662,1.83447 -0.11231,4.96657 4.32184,14.80494 2.66353,5.90976 2.72726,5.96616 4.23776,3.75 0.84346,-1.2375 2.19118,-2.25 2.99493,-2.25 z m 22.785108,-0.0155 c -0.91834,-1.48591 -4.490418,0.22852 -4.490418,2.15518 0,1.80192 0.13658,1.81694 2.491418,0.27399 1.37027,-0.89784 2.26982,-1.99097 1.999,-2.42917 z m -15.682078,1.9405 c -0.19709,-0.59125 -0.78584,-1.075 -1.30834,-1.075 -0.5225,0 -1.11125,0.48375 -1.30833,1.075 -0.19708,0.59125 0.39166,1.075 1.30833,1.075 0.91667,0 1.50542,-0.48375 1.30834,-1.075 z m 31.191658,-0.87496 c 0,-1.52606 -1.34386,-1.93638 -3.15949,-0.96468 -1.04309,0.55824 -1.65847,1.40016 -1.36752,1.87093 0.60177,0.97369 4.52701,0.1879 4.52701,-0.90625 z m 15.46732,-1.10292 c -0.36687,-0.59361 -1.32999,-0.5558 -2.55602,0.10035 -1.08202,0.57908 -1.7024,1.48152 -1.37862,2.00541 0.36687,0.59361 1.32999,0.5558 2.55602,-0.10035 1.08202,-0.57908 1.7024,-1.48152 1.37862,-2.00541 z m -7.01003,-1.87802 c 0.73955,-1.1966 -1.14162,-2.38223 -2.4736,-1.55902 -1.11836,0.69118 -0.38417,2.48992 1.01631,2.48992 0.48508,0 1.14086,-0.41891 1.45729,-0.9309 z m -5.11718,-5.12899 c -0.48103,-0.48103 -1.88883,-0.60938 -3.12843,-0.28521 -1.76409,0.46131 -2.00914,0.88422 -1.12775,1.94623 0.84829,1.02213 1.62003,1.09249 3.12843,0.28522 1.14352,-0.61199 1.62723,-1.44676 1.12775,-1.94624 z m 14.65989,0.41772 c 0,-1.12489 -0.43068,-1.1977 -2.02801,-0.34284 -1.1154,0.59695 -1.77599,1.49313 -1.46797,1.99151 0.80779,1.30704 3.49598,0.0393 3.49598,-1.64867 z m -5,-2.30779 c 0,-1.30017 -1.17326,-1.92079 -2.59777,-1.37415 -2.23482,0.85758 -1.696,3.21369 0.59777,2.61386 1.1,-0.28766 2,-0.84553 2,-1.23971 z m -6.35114,-4.54222 c -0.19599,-0.5543 -1.20966,-0.85254 -2.2526,-0.66275 -2.50522,0.45588 -2.7549,0.77794 -2.04249,2.63445 0.50287,1.31045 0.93109,1.35953 2.62614,0.30095 1.11392,-0.69565 1.86495,-1.71834 1.66895,-2.27265 z m 12.03425,0.30468 c -0.31922,-0.79773 -0.55618,-0.56078 -0.60416,0.60417 -0.0434,1.05416 0.19292,1.64479 0.52522,1.3125 0.33229,-0.33229 0.36781,-1.1948 0.0789,-1.91667 z m -2.60894,-3.11201 c -0.0408,-0.38527 -0.0742,-1.16632 -0.0742,-1.73567 0,-0.70672 -0.60216,-0.71292 -1.89778,-0.0195 -1.53904,0.82367 -2.20711,0.54358 -3.53414,-1.48173 -1.36098,-2.07712 -1.97189,-2.31782 -3.63022,-1.4303 -2.43625,1.30384 -1.51344,3.2842 1.1382,2.4426 1.3908,-0.44142 2.21473,0.0683 3.04064,1.88093 0.86412,1.89653 1.59538,2.31535 3.08226,1.76531 1.07216,-0.39661 1.916,-1.03634 1.87521,-1.42161 z m 1.92583,-7.25951 c 0,-0.85746 -0.45,-1.2809 -1,-0.94098 -0.55,0.33992 -1,1.04148 -1,1.55902 0,0.51754 0.45,0.94098 1,0.94098 0.55,0 1,-0.70156 1,-1.55902 z m -50.107498,-1.04104 c 1.03248,-0.9249 -2.20273,-3.13157 -3.92927,-2.68007 -1.94654,0.50903 -2.58918,2.32085 -1.28556,3.62446 0.6063,0.6063 4.21289,-0.0468 5.21483,-0.94439 z M 131.44782,347.787 c 0.71571,-0.86238 0.79841,-1.64125 0.21269,-2.00325 -1.43613,-0.88757 -4.1388,0.43229 -4.1388,2.02121 0,1.80578 2.42174,1.7947 3.92611,-0.018 z m -4.92611,-4.20566 c 0,-0.87041 -1.11241,-1.38337 -3,-1.38337 -1.94539,0 -3,-0.50656 -3,-1.44098 0,-2.31419 -1.82278,-2.79656 -4.22075,-1.11695 -2.18711,1.53191 -1.85551,1.93926 1.33016,1.63404 0.88518,-0.0848 2.33297,0.9501 3.21731,2.29978 1.72229,2.62854 5.67328,2.63375 5.67328,0.007 z m 7.7336,-3.9831 c -1.23391,-1.23392 -3.71353,0.48846 -3.08,2.13942 0.56054,1.46073 0.76864,1.46664 2.17362,0.0617 0.85455,-0.85455 1.26243,-1.84504 0.90638,-2.20108 z m -5.28314,-1.64159 c 0.42154,0.40772 0.59404,-0.15868 0.38334,-1.25868 -0.26674,-1.39251 -1.03987,-1.90822 -2.54535,-1.69783 -1.34269,0.18764 -2.56023,-0.44148 -3.21226,-1.65981 -1.13837,-2.12707 -5.07619,-1.88845 -5.07619,0.3076 0,2.00146 1.14877,2.54079 3.14093,1.47461 1.55685,-0.8332 2.05018,-0.55211 2.88509,1.64388 0.77861,2.04787 1.30787,2.39933 2.33256,1.54892 0.72899,-0.60501 1.67034,-0.76642 2.09188,-0.35869 z m -57.919418,-5.70846 c -0.36808,-0.59556 -1.13618,-0.79425 -1.7069,-0.44153 -0.67187,0.41524 -0.56959,0.93059 0.29014,1.46194 1.60476,0.99179 2.33522,0.46569 1.41676,-1.02041 z m 61.319098,-1.70072 c 0.19257,-0.11904 0.0657,-0.67672 -0.28203,-1.23929 -1.00302,-1.62292 -3.56811,-0.0994 -3.56811,2.11922 0,1.7631 0.21912,1.84774 1.75,0.67598 0.9625,-0.73671 1.90756,-1.43687 2.10014,-1.55591 z m -6.11115,-3.61851 c 0.68144,-0.52668 0.99808,-1.3474 0.70364,-1.82382 -0.72645,-1.17542 -4.44263,1.24402 -4.44263,2.89239 0,1.28759 1.09562,0.97447 3.73899,-1.06857 z m -52.738988,-1.69961 c 0,-0.53273 -0.675,-0.70959 -1.5,-0.39301 -0.825,0.31659 -1.5,0.75246 -1.5,0.96862 0,0.21615 0.675,0.39301 1.5,0.39301 0.825,0 1.5,-0.43588 1.5,-0.96862 z M 120.52171,322.576 c -0.48487,-0.85145 -3.93184,-0.77953 -4.81177,0.1004 -0.23942,0.23942 -0.14918,1.18094 0.20052,2.09225 0.57037,1.48636 0.8662,1.50398 2.87354,0.17116 1.23074,-0.81718 2.01271,-1.8809 1.73771,-2.36381 z m -7.12188,-1.28154 c 0.75796,-0.48009 1.09501,-1.33095 0.749,-1.89081 -0.87687,-1.4188 -4.62712,-0.27524 -4.62712,1.41095 0,1.56104 1.81632,1.78578 3.87812,0.47986 z m 16.12188,-2.12532 c 0,-0.43116 -0.9,-0.54858 -2,-0.26092 -2.04524,0.53484 -2.51209,1.44433 -1.34201,2.61441 0.72765,0.72764 3.34201,-1.11342 3.34201,-2.35349 z m -5.52304,-1.18599 c 0.40697,0.39315 0.57028,-0.18518 0.36293,-1.28518 -0.28722,-1.52369 -1.0275,-1.92342 -3.10844,-1.67843 -2.19972,0.25896 -2.73145,-0.0817 -2.73145,-1.75 0,-2.38061 -1.79625,-2.67226 -4.46036,-0.72421 -2.08922,1.52767 -0.53687,3.24929 2.03867,2.26096 0.93819,-0.36001 1.89065,0.32682 2.59405,1.87061 0.86625,1.90123 1.49248,2.23562 2.83809,1.51548 0.94962,-0.50823 2.05955,-0.60238 2.46651,-0.20923 z m 1.95301,-8.89849 c -0.85211,-1.37874 -3.42997,-1.04306 -3.42997,0.44664 0,0.73334 0.2961,1.62943 0.65799,1.99133 0.90433,0.90433 3.45253,-1.33682 2.77198,-2.43797 z m -5.53425,-1.80108 c 0.83897,-0.53123 1.12506,-1.58906 0.71721,-2.6519 -0.51713,-1.34764 -0.95609,-1.49055 -1.84571,-0.60093 -1.69569,1.69569 -2.31067,1.46465 -3.59302,-1.3498 -1.01007,-2.21686 -1.38697,-2.36705 -3.16052,-1.25945 -1.10752,0.69166 -2.01368,2.10442 -2.01368,3.13946 0,1.55226 0.26052,1.66569 1.48727,0.64758 1.8159,-1.50707 4.51273,-0.63573 4.51273,1.45805 0,1.69684 1.75208,1.97434 3.89572,0.61699 z m 387.49203,370.11289 c -3.31979,-0.47386 -7.18161,-5.24514 -7.44516,-9.1985 -0.39292,-5.89405 -0.036,-7.014 2.54873,-7.9967 3.29464,-1.25262 4.56803,-0.6378 7.25868,3.50463 2.5658,3.95021 2.71865,5.5785 0.98494,10.49207 -0.95259,2.69978 -1.71787,3.43107 -3.34719,3.1985 z M 482.24217,565.86615 c -0.39625,-1.00748 -0.67526,-3.48248 -0.62001,-5.5 l 0.10045,-3.66821 0.93009,3.97218 c 1.07134,4.57545 0.78262,8.22968 -0.41053,5.19603 z m -1.52551,-13.16821 c 0.0204,-1.65 0.2445,-2.20394 0.49804,-1.23097 0.25354,0.97297 0.23687,2.32297 -0.0371,3 -0.27393,0.67703 -0.48137,-0.11903 -0.46099,-1.76903 z m -6.04832,-6 c 0.0104,-4.61236 0.0914,-4.77989 1.04536,-2.16087 0.71473,1.96232 0.71126,3.50648 -0.0113,5 -0.87497,1.80865 -1.04352,1.34588 -1.03409,-2.83913 z m 3.85337,-0.38197 c 0,-0.55 0.45,-1.27811 1,-1.61803 0.55,-0.33992 1,-0.16803 1,0.38197 0,0.55 -0.45,1.27811 -1,1.61803 -0.55,0.33992 -1,0.16803 -1,-0.38197 z m -59.5,-88.84164 c -3.1501,-0.77431 -4.75533,-2.42106 -3.54238,-3.63401 0.57331,-0.57331 1.04238,-3.17206 1.04238,-5.77499 0,-3.76433 0.38711,-4.85548 1.89203,-5.33312 1.04062,-0.33028 2.12349,-1.4856 2.40638,-2.56739 0.58991,-2.25583 3.70159,-2.69792 3.70159,-0.5259 0,0.79254 -0.43035,1.70695 -0.95633,2.03203 -0.52598,0.32507 -0.69122,1.28188 -0.36721,2.12623 0.40142,1.0461 0.9149,1.2094 1.61172,0.51258 1.72046,-1.72046 5.67461,2.88893 5.69454,6.63818 0.01,1.7875 0.53702,3.25 1.17227,3.25 0.65499,0 0.37144,0.86581 -0.65499,2 -1.78476,1.97213 -6.9391,2.52038 -12,1.27639 z m 15.7,-1.47639 c -1.98298,-1.98298 -1.35928,-2.68571 1.2922,-1.45591 1.37071,0.63575 2.49571,1.49341 2.5,1.90591 0.0122,1.17308 -2.46282,0.87938 -3.7922,-0.45 z m -270.64113,-2.2682 c 1.06762,-0.8075 2.61613,-1.46656 3.44113,-1.46456 0.86994,0.002 0.4499,0.60392 -1,1.43276 -3.28659,1.87878 -4.91104,1.89995 -2.44113,0.0318 z m 12.44113,-10.0318 c 0.68469,-0.825 1.67193,-1.5 2.19387,-1.5 0.52194,0 0.27399,0.675 -0.55101,1.5 -0.825,0.825 -1.81225,1.5 -2.19388,1.5 -0.38163,0 -0.13367,-0.675 0.55102,-1.5 z m 232.25,-0.85991 c -3.3311,-1.64978 -2.95637,-4.03136 0.5,-3.17774 3.38316,0.83555 4.6883,2.01945 3.80385,3.45052 -0.78126,1.2641 -1.26225,1.23361 -4.30385,-0.27278 z m -122.75,-15.53238 c -3.3,-1.58988 -6.9,-3.63783 -8,-4.55099 -1.95945,-1.62662 -1.94931,-1.64651 0.5,-0.98127 3.55368,0.9652 16.80559,8.39558 15,8.41054 -0.825,0.007 -4.2,-1.28839 -7.5,-2.87828 z M 86.997872,420.15937 c -1.00796,-1.63093 1.23102,-3.65425 2.56622,-2.31905 0.72318,0.72318 0.59733,1.41175 -0.41097,2.24856 -1.07422,0.89152 -1.63646,0.90991 -2.15525,0.0705 z m -17.94436,-17.73916 c -0.32855,-0.85619 -0.16286,-1.99121 0.3682,-2.52227 1.27757,-1.27757 4.1,-0.14035 4.1,1.65198 0,2.0459 -3.73771,2.77391 -4.4682,0.87029 z m -5.5318,-11.72227 c 0,-0.82536 0.8854,-1.5 1.96862,-1.5 1.33903,0 1.78453,0.47971 1.39301,1.5 -0.31658,0.825 -1.20246,1.5 -1.96862,1.5 -0.76615,0 -1.39301,-0.675 -1.39301,-1.5 z M 172.06997,367.27603 c -0.35766,-0.57871 0.23707,-2.00467 1.32162,-3.1688 1.82682,-1.96085 2.25369,-2.0174 5.80102,-0.7685 l 3.8291,1.3481 -3.5,0.33373 c -1.925,0.18356 -4.24283,1.00287 -5.15072,1.8207 -1.08749,0.9796 -1.87261,1.12795 -2.30102,0.43477 z m -15.36911,-5.32809 c -0.48291,-1.7875 -0.71328,-3.445 -0.51192,-3.68333 0.65836,-0.77926 2.06101,1.37586 2.72271,4.18333 0.92498,3.92448 -1.14173,3.45707 -2.21079,-0.5 z m -12.51248,-6.41667 c -0.36667,-0.36666 -0.66667,-1.2825 -0.66667,-2.03518 0,-1.06494 0.44987,-1.12775 2.02801,-0.28316 1.1154,0.59695 1.76385,1.51278 1.44098,2.03518 -0.68558,1.1093 -1.85774,1.22774 -2.80232,0.28316 z m 10.87108,-7.66302 c -1.64226,-1.21679 -1.75109,-1.70832 -0.66738,-3.01411 0.72501,-0.87359 1.00881,-2.46152 0.64486,-3.60821 -0.37796,-1.19084 -0.20327,-2.04799 0.41738,-2.04799 0.58707,0 1.06739,0.64571 1.06739,1.4349 0,0.7892 0.44575,2.6073 0.99055,4.04024 0.83421,2.19415 1.29812,2.44074 2.93931,1.5624 1.36337,-0.72966 2.14727,-0.72176 2.60959,0.0263 0.87264,1.41197 0.38163,1.80445 -3.11237,2.48785 -1.8093,0.35388 -3.67642,0.0173 -4.88933,-0.88137 z m -11.53775,-0.72933 c 0,-0.58246 0.45,-0.7809 1,-0.44098 0.55,0.33992 1,0.81648 1,1.05902 0,0.24254 -0.45,0.44098 -1,0.44098 -0.55,0 -1,-0.47656 -1,-1.05902 z m 23,-1.36152 c 0,-1.29198 3.16941,-2.40238 7,-2.45244 6.61306,-0.0864 10,-2.07521 10,-5.87191 0,-1.96025 0.28565,-2.26293 1.32306,-1.40195 0.96766,0.80308 2.78089,0.72363 6.75,-0.29577 4.7267,-1.21397 10.77451,-2.52393 30.92694,-6.69879 7.84578,-1.62536 29.43954,-4.75239 29.86687,-4.32507 0.85065,0.85066 -4.93145,2.29992 -23.36687,5.85681 -10.45,2.01619 -22.375,4.52317 -26.5,5.57105 -4.125,1.04787 -9.69526,2.22 -12.37835,2.60471 -3.55534,0.50978 -5.01036,1.20434 -5.36515,2.56105 -0.30503,1.16642 -2.03086,2.27462 -4.62166,2.96768 -2.27416,0.60836 -5.16851,1.51089 -6.43189,2.00564 -3.49661,1.36928 -7.20295,1.10119 -7.20295,-0.52101 z m -17.5,-3.57946 c -0.33992,-0.55 -0.14148,-1 0.44098,-1 0.58246,0 1.05902,0.45 1.05902,1 0,0.55 -0.19844,1 -0.44098,1 -0.24254,0 -0.7191,-0.45 -1.05902,-1 z m -3.40451,-2.94098 c -0.99454,-0.61466 -1.0222,-0.98628 -0.11512,-1.54689 0.65664,-0.40582 1.64389,-0.28787 2.19389,0.26213 1.30322,1.30322 -0.37283,2.33908 -2.07877,1.28476 z m 0.44722,-7.98992 c -0.73955,-1.1966 1.14162,-2.38223 2.4736,-1.55902 1.11836,0.69118 0.38417,2.48992 -1.01631,2.48992 -0.48508,0 -1.14086,-0.41891 -1.45729,-0.9309 z m 7.14885,0.19721 c -1.12982,-1.93851 -3.74577,-12.54544 -3.22296,-13.06824 1.37867,-1.37868 4.7811,3.83767 5.25698,8.0596 0.45247,4.01432 -0.80657,7.11464 -2.03402,5.00864 z m -63.266648,-7.70947 c -0.70041,-2.79065 0.0853,-4.55684 2.02712,-4.55684 1.47599,0 2.54797,2.13802 2.54797,5.08179 0,2.9291 -3.81813,2.49101 -4.57509,-0.52495 z m 68.894668,-3.44276 c -0.27125,-1.03725 -1.46662,-2.35679 -2.65638,-2.93232 -1.9364,-0.93669 -1.77861,-1.0535 1.50501,-1.11408 4.61024,-0.0851 6.83179,-0.91862 6.83179,-2.56338 0,-0.70494 1.6875,-1.59707 3.75,-1.9825 4.96294,-0.92744 6.66008,-2.32275 5.10471,-4.19686 -0.88616,-1.06776 -0.88915,-1.6905 -0.0123,-2.56732 0.87683,-0.87683 1.15762,-0.75913 1.15762,0.48522 0,0.90356 0.94304,3.24117 2.09564,5.19468 1.94579,3.29787 1.97182,3.59936 0.36408,4.21631 -0.95236,0.36546 -2.44308,0.21565 -3.3127,-0.33289 -2.07978,-1.31189 -8.14702,2.16658 -8.14702,4.67085 0,3.22588 -5.87233,4.21242 -6.68042,1.12229 z m 116.93042,-0.80341 c 0.9625,-0.25152 2.5375,-0.25152 3.5,0 0.9625,0.25153 0.175,0.45733 -1.75,0.45733 -1.925,0 -2.7125,-0.2058 -1.75,-0.45733 z m 7.75,-1.16372 c 0,-1.17216 3.35995,-2.16068 15.5,-4.56021 20.16071,-3.98484 35.8685,-6.66187 37.36438,-6.36789 2.31385,0.45474 -30.25534,8.05914 -41.86438,9.77468 -3.025,0.44703 -6.7375,1.13014 -8.25,1.51803 -1.72585,0.44261 -2.75,0.30682 -2.75,-0.36461 z m -139,-14.18213 c 0,-1.11935 0.71379,-3.12456 1.5862,-4.45603 0.8724,-1.33146 1.29585,-2.89063 0.94098,-3.46481 -0.35487,-0.57419 -0.26731,-1.04398 0.19457,-1.04398 0.46187,0 1.36742,1.3979 2.01232,3.10644 0.96319,2.55177 0.89252,3.53382 -0.39577,5.5 -1.91734,2.92623 -4.3383,3.12622 -4.3383,0.35838 z m 317.57245,-3.49459 c -0.93416,-1.4257 -1.52575,-3.11033 -1.31466,-3.74361 0.2111,-0.63328 1.1414,0.36721 2.06735,2.22331 2.05419,4.11772 1.57861,5.07831 -0.75269,1.5203 z M 94.087322,299.60332 c -0.85271,-3.39748 0.73349,-5.23197 2.94027,-3.4005 1.97236,1.63691 1.56305,5.36634 -0.63491,5.78493 -1.06472,0.20277 -1.86333,-0.62322 -2.30536,-2.38443 z m 62.999148,-0.3006 c -0.3043,-0.49236 0.10473,-1.14771 0.90896,-1.45632 1.56267,-0.59966 2.89724,0.64725 1.83243,1.71206 -0.90401,0.90401 -2.09319,0.79308 -2.74139,-0.25574 z m -18.06476,-1.10478 c -0.81604,-1.32037 0.27686,-3 1.95203,-3 1.46268,0 2.76672,2.44792 1.8124,3.40223 -0.9325,0.93251 -3.08143,0.70289 -3.76443,-0.40223 z m 31.84829,-1.5912 c -0.9338,-1.42515 -2.81745,-3.01688 -4.18589,-3.53716 -1.73036,-0.65788 -2.16979,-1.26425 -1.44294,-1.9911 1.61307,-1.61307 -1.29908,-6.56703 -4.18465,-7.11864 -1.33751,-0.25568 -2.82533,-0.0714 -3.30627,0.40956 -0.95261,0.95261 -7.68621,-1.48494 -8.71918,-3.15631 -0.93981,-1.52065 -5.15892,-1.22273 -6.8665,0.48485 -0.825,0.825 -1.98215,1.5 -2.57143,1.5 -0.58929,0 -1.07143,0.675 -1.07143,1.5 0,1.79423 2.12961,1.97039 3.78676,0.31324 1.7219,-1.7219 6.66659,2.93559 5.10905,4.81231 -0.87997,1.06029 -1.50677,1.02024 -3.39492,-0.21692 -1.54377,-1.01152 -2.5329,-1.16585 -2.96731,-0.46297 -1.11429,1.80296 -2.42105,1.17262 -4.03358,-1.94566 -1.62396,-3.14039 -4.2355,-3.8645 -6.34164,-1.75836 -0.98886,0.98886 -1.43364,0.93796 -2.18469,-0.25 -1.53087,-2.42141 -1.11671,-3.13856 1.12096,-1.941 1.90677,1.02048 2.03097,0.91153 1.38482,-1.21481 -1.24399,-4.09367 -1.07104,-4.34385 2.77055,-4.00763 2.21759,0.19409 3.75,-0.11239 3.75,-0.75 0,-0.59301 1.14649,-1.0782 2.54775,-1.0782 1.44625,0 3.56924,-1.10221 4.91045,-2.5494 1.43092,-1.54399 2.61848,-2.13554 3.01127,-1.5 1.08874,1.76162 3.15367,1.17391 4.21836,-1.2006 1.16345,-2.59479 0.68379,-4.75 -1.05716,-4.75 -1.55835,0 -7.73586,-8.02077 -7.04209,-9.14332 0.88533,-1.4325 2.3415,-0.96901 4.17121,1.32767 0.95711,1.20139 3.21641,3.78889 5.02065,5.75 1.80425,1.96111 4.191,5.0789 5.30389,6.92843 2.19954,3.65543 3.26751,3.48897 3.48288,-0.54285 0.0939,-1.75787 -0.46111,-2.74093 -1.73565,-3.07423 -2.57364,-0.67302 -0.65062,-2.90689 3.23754,-3.76088 2.00036,-0.43935 2.9309,-1.25349 2.9309,-2.56428 0,-1.52965 -0.71512,-1.92054 -3.51357,-1.92054 -1.93246,0 -4.3494,0.52199 -5.37097,1.15997 -1.51183,0.94415 -2.44177,0.74387 -4.99819,-1.07647 -1.72743,-1.23004 -2.9113,-2.60775 -2.63082,-3.06157 0.41999,-0.67956 11.26843,-2.44738 13.00231,-2.11881 1.43072,0.27112 0.3435,1.66434 -1.66966,2.13959 -1.28342,0.30297 -1.82788,0.83383 -1.23256,1.20176 1.87796,1.16064 5.13451,-0.33682 6.30123,-2.89751 1.47704,-3.24175 5.13165,-2.8137 6.8597,0.80345 1.72237,3.60526 1.01025,4.85494 -4.75795,8.34959 -7.17925,4.34953 -6.48564,6.58208 2.51048,8.08056 5.5087,0.91759 9.43591,0.71518 10.98812,-0.56633 0.55653,-0.45947 3.36109,-0.66659 6.23234,-0.46026 4.93115,0.35436 5.41538,0.1693 8.73784,-3.33941 2.8863,-3.0481 3.21006,-3.78035 1.80448,-4.08123 -0.9421,-0.20167 -2.27232,-1.10167 -2.95604,-2 -1.14239,-1.50097 -1.24571,-1.49406 -1.27494,0.0853 -0.0205,1.10809 -0.56262,1.51492 -1.52606,1.14521 -0.82184,-0.31537 -1.25542,-0.95983 -0.96352,-1.43214 0.2919,-0.47231 -0.38568,-1.77515 -1.50575,-2.89522 -1.12006,-1.12007 -2.03647,-2.47236 -2.03647,-3.0051 0,-0.53273 -0.69443,-0.70213 -1.54317,-0.37644 -1.37811,0.52883 -1.37009,0.78343 0.075,2.38022 1.53527,1.69646 1.4307,1.74576 -2.04168,0.96262 -4.63355,-1.04504 -9.49015,-3.0408 -9.49015,-3.89986 0,-1.11146 5.95566,-2.97869 6.53108,-2.04763 0.29685,0.48031 1.53629,0.50075 2.75432,0.0454 1.21803,-0.45532 4.8021,-1.14551 7.9646,-1.53374 3.1625,-0.38824 5.75,-1.05227 5.75,-1.47564 0,-1.34714 7.12642,-2.96612 20,-4.54359 35.99707,-4.41091 37.61538,-4.75042 38.24091,-8.02263 0.24491,-1.28119 0.009,-3.10944 -0.52472,-4.06277 -0.53351,-0.95333 -1.55394,-3.80873 -2.26763,-6.34533 -7.65705,-27.21492 -14.32912,-42.83487 -20.33749,-47.61201 -1.3835,-1.1 -4.7718,-3.4625 -7.52954,-5.25 -2.75775,-1.7875 -4.63448,-3.25 -4.17052,-3.25 1.22368,0 13.62449,6.0684 16.74821,8.19583 1.46257,0.99609 3.31283,1.56026 4.11169,1.25371 0.79887,-0.30656 4.36057,0.11706 7.9149,0.94136 7.20694,1.6714 15.42597,2.33065 16.43812,1.31851 0.84628,-0.84629 0.25829,-1.02318 -14.12393,-4.24902 -6.6,-1.48034 -13.125,-3.29134 -14.5,-4.02444 -1.375,-0.73311 -4.75,-2.30352 -7.5,-3.48981 -2.75,-1.18628 -6.49967,-2.80603 -8.3326,-3.59944 -3.2724,-1.41651 -3.32119,-1.40106 -2.70068,0.85537 0.49462,1.79866 -0.12881,1.43086 -2.86943,-1.69286 -4.34076,-4.94754 -5.07725,-7.68039 -3.10019,-11.50361 1.49404,-2.88913 10.81984,-10.00558 13.11191,-10.00558 0.62463,0 4.58204,-1.125 8.79424,-2.5 4.2122,-1.375 9.10714,-2.4478 10.87765,-2.384 1.90803,0.0688 2.40454,0.28633 1.2191,0.53421 -9.67812,2.02373 -18.92363,5.61733 -22.25,8.64826 -3.10766,2.83164 -2.8722,3.23865 2,3.45722 2.3375,0.10487 6.03265,1.10274 8.21144,2.21749 2.17879,1.11475 4.77667,2.02682 5.77305,2.02682 1.64432,0 1.67689,-0.20778 0.3527,-2.25 -1.1606,-1.78993 -1.21057,-2.58502 -0.24439,-3.88844 1.1236,-1.51576 1.36985,-1.51266 3.28904,0.0414 1.14099,0.92392 2.60988,2.68017 3.2642,3.90279 1.15492,2.15798 1.26057,2.17139 3.6154,0.45859 1.33414,-0.97039 2.43985,-2.4821 2.45714,-3.35936 0.0396,-2.00759 -3.08959,-4.90498 -5.29732,-4.90498 -0.91919,0 -1.67126,-0.43886 -1.67126,-0.97525 0,-0.63367 0.89843,-0.63367 2.5651,0 1.4108,0.53639 4.7858,0.97525 7.5,0.97525 4.77342,0 4.9349,-0.0944 4.9349,-2.88646 0,-2.65212 0.36344,-2.94095 4.47669,-3.55777 2.46218,-0.36923 4.67969,-0.99979 4.92781,-1.40124 0.24811,-0.40146 3.5211,-0.71296 7.27331,-0.69223 6.20363,0.0343 6.84996,0.2325 7.12843,2.18613 0.2698,1.89275 -0.32234,2.23488 -4.97579,2.87489 -5.59705,0.76979 -9.99868,2.98223 -9.65225,4.85161 0.11468,0.61879 -1.34101,2.72408 -3.23485,4.67842 l -3.44335,3.55335 0.5,9.78885 c 0.40951,8.01723 0.22852,9.94765 -1,10.66625 -1.33333,0.7799 -1.33333,0.89392 0,1.02621 0.825,0.0819 1.95,0.0424 2.5,-0.0877 2.16384,-0.51189 13.53093,0.1482 16.3183,0.94761 1.62345,0.4656 4.46597,0.53261 6.31672,0.14892 3.11916,-0.64666 3.36498,-0.97995 3.36498,-4.56225 0,-2.20194 0.53779,-4.04459 1.25,-4.28293 0.6875,-0.23006 1.25,-1.2183 1.25,-2.19607 0,-1.44568 1.12058,-1.87939 5.99854,-2.32171 11.6064,-1.05243 17.24349,1.13125 13.52557,5.23951 -0.83826,0.92627 -1.52411,3.49242 -1.52411,5.70257 0,3.15883 0.48131,4.26519 2.25,5.17192 1.82973,0.93802 0.94249,1.05557 -4.75,0.62929 -13.89216,-1.04029 -31.47351,-1.32901 -31.9704,-0.52503 -0.27917,0.4517 0.18154,1.39319 1.02379,2.0922 1.1494,0.95391 1.81672,0.98558 2.67534,0.12696 0.85862,-0.85862 1.584,-0.74574 2.90809,0.45255 2.44917,2.21647 23.55467,4.34912 36.86318,3.72492 22.99008,-1.07829 28.52506,-1.08338 29.84186,-0.0274 3.39733,2.72434 36.11895,1.70083 47.15814,-1.47508 6.0565,-1.74241 16.46779,-3.65852 17.26107,-3.17674 0.41858,0.25422 -0.51776,1.74103 -2.08076,3.30404 -5.19357,5.19357 -12.46713,22.1412 -17.60769,41.02646 -3.2189,11.82552 -3.20924,12.71378 0.17738,16.31404 2.60744,2.77193 2.6328,2.88774 0.48917,2.2339 -2.11617,-0.64547 -2.18644,-0.52632 -1.09824,1.86201 0.63942,1.40338 1.99429,2.81558 3.01083,3.13822 2.70829,0.85957 2.25997,2.59327 -0.49199,1.90257 -2.95491,-0.74163 -5.11363,2.27677 -6.12995,8.5711 -1.46717,9.08654 -6.45188,21.26476 -10.05472,24.56484 -1.88172,1.72358 -3.60594,2.94915 -3.8316,2.72349 -0.22566,-0.22567 -0.0814,-1.8687 0.32064,-3.65118 0.40202,-1.78248 0.41159,-5.69745 0.0213,-8.69994 -0.39032,-3.00248 -0.56592,-5.90905 -0.39022,-6.45905 0.1757,-0.55 0.5502,-3.7 0.83222,-7 0.28201,-3.3 0.93509,-7.42863 1.45128,-9.17473 1.17623,-3.97878 0.69948,-4.44136 -3.83082,-3.71693 -2.62221,0.41931 -4.00599,0.14704 -4.93364,-0.97072 -1.08572,-1.3082 -0.84841,-1.9943 1.50304,-4.34555 l 2.79231,-2.79207 0.63374,2.5 c 0.69025,2.7229 1.81194,2.79617 5.52831,0.36112 2.50174,-1.63921 2.77386,-2.30519 2.47466,-6.05651 -0.0963,-1.20747 0.33397,-3.1466 0.95617,-4.30919 0.97035,-1.81311 0.87282,-2.06982 -0.68559,-1.80461 -1.23588,0.21032 -1.91756,-0.39899 -2.13178,-1.90546 -0.23759,-1.67087 0.31488,-2.37273 2.25,-2.85841 1.41067,-0.35412 2.56488,-0.97589 2.56488,-1.38176 0,-1.53452 -3.18605,-7.04523 -4.07324,-7.04523 -1.29855,0 -1.16129,-6.36547 0.16588,-7.69264 1.86972,-1.86972 -0.72349,-5.14748 -4.65613,-5.88525 -2.75366,-0.51659 -3.82704,-0.27028 -4.83614,1.10974 -0.71333,0.97554 -1.79265,1.46735 -2.39849,1.09292 -0.60584,-0.37443 -1.59669,0.24442 -2.20188,1.37523 -0.60519,1.13081 -1.52777,1.79186 -2.05017,1.46899 -0.52241,-0.32286 -0.94983,-0.13502 -0.94983,0.41743 0,0.55245 -1.2375,1.60338 -2.75,2.33542 -2.01756,0.97648 -2.66382,1.94005 -2.42643,3.61781 0.17797,1.25776 -0.38453,3.36754 -1.25,4.68841 -2.0246,3.08993 -2.00944,5.47194 0.0348,5.47194 1.2302,0 1.45592,0.60756 0.95992,2.58379 -0.42051,1.67543 -0.28284,2.3578 0.39159,1.94098 0.57208,-0.35354 1.04012,-1.48969 1.04012,-2.52477 0,-2.17406 1.52637,-3.41075 3.04856,-2.46999 0.64512,0.39871 0.69818,1.09473 0.13789,1.80902 -1.25588,1.60106 -2.39007,6.66097 -1.49307,6.66097 0.40232,0 1.68894,-1.20076 2.85916,-2.66835 1.40998,-1.76828 2.68757,-2.45349 3.78756,-2.03138 2.39748,0.92 2.04056,2.56917 -0.8401,3.88168 -1.375,0.6265 -2.5,1.7863 -2.5,2.57736 0,0.79105 -1.39759,2.74381 -3.10576,4.33948 -3.41391,3.18908 -6.20928,3.88578 -5.21714,1.30029 0.82472,-2.14918 -1.59918,-3.51115 -3.98058,-2.23666 -2.11538,1.13212 -3.32416,0.32211 -3.84946,-2.57955 -0.57203,-3.15984 -2.76747,-3.08221 -2.54433,0.09 0.14578,2.07232 -0.40139,3.06836 -2.09614,3.81576 -1.69745,0.74858 -2.15178,1.57806 -1.74837,3.19201 0.55724,2.22937 -0.92891,7.36299 -2.40252,8.29905 -0.84876,0.53914 -2.21889,10.45909 -2.43311,17.61607 -0.12332,4.11995 -3.05932,9.40428 -5.22508,9.40428 -0.62029,0 -2.27196,-0.9 -3.67038,-2 -1.39842,-1.1 -3.15882,-2 -3.912,-2 -0.75317,0 -2.9028,-1.40054 -4.77696,-3.11231 -1.87415,-1.71178 -5.13658,-4.01354 -7.24984,-5.11503 -3.07994,-1.60536 -3.61423,-2.27751 -2.69286,-3.38769 0.63218,-0.76173 1.91932,-1.38497 2.86031,-1.38497 0.94099,0 2.00698,-0.2961 2.36888,-0.65799 1.0229,-1.0229 -1.35665,-3.34201 -3.42911,-3.34201 -1.5608,0 -1.84919,-0.76313 -1.79507,-4.75 0.0397,-2.92709 -0.74142,-6.37636 -2.03547,-8.98784 -1.15496,-2.33081 -2.37757,-6.26342 -2.71691,-8.73912 -0.7045,-5.13994 -1.64051,-6.20982 -5.8481,-6.68455 -2.49511,-0.28152 -2.94508,-0.73055 -2.67366,-2.66804 0.27201,-1.94182 -0.0609,-2.27075 -2,-1.97626 -1.29497,0.19666 -2.19995,0.94362 -2.04125,1.68481 0.15679,0.73234 -0.2081,1.92577 -0.81088,2.65207 -0.60277,0.7263 -0.97415,1.91644 -0.82528,2.64474 0.14887,0.72831 -0.30838,2.37185 -1.01613,3.65233 -0.70774,1.28048 -1.04681,2.95357 -0.75348,3.71798 0.29333,0.7644 0.10299,1.6558 -0.42299,1.98087 -0.52598,0.32508 -0.95633,1.46449 -0.95633,2.53203 0,2.41477 -0.4884,2.41755 -4.38197,0.0249 -3.81725,-2.34571 -10.61803,-3.77429 -10.61803,-2.23043 0,0.59185 0.9,1.55777 2,2.14647 1.1,0.5887 2,1.72953 2,2.53518 0,0.80565 0.6199,1.46482 1.37756,1.46482 0.75765,0 1.9133,0.64554 2.56811,1.43454 0.65481,0.78899 2.97615,2.36524 5.15854,3.50276 3.50125,1.82495 7.83137,5.70176 11.61744,10.40122 0.78377,0.97285 2.47308,1.40006 4.713,1.19188 2.06964,-0.19235 3.94728,0.22487 4.61097,1.02457 1.43901,1.7339 0.34919,5.19157 -1.84677,5.85927 -2.91045,0.88493 -9.73464,0.99069 -11.06026,0.17141 -0.73921,-0.45685 -2.04147,-0.0785 -3.13444,0.9106 -1.32003,1.1946 -2.74369,1.50023 -4.84179,1.03941 -1.7832,-0.39166 -3.24564,-0.20992 -3.65619,0.45435 -0.48747,0.78875 -1.05484,0.79952 -1.97305,0.0375 -0.96681,-0.80237 -1.41828,-0.57463 -1.80691,0.91149 -0.46263,1.7691 -0.87702,1.86437 -3.87214,0.89022 -4.21372,-1.37048 -6.56119,-1.38147 -10.35407,-0.0485 -5.75978,2.02424 -13.04129,4.01041 -18.5,5.04623 -13.53125,2.56762 -38.9222,6.20709 -43.19098,6.19088 -2.58004,-0.01 -4.99529,0.47456 -5.36722,1.07635 -0.37193,0.60179 -1.83821,0.87204 -3.2584,0.60056 -1.42019,-0.27149 -3.61745,-0.1 -4.88279,0.38108 -1.42607,0.54218 -2.30061,0.50396 -2.30061,-0.10057 0,-0.53639 0.45,-0.97525 1,-0.97525 0.55,0 1,-0.675 1,-1.5 0,-0.825 0.45,-1.5 1,-1.5 0.55,0 1,-0.60366 1,-1.34146 0,-1.0463 -1.04518,-1.16492 -4.75,-0.53909 -2.6125,0.44131 -7.3375,1.10908 -10.5,1.48392 -3.1625,0.37485 -5.75,1.06744 -5.75,1.53909 0,0.47165 -0.7125,0.85754 -1.58333,0.85754 -0.87084,0 -1.38373,0.5625 -1.13977,1.25 0.24396,0.6875 1.51896,1.13614 2.83333,0.99697 1.83646,-0.19444 2.04773,-0.0325 0.9125,0.69948 -0.90312,0.58231 -1.47728,2.52678 -1.47728,5.00303 0,2.22779 -0.11235,4.05052 -0.24967,4.05052 -0.13732,0 -1.01369,-1.16604 -1.94749,-2.5912 z m 28.65171,-14.4088 c 0,-0.55 -0.19844,-1 -0.44098,-1 -0.24254,0 -0.7191,0.45 -1.05902,1 -0.33992,0.55 -0.14148,1 0.44098,1 0.58246,0 1.05902,-0.45 1.05902,-1 z m -44,-2.11663 c 0,-0.48585 -0.9,-0.88337 -2,-0.88337 -1.1,0 -2,0.63287 -2,1.40638 0,0.91405 0.70014,1.22329 2,0.88337 1.1,-0.28766 2,-0.92053 2,-1.40638 z m 78.5,0.58682 c 3.3,-0.35675 7.575,-1.01335 9.5,-1.45913 1.925,-0.44577 4.7375,-1.0892 6.25,-1.42983 4.01553,-0.90435 3.3602,-2.58415 -1,-2.56329 -5.78795,0.0277 -21.78548,2.66309 -24.28467,4.00061 -1.77376,0.94929 -1.94942,1.37607 -0.85043,2.06611 0.76181,0.47833 2.0601,0.68169 2.8851,0.45192 0.825,-0.22977 4.2,-0.70964 7.5,-1.06639 z m 42.2892,-10.33913 c 6.75906,-1.13382 12.73987,-2.34001 13.29068,-2.68043 1.73102,-1.06983 -0.12696,-4.77996 -4.81589,-9.6167 -4.8397,-4.99227 -6.38745,-5.27528 -14.85716,-2.71674 -1.93542,0.58466 -3.99401,0.57726 -5.5,-0.0198 l -2.40683,-0.95416 3.22327,-1.28078 c 6.07889,-2.41547 4.45167,-6.16492 -1.73893,-4.00686 -1.67238,0.58299 -3.72988,0.79552 -4.57221,0.47229 -1.75565,-0.67368 -7.41213,4.26419 -7.41213,6.4705 0,1.08606 0.83099,1.26831 3.5,0.7676 3.96969,-0.74472 4.6579,0.0433 1.1895,1.36197 -1.97007,0.74902 -2.24646,1.42698 -1.87587,4.60133 0.3003,2.57229 1.01438,3.87449 2.3105,4.21343 2.41622,0.63186 2.37162,1.46659 -0.16293,3.04945 -5.40621,3.37623 1.06233,3.48679 19.828,0.3389 z m -5.7892,-4.13106 c 1.95837,-1.2656 3.28218,-1.2656 2.5,0 -0.33992,0.55 -1.37898,0.99311 -2.30902,0.98469 -1.45727,-0.0132 -1.48367,-0.14929 -0.19098,-0.98469 z m 8,-2 c 0,-0.55 0.45,-1 1,-1 0.55,0 1,0.45 1,1 0,0.55 -0.45,1 -1,1 -0.55,0 -1,-0.45 -1,-1 z m -41.08998,-7.04471 c 4.04154,-1.83362 4.25855,-2.11154 2.59722,-3.32634 -2.46288,-1.8009 -1.09578,-4.0143 1.59122,-2.57626 3.61771,1.93614 8.2497,-1.48342 4.85298,-3.5827 -1.33274,-0.82368 0.70424,-3.46999 2.671,-3.46999 0.75766,0 1.37756,-0.40261 1.37756,-0.89469 0,-0.52201 -1.56204,-0.53195 -3.75,-0.0239 -2.0625,0.47896 -4.11406,0.88157 -4.55902,0.89469 -0.44496,0.0131 -0.48364,0.55033 -0.0859,1.1938 0.47702,0.77183 0.19046,0.96556 -0.84213,0.56932 -1.92238,-0.73769 -18.89765,2.06845 -20.2129,3.34134 -0.5225,0.50567 -1.76,0.9194 -2.75,0.9194 -1.85075,0 -2.59336,2.90083 -0.8,3.125 4.03024,0.50378 8,1.95586 8,2.92628 0,1.09424 3.56625,2.79616 6,2.86337 0.825,0.0228 3.48451,-0.85893 5.91002,-1.95936 z m 19.58998,-13.95529 c 0.33992,-0.55 -0.0835,-1 -0.94098,-1 -0.85746,0 -1.55902,0.45 -1.55902,1 0,0.55 0.42344,1 0.94098,1 0.51754,0 1.2191,-0.45 1.55902,-1 z m 4.22917,-1.60417 c -0.3323,-0.33229 -1.1948,-0.36781 -1.91667,-0.0789 -0.79773,0.31922 -0.56078,0.55618 0.60417,0.60416 1.05416,0.0434 1.64479,-0.19293 1.3125,-0.52522 z m 13.28953,-2.91836 c 1.1309,-1.36265 1.51128,-1.36023 3.62244,0.023 2.26138,1.48171 2.35886,1.44238 2.35886,-0.95179 0,-1.73756 -0.87206,-2.94833 -2.86631,-3.9796 -1.86704,-0.96548 -3.07851,-2.54325 -3.475,-4.52568 -0.33478,-1.67385 -1.06994,-3.0434 -1.63369,-3.0434 -1.37855,0 -1.30192,2.32308 0.12365,3.74865 0.86487,0.86487 0.74135,1.77029 -0.5,3.66482 -3.10302,4.73581 -1.03131,9.16238 2.37005,5.064 z m -5.19586,-4.43164 c 0.17757,-1.81508 -0.15993,-3.78292 -0.75,-4.37299 -0.59006,-0.59006 -1.07284,-1.96339 -1.07284,-3.05184 0,-1.85363 -1.00884,-5.54201 -3.21991,-11.77222 -1.39554,-3.93228 -5.51138,-7.51749 -6.9633,-6.06557 -0.87564,0.87564 -0.83829,2.12163 0.15371,5.12741 0.72075,2.18388 1.05848,5.52338 0.75052,7.42111 -0.30796,1.89773 -0.31772,5.25621 -0.0217,7.46328 0.46774,3.48724 0.91243,4.06778 3.39505,4.43215 1.57124,0.23061 3.08863,-0.0637 3.37198,-0.65394 0.28335,-0.59027 0.24618,-0.005 -0.0826,1.30163 -0.37113,1.47438 -0.0832,2.70051 0.75923,3.23374 2.20272,1.39418 3.33613,0.45083 3.67985,-3.06276 z m 9.44106,-17.11501 c -0.38935,-2.90281 -0.22816,-4.02676 0.5119,-3.56938 0.6018,0.37193 1.39029,-0.30938 1.78034,-1.53832 0.52909,-1.66703 0.0581,-2.7582 -1.928,-4.46656 -1.44548,-1.24335 -2.62814,-2.73221 -2.62814,-3.30859 0,-0.57639 -0.675,-1.04797 -1.5,-1.04797 -0.93333,0 -1.5,-0.94444 -1.5,-2.5 0,-1.55556 -0.56667,-2.5 -1.5,-2.5 -0.825,0 -1.5,0.46156 -1.5,1.02568 0,0.57353 -1.38676,0.30856 -3.14577,-0.60106 -2.39087,-1.23637 -3.00531,-1.30252 -2.56048,-0.27568 0.32191,0.74308 1.98651,4.72606 3.69912,8.85106 1.71261,4.125 3.53983,7.65 4.06048,7.83333 0.52066,0.18334 0.94665,2.00584 0.94665,4.05 0,4.88906 1.59701,6.51966 4.0161,4.10057 1.40856,-1.40856 1.68857,-2.76687 1.2478,-6.05308 z m 41.96076,-15.09079 c 2.4022,-1.71052 3.40384,-1.92862 4.81369,-1.04815 1.89464,1.18322 8.64606,0.52777 9.54495,-0.92666 0.2941,-0.47587 1.52068,-0.8789 2.72572,-0.89563 1.73115,-0.024 1.87617,-0.21328 0.69098,-0.90176 -0.825,-0.47925 -6.08029,-1.11074 -11.67841,-1.40332 -10.01771,-0.52356 -10.20429,-0.49248 -11.81691,1.96869 -1.28512,1.96134 -1.38198,2.80972 -0.44914,3.93372 1.60225,1.9306 2.60255,1.81273 6.16912,-0.72689 z m -35.8919,-8.11063 c -0.84808,-1.37222 -3.33435,1.36377 -3.31052,3.64304 0.0214,2.05205 0.0897,2.03982 1.92178,-0.34448 1.04476,-1.35962 1.66969,-2.84398 1.38874,-3.29856 z m 114.66724,-1.7294 c 1.33333,-0.86167 1.33333,-0.96937 0,-0.96937 -0.825,0 -2.175,0.43621 -3,0.96937 -1.33333,0.86167 -1.33333,0.96937 0,0.96937 0.825,0 2.175,-0.43621 3,-0.96937 z m -144,-2.39301 c 0,-0.21616 -0.69837,-0.661 -1.55194,-0.98855 -0.88992,-0.34149 -1.29132,-0.17385 -0.94098,0.39301 0.58726,0.95021 2.49292,1.40545 2.49292,0.59554 z m -7.5,-16.60699 c -2.74909,-1.18132 -4.32797,-1.18132 -2.5,0 0.825,0.53316 2.175,0.94464 3,0.9144 0.98906,-0.0362 0.81874,-0.34772 -0.5,-0.9144 z m -12.95888,-4.93347 c -0.36254,-0.58659 -1.4201,-1.05222 -2.35014,-1.03473 -1.48465,0.0279 -1.45585,0.2097 0.23602,1.48967 2.05508,1.55476 3.20345,1.30764 2.11412,-0.45494 z M 98.209212,294.55211 c -0.37812,-0.37813 -0.6875,-1.9955 -0.6875,-3.59416 0,-2.22997 0.40741,-2.8282 1.75,-2.56964 1.187378,0.22867 1.749998,1.27031 1.749998,3.23999 0,2.82652 -1.426658,4.30965 -2.812498,2.92381 z m -6.58439,-4.1615 c -0.7159,-1.33769 -1.7691,-1.78801 -3.43634,-1.4693 -1.94925,0.37262 -2.53163,-0.0488 -3.07846,-2.22756 -0.40923,-1.63047 -0.18261,-3.27972 0.57629,-4.19413 1.09606,-1.32069 1.47203,-1.2337 3.04071,0.70354 0.9845,1.21581 2.43316,1.96376 3.21923,1.66211 1.92947,-0.74041 3.80405,1.7111 3.40223,4.4493 -0.42948,2.92665 -2.42467,3.50321 -3.72366,1.07604 z m 41.520428,-0.73133 c -0.96498,-2.51469 -0.68031,-3.16355 0.49853,-1.13634 0.58369,1.00375 0.8506,2.03566 0.59313,2.29313 -0.25747,0.25747 -0.74872,-0.26309 -1.09166,-1.15679 z m 47.08671,-0.46134 c 0.53484,-2.04524 1.44433,-2.51209 2.61441,-1.34201 0.72764,0.72765 -1.11342,3.34201 -2.35349,3.34201 -0.43116,0 -0.54858,-0.9 -0.26092,-2 z m 5.78975,0 c 0.33992,-0.55 0.81648,-1 1.05902,-1 0.24254,0 0.44098,0.45 0.44098,1 0,0.55 -0.47656,1 -1.05902,1 -0.58246,0 -0.7809,-0.45 -0.44098,-1 z m -65.49475,-1.95137 c -3.51418,-0.89634 -3.66292,-3.58149 -0.31642,-5.7124 1.54615,-0.98452 3.09836,-2.19558 3.44937,-2.69125 0.351,-0.49566 1.16036,-0.5785 1.79855,-0.18407 0.8668,0.53571 0.83492,1.10928 -0.12602,2.26714 -0.70751,0.8525 -1.15279,2.56946 -0.98951,3.81546 0.36047,2.75076 -0.53868,3.34104 -3.81597,2.50512 z m -1.50525,-16.48865 c -6.25421,-5.90799 -11.14854,-9.55998 -12.81211,-9.55998 -2.84648,0 -4.75824,-1.23536 -6.18676,-3.99782 -0.783698,-1.51551 -3.264158,-3.66545 -5.512148,-4.77767 -3.72436,-1.84267 -4.34923,-1.8915 -7.03823,-0.55006 -3.95813,1.97458 -6.38504,1.36853 -6.74313,-1.68391 -0.40861,-3.48304 1.98489,-6.51779 4.39777,-5.576 1.73719,0.67805 1.64896,0.93684 -1.06182,3.11464 -4.75932,3.82357 -0.92227,4.05303 6.46716,0.38675 l 6.36965,-3.16031 -2.94019,-1.29659 -2.94019,-1.29659 2.55,-0.0812 c 1.4025,-0.0447 2.9775,0.34502 3.5,0.86598 0.5225,0.52095 3.874998,1.08345 7.449998,1.25 l 6.5,0.3028 -3.17788,1.46219 c -3.66709,1.68726 -3.42586,3.03779 0.54262,3.03779 1.51069,0 4.27155,1.125 6.13526,2.5 1.86371,1.375 4.53863,2.50635 5.94428,2.51412 3.29819,0.0182 11.54375,7.2717 10.71661,9.42721 -0.32185,0.83873 -1.2317,1.27686 -2.02189,0.97364 -0.79018,-0.30323 -1.73377,-0.0706 -2.09687,0.51686 -0.36309,0.58749 -1.68361,1.06817 -2.93448,1.06817 -3.19337,0 -3.87653,1.04541 -2.02218,3.09444 0.87441,0.96622 1.43789,2.54141 1.25218,3.50043 -0.27634,1.42706 -1.06399,1.05756 -4.33765,-2.03489 z m 5.66534,-8.16217 c 0.98883,-0.61113 -1.81404,-4.39781 -3.25523,-4.39781 -0.42895,0 -2.04671,0.48362 -3.59501,1.0747 -2.48627,0.94917 -2.6248,1.21455 -1.18593,2.2719 1.82724,1.34273 6.56228,1.96213 8.03617,1.05121 z m 8.37737,-1.32871 c -0.73955,-1.1966 1.14162,-2.38223 2.4736,-1.55902 1.11836,0.69118 0.38417,2.48992 -1.01631,2.48992 -0.48508,0 -1.14086,-0.41891 -1.45729,-0.9309 z M 474.086,260.49107 c -0.54268,-1.4252 -0.42782,-1.54006 0.5598,-0.5598 0.68342,0.67834 0.99067,1.48524 0.68278,1.79313 -0.30789,0.30789 -0.86705,-0.24711 -1.24258,-1.23333 z M 90.074502,259.28335 c -0.32198,-0.52097 -0.15917,-1.21065 0.3618,-1.53262 0.52097,-0.32198 1.21065,-0.15917 1.53263,0.3618 0.32197,0.52097 0.15916,1.21065 -0.36181,1.53262 -0.52097,0.32198 -1.21065,0.15917 -1.53262,-0.3618 z m 48.447208,-0.58541 c 0,-1.02996 0.6554,-1.52043 1.75,-1.30963 2.10784,0.40593 1.97493,2.18068 -0.19718,2.63295 -0.90598,0.18865 -1.55282,-0.36259 -1.55282,-1.32332 z m -15,-5.83399 c 0,-2.39704 2.0175,-3.07709 3.81025,-1.28433 0.91911,0.91911 1.12902,1.61832 0.48582,1.61832 -0.62287,0 -1.8443,0.27314 -2.71428,0.60699 -1.02257,0.39239 -1.58179,0.0597 -1.58179,-0.94098 z m 12.5,0.33399 c -0.33992,-0.55 -0.14148,-1 0.44098,-1 0.58246,0 1.05902,0.45 1.05902,1 0,0.55 -0.19844,1 -0.44098,1 -0.24254,0 -0.7191,-0.45 -1.05902,-1 z m 218.16667,-0.66667 c -0.83259,-0.83258 -0.86632,-4.64947 -0.0597,-6.75154 0.78028,-2.03338 3.39301,-2.0626 3.39301,-0.038 0,0.84911 0.56498,1.41409 1.25552,1.25552 0.69053,-0.15858 2.25522,0.71138 3.47708,1.93324 2.15445,2.15445 2.16382,2.25246 0.31022,3.24448 -2.15057,1.15095 -7.35989,1.37251 -8.37615,0.35625 z m 12.33333,-2.33333 c 1.97012,-1.27319 4.28687,-1.27319 3.5,0 -0.33992,0.55 -1.60398,0.99311 -2.80902,0.98469 -1.78123,-0.0125 -1.91046,-0.1966 -0.69098,-0.98469 z m -249.75,-5.68933 c 0.9625,-0.25152 2.5375,-0.25152 3.5,0 0.9625,0.25153 0.175,0.45733 -1.75,0.45733 -1.925,0 -2.7125,-0.2058 -1.75,-0.45733 z m -36.249998,-1.31067 c 0,-0.55 0.47656,-1 1.05902,-1 0.58246,0 0.7809,0.45 0.44098,1 -0.33992,0.55 -0.81647,1 -1.05901,1 -0.24255,0 -0.44099,-0.45 -0.44099,-1 z M 379.4919,238.25363 c 0.57231,-1.06937 1.48815,-2.22092 2.03519,-2.55901 1.40866,-0.87061 1.23896,1.85898 -0.20538,3.30332 -1.86698,1.86698 -2.98413,1.41256 -1.82981,-0.74431 z m -3.63622,-3.62776 c -0.32468,-0.8461 -0.17358,-2.47231 0.33577,-3.6138 0.86277,-1.93355 1.03955,-1.96198 2.58568,-0.41585 0.91278,0.91278 1.41893,2.28678 1.12477,3.05334 -0.80642,2.10151 -3.37648,2.72163 -4.04622,0.97631 z m -51.08397,-52.11726 c 0.9625,-0.25152 2.5375,-0.25152 3.5,0 0.9625,0.25153 0.175,0.45733 -1.75,0.45733 -1.925,0 -2.7125,-0.2058 -1.75,-0.45733 z m 7.01903,-0.004 c 0.97297,-0.25354 2.32297,-0.23687 3,0.0371 0.67703,0.27393 -0.11903,0.48137 -1.76903,0.46099 -1.65,-0.0204 -2.20394,-0.2445 -1.23097,-0.49804 z m 6.7329,-0.31646 c -10e-4,-0.2802 0.861,-1.04836 1.91569,-1.70703 2.55851,-1.59782 1.71275,-4.38519 -1.9723,-6.50012 -1.68254,-0.9653 -2.94532,-2.52978 -2.94532,-3.64865 0,-2.19288 4.25382,-3.30108 12.67119,-3.30108 3.14256,0 5.54137,-0.64197 7.16188,-1.91666 1.34016,-1.05417 3.00282,-1.91667 3.6948,-1.91667 0.69198,0 1.52908,-0.70603 1.86022,-1.56895 0.3924,-1.02259 1.27903,-1.35409 2.54608,-0.95194 1.32248,0.41974 2.27186,0.004 2.96941,-1.29895 0.56396,-1.05377 2.39137,-2.18915 4.0609,-2.52306 3.39645,-0.67929 4.10302,-3.44675 1.53552,-6.01424 -2.92142,-2.92143 -1.41895,-2.63354 5.25,1.00594 7.86786,4.29378 8.68317,5.21507 6.62638,7.4878 -1.3676,1.51118 -1.34975,1.77892 0.17559,2.63255 0.93392,0.52264 1.69803,2.12681 1.69803,3.56481 l 0,2.61455 2.49254,-1.96063 c 1.37089,-1.07835 2.87847,-1.72211 3.35017,-1.43058 1.00451,0.62082 13.52048,-11.66411 13.12495,-12.88266 -0.14734,-0.45395 0.5309,-0.57672 1.50722,-0.27283 0.97632,0.30389 2.3646,0.18208 3.08506,-0.2707 0.94645,-0.5948 0.39146,-1.27588 -2,-2.45441 -6.53484,-3.22041 3.06706,-1.33973 13.19006,2.58348 10.67644,4.13771 15,8.98162 15,16.80529 0,3.5244 -0.56822,4.68526 -3.69542,7.54966 -3.95956,3.62681 -6.30458,4.31993 -6.30458,1.86343 0,-3.32517 -4.30082,-3.80344 -13.12391,-1.45942 -11.56687,3.07296 -34.97383,5.85712 -48.87609,5.81361 -3.575,-0.0112 -6.95,0.0938 -7.5,0.23327 -1.9459,0.49349 -17.49617,0.42642 -17.49807,-0.0755 z m 84.57267,-26.86984 c -0.29889,-0.48361 -1.47616,-1.12321 -2.61617,-1.42133 -1.70185,-0.44504 -1.86166,-0.28771 -0.89314,0.87929 1.26442,1.52353 4.41683,2.01044 3.50931,0.54204 z m -103.66028,13.2764 c -0.94106,-1.13391 -0.6768,-1.39677 1.40422,-1.39677 3.17091,0 4.35931,1.58947 1.70698,2.28308 -1.07359,0.28075 -2.47363,-0.11809 -3.1112,-0.88631 z M 233.73228,148.6599 c -1.40233,-1.58998 -0.90395,-1.7545 2.52818,-0.83462 1.23132,0.33002 1.99226,0.99888 1.69099,1.48635 -0.80992,1.31047 -2.75331,1.01027 -4.21917,-0.65173 z m 134.78943,-2.37084 c 0,-0.63457 -1.4625,-1.16199 -3.25,-1.17203 -5.88583,-0.0331 -10.23441,-0.45644 -11.25,-1.0953 -0.55,-0.34598 -3.25,-0.95385 -6,-1.35083 -8.74906,-1.26298 -8.18511,-2.27501 1.0622,-1.90615 8.67365,0.34598 15.0936,1.05834 18.6878,2.07363 0.9625,0.27188 1.75,0.047 1.75,-0.49973 0,-0.54673 -0.7875,-1.23349 -1.75,-1.52612 -0.9625,-0.29264 0.5,-0.28151 3.25,0.0247 4.90949,0.5467 6.45422,1.54484 6.48469,4.19015 0.0111,0.96221 -0.8247,1.14496 -3.02565,0.66155 -1.85918,-0.40835 -3.60797,-0.19733 -4.5,0.54299 -1.06932,0.88745 -1.45904,0.90271 -1.45904,0.0571 z m 30,-0.0911 -2.5,-0.80064 2.69098,-0.0997 c 1.48004,-0.0548 2.9691,0.35032 3.30902,0.90032 0.70255,1.13674 0.0495,1.13674 -3.5,0 z m -9.00151,-2.54639 c -1.44849,-0.80164 -1.86811,-1.3912 -0.99849,-1.40286 1.78618,-0.024 4.64229,1.64029 3.96953,2.31305 -0.2599,0.2599 -1.59687,-0.14969 -2.97104,-0.91019 z m -98.30648,-2.09493 c -0.37106,-0.37107 -0.17346,-1.27857 0.43911,-2.01667 1.29775,-1.5637 6.4656,-1.80355 7.36888,-0.34201 0.35698,0.5776 -0.58962,1 -2.24098,1 -1.57246,0 -3.31652,0.4575 -3.87569,1.01667 -0.55916,0.55916 -1.32026,0.71307 -1.69132,0.34201 z m 44.80799,-1.35868 c -0.33992,-0.55 0.0835,-1 0.94098,-1 0.85746,0 1.55902,0.45 1.55902,1 0,0.55 -0.42344,1 -0.94098,1 -0.51754,0 -1.2191,-0.45 -1.55902,-1 z m -34.95729,-0.9309 c -0.83742,-1.35496 0.77626,-2.06641 5.64945,-2.49075 4.28663,-0.37327 7.2827,0.84429 6.23781,2.53496 -0.73014,1.18139 -11.15376,1.14262 -11.88726,-0.0442 z"
       id="path3154"
       inkscape:connector-curvature="0" />
  </g>
</svg>
